<?xml version="1.0" encoding="UTF-8"?>
<!DOCTYPE svg PUBLIC "-//W3C//DTD SVG 1.1//EN" "http://www.w3.org/Graphics/SVG/1.1/DTD/svg11.dtd">
<!-- Creator: CorelDRAW 2021 (64-Bit) -->
<svg xmlns="http://www.w3.org/2000/svg" xml:space="preserve" width="577px" height="577px" version="1.1" shape-rendering="geometricPrecision" text-rendering="geometricPrecision" image-rendering="optimizeQuality" fill-rule="evenodd" clip-rule="evenodd"
viewBox="0 0 575.34 575.34"
 xmlns:xlink="http://www.w3.org/1999/xlink"
 xmlns:xodm="http://www.corel.com/coreldraw/odm/2003">
 <g id="Слой_x0020_1">
  <metadata id="CorelCorpID_0Corel-Layer"/>
  <g id="_1976788901184">
   <path fill="#0077FF" fill-rule="nonzero" d="M0 276.16c0,-130.18 0,-195.27 40.44,-235.72 40.45,-40.44 105.54,-40.44 235.72,-40.44l23.02 0c130.18,0 195.28,0 235.72,40.44 40.44,40.45 40.44,105.54 40.44,235.72l0 23.02c0,130.18 0,195.27 -40.44,235.72 -40.44,40.44 -105.54,40.44 -235.72,40.44l-23.02 0c-130.18,0 -195.27,0 -235.72,-40.44 -40.44,-40.45 -40.44,-105.54 -40.44,-235.72l0 -23.02z"/>
   <path fill="white" fill-rule="nonzero" d="M304.8 414.49c-131.14,0 -205.93,-89.9 -209.04,-239.49l65.68 0c2.16,109.79 50.58,156.3 88.94,165.89l0 -165.89 61.85 0 0 94.69c37.87,-4.07 77.66,-47.22 91.09,-94.69l61.85 0c-10.31,58.49 -53.46,101.64 -84.14,119.38 30.68,14.39 79.83,52.03 98.53,120.11l-68.09 0c-14.62,-45.55 -51.05,-80.79 -99.24,-85.58l0 85.58 -7.43 0z"/>
  </g>
 </g>
</svg>
