<svg width="198" height="53" viewBox="0 0 198 53" fill="none" xmlns="http://www.w3.org/2000/svg">
<g clip-path="url(#clip0_999_851)">
<path fill-rule="evenodd" clip-rule="evenodd" d="M8.75209 28.6263C11.6581 30.5469 9.02885 34.6624 6.12288 32.7419L1.41796 29.7238C-1.48802 27.8032 1.1412 23.6877 4.18556 25.6083L8.89047 28.6263H8.75209ZM17.1933 20.8068C19.5457 23.4133 15.8095 26.7058 13.457 24.0993L9.16723 19.2978C6.81477 16.6913 10.551 13.3989 12.9035 16.0054L17.1933 20.8068V20.8068ZM27.1566 17.5144C28.1253 20.8068 23.282 22.1787 22.3133 18.8863L20.2376 11.7527C19.269 8.46027 24.1123 7.08843 25.0809 10.3809L27.1566 17.5144ZM38.227 17.5144C37.6735 20.944 32.6918 20.1209 33.2453 16.8285L34.3524 9.69493C34.9059 6.26533 39.8876 7.08843 39.3341 10.518L38.227 17.6516V17.5144ZM48.1904 20.944C46.5298 23.9621 42.1017 21.6299 43.7622 18.6119L47.0833 12.5758C48.7439 9.55775 53.172 11.8899 51.5115 14.9079L48.1904 20.944V20.944ZM44.7309 23.4133C47.9136 24.7852 45.9763 29.3123 42.7936 27.9404C37.2584 25.6083 31.5848 25.1967 26.6031 26.5686C21.7598 27.9404 17.47 30.9585 14.0105 36.0343C12.0732 38.9151 7.92181 36.0343 9.85913 33.2906C14.0105 27.2545 19.269 23.5505 25.2193 21.9043C31.4464 20.1209 38.0886 20.8068 44.7309 23.5505V23.4133ZM40.7179 43.1678V35.8971C40.7179 34.6624 41.6865 33.7021 42.9319 33.7021C44.1774 33.7021 45.146 34.6624 45.146 35.8971V37.4061C45.4228 37.4061 45.5612 37.2689 45.6995 36.8574L46.253 35.8971C46.8066 34.9368 47.4985 33.2906 49.2974 33.7021C50.5428 33.9765 51.2347 35.2112 50.6812 36.4458C50.5428 36.8574 50.2661 37.2689 49.8509 37.6805C49.5742 38.092 49.159 38.3664 48.7439 38.6408C49.2974 38.778 49.7125 39.0523 49.9893 39.3267C50.2661 39.6011 50.5428 40.0126 50.8196 40.5614C50.958 41.1101 51.0963 41.796 51.0963 42.7563V43.1678C51.0963 44.4025 50.1277 45.3628 48.8823 45.3628C47.6368 45.3628 46.6682 44.4025 46.6682 43.1678V41.6588C46.6682 41.3845 46.5298 41.1101 46.253 40.9729C45.9763 40.8357 45.5612 40.8357 45.0076 40.8357V43.305C45.0076 44.5397 44.039 45.5 42.7936 45.5C41.5481 45.5 40.5795 44.5397 40.5795 43.305L40.7179 43.1678ZM58.0153 37.9549C57.1851 37.9549 56.4932 38.6408 56.4932 39.4639C56.4932 40.287 57.1851 40.9729 58.0153 40.9729C58.8456 40.9729 59.5375 40.287 59.5375 39.4639C59.5375 38.6408 58.8456 37.9549 58.0153 37.9549ZM58.0153 33.565C61.1981 33.565 63.8273 36.1715 63.8273 39.3267C63.8273 42.4819 61.1981 45.0884 58.0153 45.0884C54.8326 45.0884 52.2034 42.4819 52.2034 39.3267C52.2034 36.1715 54.8326 33.565 58.0153 33.565V33.565ZM30.7545 34.2509C29.0939 34.2509 27.7101 35.6227 27.7101 37.2689C27.7101 38.9151 29.0939 40.287 30.7545 40.287C32.4151 40.287 33.7989 38.9151 33.7989 37.2689C33.7989 35.6227 32.4151 34.2509 30.7545 34.2509V34.2509ZM30.7545 29.1751C35.1827 29.1751 38.9189 32.879 38.9189 37.2689C38.9189 41.6588 35.1827 45.3628 30.7545 45.3628C26.188 45.3628 22.5901 41.6588 22.5901 37.2689C22.5901 32.7419 26.3263 29.1751 30.7545 29.1751Z" fill="#ED1B24"/>
</g>
<path d="M85.42 19.1C84.38 19.1 83.4467 18.8733 82.62 18.42C81.8067 17.9667 81.1667 17.3333 80.7 16.52C80.2333 15.6933 80 14.7667 80 13.74C80 12.7133 80.2333 11.7933 80.7 10.98C81.1667 10.1667 81.8067 9.53333 82.62 9.08C83.4467 8.62667 84.38 8.4 85.42 8.4C86.3267 8.4 87.1333 8.58 87.84 8.94C88.56 9.28667 89.1267 9.8 89.54 10.48L88.48 11.2C88.1333 10.68 87.6933 10.2933 87.16 10.04C86.6267 9.77333 86.0467 9.64 85.42 9.64C84.66 9.64 83.9733 9.81333 83.36 10.16C82.76 10.4933 82.2867 10.9733 81.94 11.6C81.6067 12.2267 81.44 12.94 81.44 13.74C81.44 14.5533 81.6067 15.2733 81.94 15.9C82.2867 16.5133 82.76 16.9933 83.36 17.34C83.9733 17.6733 84.66 17.84 85.42 17.84C86.0467 17.84 86.6267 17.7133 87.16 17.46C87.6933 17.2067 88.1333 16.82 88.48 16.3L89.54 17.02C89.1267 17.7 88.56 18.22 87.84 18.58C87.12 18.9267 86.3133 19.1 85.42 19.1ZM99.4942 9.74H95.5142V19H94.0942V9.74H90.1142V8.48H99.4942V9.74ZM110.526 8.48L105.266 20.26C104.84 21.2467 104.346 21.9467 103.786 22.36C103.226 22.7733 102.553 22.98 101.766 22.98C101.26 22.98 100.786 22.9 100.346 22.74C99.9064 22.58 99.5264 22.34 99.2064 22.02L99.8664 20.96C100.4 21.4933 101.04 21.76 101.786 21.76C102.266 21.76 102.673 21.6267 103.006 21.36C103.353 21.0933 103.673 20.64 103.966 20L104.426 18.98L99.7264 8.48H101.206L105.166 17.42L109.126 8.48H110.526ZM122.53 17.76V21.54H121.19V19H111.77V21.54H110.43V17.76H111.03C111.737 17.72 112.217 17.2 112.47 16.2C112.723 15.2 112.897 13.8 112.99 12L113.13 8.48H120.89V17.76H122.53ZM114.29 12.08C114.223 13.5733 114.097 14.8067 113.91 15.78C113.723 16.74 113.39 17.4 112.91 17.76H119.47V9.74H114.41L114.29 12.08ZM125.297 8.48H126.717V16.84L133.737 8.48H134.997V19H133.577V10.64L126.577 19H125.297V8.48ZM147.147 8.48V19H145.847V15.52H142.547H142.147L139.707 19H138.167L140.787 15.32C139.974 15.0933 139.347 14.7067 138.907 14.16C138.467 13.6133 138.247 12.92 138.247 12.08C138.247 10.9067 138.647 10.0133 139.447 9.4C140.247 8.78667 141.34 8.48 142.727 8.48H147.147ZM139.687 12.12C139.687 13.68 140.68 14.46 142.667 14.46H145.847V9.74H142.767C140.714 9.74 139.687 10.5333 139.687 12.12Z" fill="black"/>
<path d="M88.408 33.896C89.608 33.896 90.696 34.176 91.672 34.736C92.664 35.28 93.44 36.056 94 37.064C94.56 38.056 94.84 39.216 94.84 40.544C94.84 41.872 94.56 43.04 94 44.048C93.44 45.04 92.664 45.816 91.672 46.376C90.696 46.92 89.608 47.192 88.408 47.192C86.76 47.192 85.464 46.672 84.52 45.632V51.656H80.776V34.088H84.352V35.576C85.28 34.456 86.632 33.896 88.408 33.896ZM87.76 44.12C88.72 44.12 89.504 43.8 90.112 43.16C90.736 42.504 91.048 41.632 91.048 40.544C91.048 39.456 90.736 38.592 90.112 37.952C89.504 37.296 88.72 36.968 87.76 36.968C86.8 36.968 86.008 37.296 85.384 37.952C84.776 38.592 84.472 39.456 84.472 40.544C84.472 41.632 84.776 42.504 85.384 43.16C86.008 43.8 86.8 44.12 87.76 44.12ZM110.016 40.592C110.016 40.64 109.992 40.976 109.944 41.6H100.176C100.352 42.4 100.768 43.032 101.424 43.496C102.08 43.96 102.896 44.192 103.872 44.192C104.544 44.192 105.136 44.096 105.648 43.904C106.176 43.696 106.664 43.376 107.112 42.944L109.104 45.104C107.888 46.496 106.112 47.192 103.776 47.192C102.32 47.192 101.032 46.912 99.9121 46.352C98.7921 45.776 97.9281 44.984 97.3201 43.976C96.7121 42.968 96.4081 41.824 96.4081 40.544C96.4081 39.28 96.7041 38.144 97.2961 37.136C97.9041 36.112 98.7281 35.32 99.7681 34.76C100.824 34.184 102 33.896 103.296 33.896C104.56 33.896 105.704 34.168 106.728 34.712C107.752 35.256 108.552 36.04 109.128 37.064C109.72 38.072 110.016 39.248 110.016 40.592ZM103.32 36.728C102.472 36.728 101.76 36.968 101.184 37.448C100.608 37.928 100.256 38.584 100.128 39.416H106.488C106.36 38.6 106.008 37.952 105.432 37.472C104.856 36.976 104.152 36.728 103.32 36.728ZM118.574 42.104H116.63V47H112.886V34.088H116.63V39.104H118.646L122.15 34.088H126.134L121.622 40.28L126.446 47H122.03L118.574 42.104ZM140.668 34.088V47H136.924V37.16H132.844L132.724 39.44C132.66 41.136 132.5 42.544 132.244 43.664C131.988 44.784 131.572 45.664 130.996 46.304C130.42 46.944 129.62 47.264 128.596 47.264C128.052 47.264 127.404 47.168 126.652 46.976L126.844 43.904C127.1 43.936 127.284 43.952 127.396 43.952C127.956 43.952 128.372 43.752 128.644 43.352C128.932 42.936 129.124 42.416 129.22 41.792C129.316 41.152 129.388 40.312 129.436 39.272L129.628 34.088H140.668ZM149.285 33.896C151.285 33.896 152.821 34.376 153.893 35.336C154.965 36.28 155.501 37.712 155.501 39.632V47H151.997V45.392C151.293 46.592 149.981 47.192 148.061 47.192C147.069 47.192 146.205 47.024 145.469 46.688C144.749 46.352 144.197 45.888 143.813 45.296C143.429 44.704 143.237 44.032 143.237 43.28C143.237 42.08 143.685 41.136 144.581 40.448C145.493 39.76 146.893 39.416 148.781 39.416H151.757C151.757 38.6 151.509 37.976 151.013 37.544C150.517 37.096 149.773 36.872 148.781 36.872C148.093 36.872 147.413 36.984 146.741 37.208C146.085 37.416 145.525 37.704 145.061 38.072L143.717 35.456C144.421 34.96 145.261 34.576 146.237 34.304C147.229 34.032 148.245 33.896 149.285 33.896ZM148.997 44.672C149.637 44.672 150.205 44.528 150.701 44.24C151.197 43.936 151.549 43.496 151.757 42.92V41.6H149.189C147.653 41.6 146.885 42.104 146.885 43.112C146.885 43.592 147.069 43.976 147.437 44.264C147.821 44.536 148.341 44.672 148.997 44.672ZM171.353 47V39.272L167.489 45.752H165.905L162.137 39.248V47H158.753V34.088H162.665L166.793 41.552L171.185 34.088H174.689L174.737 47H171.353ZM185.115 38.216C186.795 38.232 188.067 38.608 188.931 39.344C189.795 40.08 190.227 41.136 190.227 42.512C190.227 43.952 189.739 45.064 188.763 45.848C187.787 46.632 186.403 47.024 184.611 47.024L178.323 47V34.088H182.043V38.216H185.115ZM191.619 34.088H195.339V47H191.619V34.088ZM184.275 44.36C184.995 44.376 185.547 44.224 185.931 43.904C186.315 43.584 186.507 43.104 186.507 42.464C186.507 41.84 186.315 41.384 185.931 41.096C185.563 40.808 185.011 40.656 184.275 40.64L182.043 40.616V44.36H184.275Z" fill="black"/>
<defs>
<clipPath id="clip0_999_851">
<rect width="64" height="38" fill="white" transform="translate(0 7.5)"/>
</clipPath>
</defs>
</svg>
