<svg width="55" height="55" viewBox="0 0 55 55" fill="none" xmlns="http://www.w3.org/2000/svg">
<circle cx="27.5" cy="27.5" r="26.5" stroke="#ED1B24" stroke-width="2"/>
<path fill-rule="evenodd" clip-rule="evenodd" d="M15.6728 15.7116C14.8378 15.8841 14.1292 16.7325 13.4943 17.3603C12.8348 18.0121 12.1928 18.5743 11.6175 19.3296C10.4563 20.8472 11.172 23.9029 11.821 25.5412C13.0382 28.6004 14.7957 31.432 16.9356 33.8359C17.0795 34.0015 17.2373 34.2015 17.3741 34.3395C18.2792 35.2466 18.7037 35.7846 19.7876 36.7158C20.5454 37.3677 21.0821 37.8367 21.917 38.4403C23.3448 39.475 24.9444 40.4924 26.744 41.3305C28.5016 42.1514 30.4766 43.0136 32.7673 42.9998C34.5774 42.9895 35.037 42.5411 36.1175 41.5478C36.6226 41.0857 38.1486 39.5681 38.4748 39.1163C39.1589 38.1644 38.8362 37.1745 38.0539 36.4054C37.7241 36.0812 37.44 35.757 37.1067 35.4294C36.2052 34.5464 35.1142 33.4635 34.174 32.6219C33.3426 31.8769 32.2481 31.8976 31.3957 32.6219C31.0343 32.9289 30.7186 33.222 30.3854 33.5359L29.4101 34.4878C28.9751 34.8844 28.6629 35.3121 28.277 35.1534C27.0703 34.6533 25.1619 33.3738 24.2077 32.4909L23.6956 32.0218C22.4011 30.8664 21.1768 29.5661 20.0718 27.9865C19.7491 27.5209 19.2825 26.6966 19.0475 26.1517C18.8896 25.7792 18.9352 25.7378 19.1422 25.4826C19.2825 25.3101 19.4509 25.1446 19.5947 24.9928C20.2367 24.2996 21.454 23.2821 21.903 22.5096C22.1205 22.1405 22.1836 21.3542 22.0047 20.9058C21.682 20.0987 19.0299 17.7741 18.2652 16.9498C17.9424 16.6015 17.6092 16.3118 17.2478 16.0393C16.876 15.7668 16.2375 15.5978 15.6728 15.7116V15.7116ZM26.7791 12.0178C26.1161 12.0695 25.7548 12.4248 25.5653 12.9456C25.3163 13.6285 25.4952 14.17 25.8425 14.6011C26.1757 15.015 26.7475 15.0701 27.4316 15.1357C29.8276 15.3633 31.9569 15.9117 33.932 17.205C34.2582 17.4189 34.8896 17.881 35.1668 18.1328C40.3657 22.9165 39.0747 27.207 39.8395 28.3383C40.3972 29.1661 42.2495 29.1661 42.6178 27.9589C42.9967 26.7207 42.2495 23.6477 41.8531 22.5406C41.3093 21.0196 40.5516 19.6642 39.6395 18.4087C39.3133 17.9604 39.0116 17.6086 38.6853 17.205C38.3871 16.8395 37.9732 16.4428 37.6224 16.1462C37.4224 15.9772 37.2505 15.822 37.0506 15.6565C35.2159 14.1424 33.0514 13.0146 30.6274 12.4282C29.5785 12.173 27.9052 11.9316 26.7791 12.0178V12.0178ZM26.5125 17.8707C25.6846 18.0673 25.197 18.6605 25.2251 19.44C25.2917 21.361 27.2527 20.7402 29.0558 21.3335C29.796 21.5749 30.4239 21.9405 30.9361 22.3302C31.9359 23.0786 32.7848 24.1168 33.283 25.6723C33.6233 26.738 33.518 27.4657 33.711 28.0969C33.9109 28.7487 34.588 29.3178 35.5211 29.1247C36.2929 28.966 36.7559 28.4245 36.7629 27.545C36.7699 26.7483 36.6191 25.7516 36.4262 25.0376C35.8859 23.0234 34.5388 21.1472 33.0058 19.9435C32.4516 19.5124 31.9324 19.1882 31.2308 18.8468C30.5748 18.5226 29.8732 18.2811 29.0944 18.1052C28.5086 17.9707 27.0843 17.7362 26.5125 17.8707V17.8707Z" fill="black"/>
</svg>
