<svg width="8" height="11" viewBox="0 0 8 11" fill="none" xmlns="http://www.w3.org/2000/svg">
<g clip-path="url(#clip0_39_22)">
<path d="M0 2.334C0 4.37783 1.15751 6.42165 2.31501 7.88153C2.89376 8.46548 2.89376 8.46548 3.47252 9.04943C4.05127 9.63338 4.34065 9.92535 5.20878 9.92535C5.49815 9.92535 5.78753 9.63338 6.0769 9.63338C6.0769 9.3414 5.49815 8.75745 5.49815 8.46548C5.49815 8.1735 5.20878 8.1735 5.20878 7.88153C5.20878 7.58955 4.9194 7.58955 4.9194 7.29758C3.47252 8.1735 1.44688 4.37783 2.89376 3.5019L1.44688 1.1661C1.15751 1.45808 0.868129 1.45808 0.578753 1.75005C0.289376 2.04203 0.289376 2.334 0.289376 2.62598L0 2.334ZM1.15751 0.582153C1.15751 0.874128 1.15751 0.874128 1.44688 1.1661L2.60439 2.91795C2.89376 3.20993 3.18314 2.91795 3.47252 2.91795C4.05127 2.62598 4.05127 2.62598 3.18314 1.1661C2.31501 -0.293772 2.60439 -0.293771 1.73626 0.290179L1.44688 0.582153H1.15751ZM4.63002 6.71363C4.63002 7.0056 5.78753 8.75745 5.78753 9.04943C5.78753 9.3414 6.0769 9.3414 6.36628 9.3414C6.36628 9.3414 6.36628 9.3414 6.65566 9.3414C7.52379 8.75745 7.52379 9.04943 6.65566 7.58955C6.36628 7.29758 6.07691 6.42165 5.78753 6.42165C5.49815 6.42165 4.63002 6.71363 4.63002 7.0056V6.71363Z" fill="black"/>
</g>
<defs>
<clipPath id="clip0_39_22">
<rect width="8" height="10.6667" fill="white"/>
</clipPath>
</defs>
</svg>
