<svg width="44" height="43" viewBox="0 0 44 43" fill="none" xmlns="http://www.w3.org/2000/svg">
<path fill-rule="evenodd" clip-rule="evenodd" d="M6.48114 5.14809C5.32312 5.38727 4.34026 6.56407 3.45958 7.43471C2.54484 8.33884 1.65443 9.11859 0.85646 10.1662C-0.754068 12.2711 0.238523 16.5095 1.13867 18.7817C2.82704 23.0249 5.26473 26.9524 8.23277 30.2866C8.43226 30.5163 8.65122 30.7937 8.84098 30.9851C10.0963 32.2432 10.6851 32.9894 12.1885 34.2811C13.2395 35.1852 13.984 35.8358 15.142 36.6729C17.1223 38.108 19.341 39.5192 21.8371 40.6817C24.2748 41.8202 27.0142 43.0162 30.1914 42.997C32.7021 42.9827 33.3395 42.3608 34.8381 40.9831C35.5388 40.342 37.6553 38.2372 38.1078 37.6105C39.0566 36.2902 38.609 34.9173 37.5239 33.8505C37.0666 33.4008 36.6725 32.9512 36.2102 32.4967C34.9597 31.2721 33.4465 29.77 32.1425 28.6028C30.9894 27.5695 29.4713 27.5982 28.289 28.6028C27.7878 29.0285 27.3499 29.4351 26.8876 29.8704L25.535 31.1908C24.9317 31.7409 24.4986 32.3341 23.9634 32.114C22.2896 31.4204 19.6427 29.6456 18.3193 28.421L17.6089 27.7704C15.8134 26.1678 14.1153 24.3644 12.5827 22.1734C12.135 21.5276 11.4879 20.3843 11.1619 19.6285C10.9429 19.1118 11.0062 19.0544 11.2933 18.7004C11.4879 18.4612 11.7214 18.2316 11.9209 18.0211C12.8113 17.0596 14.4997 15.6484 15.1225 14.5768C15.4242 14.065 15.5118 12.9743 15.2636 12.3524C14.816 11.233 11.1376 8.00876 10.0769 6.86545C9.62921 6.38229 9.16698 5.98046 8.66582 5.60254C8.15006 5.22463 7.26451 4.99022 6.48114 5.14809ZM21.8858 0.0247033C20.9662 0.0964594 20.465 0.589184 20.2023 1.31153C19.8568 2.25871 20.1049 3.00976 20.5866 3.60772C21.0489 4.18177 21.842 4.25831 22.7908 4.3492C26.114 4.66493 29.0675 5.42554 31.8068 7.21945C32.2593 7.51604 33.1351 8.15706 33.5195 8.50627C40.7304 15.1413 38.9398 21.0923 40.0006 22.6614C40.7742 23.8094 43.3432 23.8094 43.8541 22.1351C44.3796 20.4178 43.3432 16.1555 42.7934 14.6199C42.0393 12.5103 40.9883 10.6302 39.7232 8.88897C39.2707 8.26708 38.8523 7.77914 38.3998 7.21945C37.9862 6.71237 37.412 6.16224 36.9255 5.75084C36.6481 5.51643 36.4097 5.30117 36.1324 5.07155C33.5876 2.97149 30.5855 1.4072 27.2234 0.593968C25.7685 0.239971 23.4476 -0.0948902 21.8858 0.0247033ZM21.516 8.14271C20.3677 8.41538 19.6914 9.23818 19.7303 10.3193C19.8227 12.9838 22.5426 12.1228 25.0436 12.9456C26.0702 13.2804 26.9412 13.7875 27.6516 14.3281C29.0383 15.3662 30.2157 16.8061 30.9067 18.9635C31.3786 20.4417 31.2327 21.4511 31.5003 22.3265C31.7776 23.2306 32.7167 24.0199 34.0109 23.752C35.0814 23.532 35.7237 22.7809 35.7334 21.5611C35.7431 20.456 35.5339 19.0735 35.2663 18.0833C34.517 15.2896 32.6486 12.6873 30.5223 11.0177C29.7535 10.4198 29.0334 9.97009 28.0603 9.4965C27.1504 9.04683 26.1773 8.71197 25.0971 8.468C24.2845 8.28144 22.3091 7.95614 21.516 8.14271Z" fill="black"/>
</svg>
