<svg width="60" height="60" viewBox="0 0 60 60" fill="none" xmlns="http://www.w3.org/2000/svg">
<rect width="60" height="60" rx="15" fill="white"/>
<path fill-rule="evenodd" clip-rule="evenodd" d="M12.4452 31.8466C14.6247 33.287 12.6528 36.3736 10.4733 34.9332L6.94463 32.6697C4.76515 31.2292 6.73706 28.1426 9.02033 29.583L12.549 31.8466H12.4452ZM18.7761 25.9819C20.5405 27.9368 17.7383 30.4061 15.9739 28.4513L12.7566 24.8502C10.9922 22.8953 13.7944 20.426 15.5588 22.3809L18.7761 25.9819ZM26.2486 23.5126C26.9751 25.9819 23.3427 27.0108 22.6162 24.5415L21.0594 19.1913C20.3329 16.722 23.9654 15.6931 24.6919 18.1624L26.2486 23.5126ZM34.5514 23.5126C34.1363 26.0848 30.4 25.4675 30.8152 22.9982L31.6454 17.648C32.0606 15.0758 35.7968 15.6931 35.3817 18.2653L34.5514 23.6155V23.5126ZM42.0239 26.0848C40.7785 28.3484 37.4574 26.5993 38.7028 24.3357L41.1937 19.8087C42.4391 17.5451 45.7602 19.2942 44.5148 21.5578L42.0239 26.0848ZM39.4293 27.9368C41.8164 28.9657 40.3634 32.361 37.9763 31.3321C33.8249 29.583 29.5697 29.2744 25.8335 30.3032C22.201 31.3321 18.9837 33.5957 16.3891 37.4025C14.9361 39.5632 11.8225 37.4025 13.2755 35.3448C16.3891 30.8177 20.3329 28.0397 24.7956 26.805C29.466 25.4675 34.4476 25.9819 39.4293 28.0397V27.9368ZM36.4196 42.7527V37.2996C36.4196 36.3736 37.146 35.6534 38.0801 35.6534C39.0142 35.6534 39.7407 36.3736 39.7407 37.2996V38.4314C39.9482 38.4314 40.052 38.3285 40.1558 38.0198L40.5709 37.2996C40.9861 36.5794 41.505 35.3448 42.8542 35.6534C43.7883 35.8592 44.3072 36.7852 43.8921 37.7112C43.7883 38.0198 43.5807 38.3285 43.2694 38.6372C43.0618 38.9458 42.7504 39.1516 42.4391 39.3574C42.8542 39.4603 43.1656 39.6661 43.3731 39.8718C43.5807 40.0776 43.7883 40.3863 43.9959 40.7978C44.0996 41.2094 44.2034 41.7238 44.2034 42.444V42.7527C44.2034 43.6787 43.4769 44.3989 42.5429 44.3989C41.6088 44.3989 40.8823 43.6787 40.8823 42.7527V41.6209C40.8823 41.4152 40.7785 41.2094 40.5709 41.1065C40.3634 41.0036 40.052 41.0036 39.6369 41.0036V42.8556C39.6369 43.7816 38.9104 44.5018 37.9763 44.5018C37.0423 44.5018 36.3158 43.7816 36.3158 42.8556L36.4196 42.7527ZM49.3927 38.8429C48.77 38.8429 48.251 39.3574 48.251 39.9747C48.251 40.592 48.77 41.1065 49.3927 41.1065C50.0154 41.1065 50.5343 40.592 50.5343 39.9747C50.5343 39.3574 50.0154 38.8429 49.3927 38.8429ZM49.3927 35.5505C51.7797 35.5505 53.7516 37.5054 53.7516 39.8718C53.7516 42.2383 51.7797 44.1931 49.3927 44.1931C47.0056 44.1931 45.0337 42.2383 45.0337 39.8718C45.0337 37.5054 47.0056 35.5505 49.3927 35.5505ZM28.947 36.065C27.7016 36.065 26.6638 37.0939 26.6638 38.3285C26.6638 39.5632 27.7016 40.592 28.947 40.592C30.1925 40.592 31.2303 39.5632 31.2303 38.3285C31.2303 37.0939 30.1925 36.065 28.947 36.065ZM28.947 32.2581C32.2682 32.2581 35.0703 35.0361 35.0703 38.3285C35.0703 41.6209 32.2682 44.3989 28.947 44.3989C25.5221 44.3989 22.8237 41.6209 22.8237 38.3285C22.8237 34.9332 25.6259 32.2581 28.947 32.2581Z" fill="#ED1B24"/>
</svg>
