<svg width="140" height="140" viewBox="0 0 140 140" fill="none" xmlns="http://www.w3.org/2000/svg">
<path d="M129.165 21.8727L69.3472 95.1368L40.4694 69.0774L44.2128 64.9196L68.7401 87.0477L124.834 18.3461L129.165 21.8727ZM70.0024 0C88.3148 0 104.984 7.03397 117.462 18.5437L113.912 22.8941C102.407 12.1697 86.9706 5.60308 70.0024 5.60308C52.22 5.60308 36.1189 12.8105 24.4647 24.4647C12.8105 36.1189 5.60308 52.22 5.60308 70.0024C5.60308 87.7849 12.8105 103.886 24.4647 115.535C36.1189 127.19 52.22 134.397 70.0024 134.397C87.7849 134.397 103.886 127.19 115.535 115.535C127.19 103.886 134.397 87.7849 134.397 70.0024C134.397 57.5629 130.87 45.9472 124.761 36.0997L128.49 31.5324C135.77 42.5699 140 55.7899 140 70.0024C140 89.3314 132.166 106.83 119.5 119.5C106.83 132.166 89.3314 140 70.0024 140C50.6735 140 33.1704 132.166 20.5045 119.5C7.83372 106.83 0 89.3314 0 70.0024C0 50.6735 7.83372 33.1704 20.5045 20.5045C33.1704 7.83372 50.6735 0 70.0024 0V0Z" fill="#65C8A2"/>
</svg>
