<svg width="10" height="16" viewBox="0 0 10 16" fill="none" xmlns="http://www.w3.org/2000/svg">
<path d="M0 3.67682C0 6.79672 1.58416 9.91663 3.16832 12.1451C3.9604 13.0365 3.9604 13.0365 4.75248 13.9279C5.54455 14.8193 5.94059 15.265 7.12871 15.265C7.52475 15.265 7.92079 14.8193 8.31683 14.8193C8.31683 14.3736 7.52475 13.4822 7.52475 13.0365C7.52475 12.5908 7.12871 12.5908 7.12871 12.1451C7.12871 11.6994 6.73267 11.6994 6.73267 11.2537C4.75247 12.5908 1.9802 6.79672 3.9604 5.45962L1.9802 1.89401C1.58416 2.33971 1.18812 2.33971 0.792079 2.78541C0.39604 3.23111 0.39604 3.67682 0.39604 4.12252L0 3.67682ZM1.58416 1.00261C1.58416 1.44831 1.58416 1.44831 1.9802 1.89401L3.56436 4.56822C3.9604 5.01392 4.35644 4.56822 4.75248 4.56822C5.54455 4.12252 5.54455 4.12252 4.35644 1.89401C3.16832 -0.334496 3.56436 -0.334496 2.37624 0.556906L1.9802 1.00261H1.58416ZM6.33663 10.3623C6.33663 10.808 7.92079 13.4822 7.92079 13.9279C7.92079 14.3736 8.31683 14.3736 8.71287 14.3736C8.71287 14.3736 8.71287 14.3736 9.10891 14.3736C10.297 13.4822 10.297 13.9279 9.10891 11.6994C8.71287 11.2537 8.31683 9.91663 7.92079 9.91663C7.52475 9.91663 6.33663 10.3623 6.33663 10.808V10.3623Z" fill="white"/>
</svg>
