<svg width="64" height="38" viewBox="0 0 64 38" fill="none" xmlns="http://www.w3.org/2000/svg">
<g clip-path="url(#clip0_718_1627)">
<path fill-rule="evenodd" clip-rule="evenodd" d="M8.75222 21.1263C11.6582 23.0469 9.02898 27.1624 6.123 25.2419L1.41808 22.2238C-1.4879 20.3032 1.14132 16.1877 4.18568 18.1083L8.8906 21.1263H8.75222ZM17.1934 13.3068C19.5458 15.9133 15.8096 19.2058 13.4571 16.5993L9.16736 11.7978C6.8149 9.19132 10.5512 5.8989 12.9036 8.5054L17.1934 13.3068ZM27.1567 10.0144C28.1254 13.3068 23.2821 14.6787 22.3134 11.3863L20.2377 4.25269C19.2691 0.960274 24.1124 -0.411568 25.081 2.88085L27.1567 10.0144ZM38.2271 10.0144C37.6736 13.444 32.6919 12.6209 33.2455 9.3285L34.3525 2.19493C34.906 -1.23467 39.8877 -0.411568 39.3342 3.01803L38.2271 10.1516V10.0144ZM48.1905 13.444C46.5299 16.4621 42.1018 14.1299 43.7623 11.1119L47.0835 5.0758C48.744 2.05775 53.1722 4.38988 51.5116 7.40793L48.1905 13.444ZM44.731 15.9133C47.9137 17.2852 45.9764 21.8123 42.7937 20.4404C37.2585 18.1083 31.5849 17.6967 26.6032 19.0686C21.7599 20.4404 17.4701 23.4585 14.0107 28.5343C12.0733 31.4151 7.92194 28.5343 9.85925 25.7906C14.0107 19.7545 19.2691 16.0505 25.2194 14.4043C31.4465 12.6209 38.0888 13.3068 44.731 16.0505V15.9133ZM40.718 35.6679V28.3971C40.718 27.1624 41.6866 26.2021 42.9321 26.2021C44.1775 26.2021 45.1461 27.1624 45.1461 28.3971V29.9061C45.4229 29.9061 45.5613 29.7689 45.6997 29.3574L46.2532 28.3971C46.8067 27.4368 47.4986 25.7906 49.2975 26.2021C50.5429 26.4765 51.2349 27.7112 50.6813 28.9458C50.5429 29.3574 50.2662 29.7689 49.8511 30.1805C49.5743 30.592 49.1591 30.8664 48.744 31.1408C49.2975 31.278 49.7127 31.5523 49.9894 31.8267C50.2662 32.1011 50.5429 32.5126 50.8197 33.0614C50.9581 33.6101 51.0965 34.296 51.0965 35.2563V35.6679C51.0965 36.9025 50.1278 37.8628 48.8824 37.8628C47.637 37.8628 46.6683 36.9025 46.6683 35.6679V34.1588C46.6683 33.8845 46.5299 33.6101 46.2532 33.4729C45.9764 33.3357 45.5613 33.3357 45.0078 33.3357V35.805C45.0078 37.0397 44.0391 38 42.7937 38C41.5483 38 40.5796 37.0397 40.5796 35.805L40.718 35.6679ZM58.0155 30.4549C57.1852 30.4549 56.4933 31.1408 56.4933 31.9639C56.4933 32.787 57.1852 33.4729 58.0155 33.4729C58.8457 33.4729 59.5376 32.787 59.5376 31.9639C59.5376 31.1408 58.8457 30.4549 58.0155 30.4549ZM58.0155 26.065C61.1982 26.065 63.8274 28.6715 63.8274 31.8267C63.8274 34.9819 61.1982 37.5884 58.0155 37.5884C54.8327 37.5884 52.2035 34.9819 52.2035 31.8267C52.2035 28.6715 54.8327 26.065 58.0155 26.065ZM30.7546 26.7509C29.0941 26.7509 27.7103 28.1227 27.7103 29.7689C27.7103 31.4151 29.0941 32.787 30.7546 32.787C32.4152 32.787 33.799 31.4151 33.799 29.7689C33.799 28.1227 32.4152 26.7509 30.7546 26.7509ZM30.7546 21.6751C35.1828 21.6751 38.919 25.379 38.919 29.7689C38.919 34.1588 35.1828 37.8628 30.7546 37.8628C26.1881 37.8628 22.5902 34.1588 22.5902 29.7689C22.5902 25.2419 26.3265 21.6751 30.7546 21.6751Z" fill="white"/>
</g>
<defs>
<clipPath id="clip0_718_1627">
<rect width="64" height="38" fill="white"/>
</clipPath>
</defs>
</svg>
