<svg width="64" height="38" viewBox="0 0 64 38" fill="none" xmlns="http://www.w3.org/2000/svg">
<g clip-path="url(#clip0_744_1233)">
<path fill-rule="evenodd" clip-rule="evenodd" d="M8.75234 21.1263C11.6583 23.0469 9.0291 27.1624 6.12312 25.2419L1.4182 22.2238C-1.48778 20.3032 1.14144 16.1877 4.1858 18.1083L8.89072 21.1263H8.75234ZM17.1935 13.3068C19.546 15.9133 15.8097 19.2058 13.4573 16.5993L9.16748 11.7978C6.81502 9.19132 10.5513 5.8989 12.9037 8.5054L17.1935 13.3068V13.3068ZM27.1569 10.0144C28.1255 13.3068 23.2822 14.6787 22.3136 11.3863L20.2379 4.25269C19.2692 0.960274 24.1125 -0.411568 25.0812 2.88085L27.1569 10.0144ZM38.2273 10.0144C37.6737 13.444 32.6921 12.6209 33.2456 9.3285L34.3526 2.19493C34.9061 -1.23467 39.8878 -0.411568 39.3343 3.01804L38.2273 10.1516V10.0144ZM48.1906 13.444C46.5301 16.4621 42.1019 14.1299 43.7625 11.1119L47.0836 5.0758C48.7441 2.05775 53.1723 4.38988 51.5117 7.40793L48.1906 13.444V13.444ZM44.7311 15.9133C47.9139 17.2852 45.9765 21.8123 42.7938 20.4404C37.2586 18.1083 31.585 17.6967 26.6033 19.0686C21.76 20.4404 17.4703 23.4585 14.0108 28.5343C12.0735 31.4151 7.92206 28.5343 9.85938 25.7906C14.0108 19.7545 19.2692 16.0505 25.2195 14.4043C31.4466 12.6209 38.0889 13.3068 44.7311 16.0505V15.9133ZM40.7181 35.6678V28.3971C40.7181 27.1624 41.6868 26.2021 42.9322 26.2021C44.1776 26.2021 45.1463 27.1624 45.1463 28.3971V29.9061C45.423 29.9061 45.5614 29.7689 45.6998 29.3574L46.2533 28.3971C46.8068 27.4368 47.4987 25.7906 49.2977 26.2021C50.5431 26.4765 51.235 27.7112 50.6815 28.9458C50.5431 29.3574 50.2663 29.7689 49.8512 30.1805C49.5744 30.592 49.1593 30.8664 48.7441 31.1408C49.2977 31.278 49.7128 31.5523 49.9896 31.8267C50.2663 32.1011 50.5431 32.5126 50.8198 33.0614C50.9582 33.6101 51.0966 34.296 51.0966 35.2563V35.6678C51.0966 36.9025 50.1279 37.8628 48.8825 37.8628C47.6371 37.8628 46.6684 36.9025 46.6684 35.6678V34.1588C46.6684 33.8845 46.5301 33.6101 46.2533 33.4729C45.9765 33.3357 45.5614 33.3357 45.0079 33.3357V35.805C45.0079 37.0397 44.0392 38 42.7938 38C41.5484 38 40.5797 37.0397 40.5797 35.805L40.7181 35.6678ZM58.0156 30.4549C57.1853 30.4549 56.4934 31.1408 56.4934 31.9639C56.4934 32.787 57.1853 33.4729 58.0156 33.4729C58.8459 33.4729 59.5378 32.787 59.5378 31.9639C59.5378 31.1408 58.8459 30.4549 58.0156 30.4549ZM58.0156 26.065C61.1983 26.065 63.8275 28.6715 63.8275 31.8267C63.8275 34.9819 61.1983 37.5884 58.0156 37.5884C54.8329 37.5884 52.2036 34.9819 52.2036 31.8267C52.2036 28.6715 54.8329 26.065 58.0156 26.065V26.065ZM30.7547 26.7509C29.0942 26.7509 27.7104 28.1227 27.7104 29.7689C27.7104 31.4151 29.0942 32.787 30.7547 32.787C32.4153 32.787 33.7991 31.4151 33.7991 29.7689C33.7991 28.1227 32.4153 26.7509 30.7547 26.7509V26.7509ZM30.7547 21.6751C35.1829 21.6751 38.9192 25.379 38.9192 29.7689C38.9192 34.1588 35.1829 37.8628 30.7547 37.8628C26.1882 37.8628 22.5903 34.1588 22.5903 29.7689C22.5903 25.2419 26.3266 21.6751 30.7547 21.6751Z" fill="#F7121C"/>
</g>
<defs>
<clipPath id="clip0_744_1233">
<rect width="64" height="38" fill="white"/>
</clipPath>
</defs>
</svg>
