<svg width="8" height="12" viewBox="0 0 8 12" fill="none" xmlns="http://www.w3.org/2000/svg">
<g clip-path="url(#clip0_58_374)">
<path d="M0 3.00069C0 5.04452 1.15751 7.08834 2.31501 8.54822C2.89376 9.13217 2.89376 9.13217 3.47252 9.71612C4.05127 10.3001 4.34065 10.592 5.20878 10.592C5.49815 10.592 5.78753 10.3001 6.0769 10.3001C6.0769 10.0081 5.49815 9.42414 5.49815 9.13216C5.49815 8.84019 5.20878 8.84019 5.20878 8.54822C5.20878 8.25624 4.9194 8.25624 4.9194 7.96427C3.47252 8.84019 1.44688 5.04452 2.89376 4.16859L1.44688 1.83279C1.15751 2.12477 0.868129 2.12477 0.578753 2.41674C0.289376 2.70872 0.289376 3.00069 0.289376 3.29267L0 3.00069ZM1.15751 1.24884C1.15751 1.54082 1.15751 1.54082 1.44688 1.83279L2.60439 3.58464C2.89376 3.87662 3.18314 3.58464 3.47252 3.58464C4.05127 3.29267 4.05127 3.29267 3.18314 1.83279C2.31501 0.372915 2.60439 0.372916 1.73626 0.956866L1.44688 1.24884H1.15751ZM4.63002 7.38032C4.63002 7.67229 5.78753 9.42414 5.78753 9.71612C5.78753 10.0081 6.0769 10.0081 6.36628 10.0081C6.36628 10.0081 6.36628 10.0081 6.65566 10.0081C7.52379 9.42414 7.52379 9.71612 6.65566 8.25624C6.36628 7.96427 6.0769 7.08834 5.78753 7.08834C5.49815 7.08834 4.63002 7.38032 4.63002 7.67229V7.38032Z" fill="black"/>
</g>
<defs>
<clipPath id="clip0_58_374">
<rect width="8" height="10.6667" fill="white" transform="translate(0 0.666748)"/>
</clipPath>
</defs>
</svg>
