<svg width="64" height="38" viewBox="0 0 64 38" fill="none" xmlns="http://www.w3.org/2000/svg">
<path fill-rule="evenodd" clip-rule="evenodd" d="M8.59365 20.9967C11.4996 22.9052 8.87041 26.995 5.96443 25.0864L1.25951 22.0873C-1.64647 20.1787 0.982751 16.0889 4.02711 17.9975L8.73203 20.9967H8.59365ZM17.0348 13.226C19.3873 15.8162 15.651 19.0881 13.2986 16.4979L9.00879 11.7265C6.65633 9.13625 10.3926 5.86442 12.745 8.45462L17.0348 13.226ZM26.9982 9.95421C27.9668 13.226 23.1235 14.5893 22.1549 11.3175L20.0792 4.2285C19.1105 0.956666 23.9538 -0.406599 24.9225 2.86524L26.9982 9.95421ZM38.0686 9.95421C37.515 13.3624 32.5334 12.5444 33.0869 9.27258L34.1939 2.1836C34.7475 -1.22456 39.7291 -0.406599 39.1756 3.00156L38.0686 10.0905V9.95421ZM48.0319 13.3624C46.3714 16.3616 41.9432 14.044 43.6038 11.0448L46.9249 5.04646C48.5854 2.04728 53.0136 4.36483 51.353 7.36401L48.0319 13.3624ZM44.5724 15.8162C47.7552 17.1795 45.8178 21.6783 42.6351 20.315C37.0999 17.9975 31.4263 17.5885 26.4447 18.9518C21.6014 20.315 17.3116 23.3142 13.8521 28.3583C11.9148 31.2211 7.76337 28.3583 9.70069 25.6318C13.8521 19.6334 19.1105 15.9526 25.0609 14.3167C31.288 12.5444 37.9302 13.226 44.5724 15.9526V15.8162ZM40.5594 35.4473V28.222C40.5594 26.995 41.5281 26.0407 42.7735 26.0407C44.0189 26.0407 44.9876 26.995 44.9876 28.222V29.7215C45.2643 29.7215 45.4027 29.5852 45.5411 29.1762L46.0946 28.222C46.6481 27.2677 47.34 25.6318 49.139 26.0407C50.3844 26.3134 51.0763 27.5403 50.5228 28.7673C50.3844 29.1762 50.1076 29.5852 49.6925 29.9942C49.4157 30.4032 49.0006 30.6758 48.5854 30.9485C49.139 31.0848 49.5541 31.3575 49.8309 31.6301C50.1076 31.9028 50.3844 32.3117 50.6611 32.8571C50.7995 33.4024 50.9379 34.084 50.9379 35.0383V35.4473C50.9379 36.6742 49.9692 37.6285 48.7238 37.6285C47.4784 37.6285 46.5097 36.6742 46.5097 35.4473V33.9477C46.5097 33.675 46.3714 33.4024 46.0946 33.266C45.8178 33.1297 45.4027 33.1297 44.8492 33.1297V35.5836C44.8492 36.8105 43.8805 37.7648 42.6351 37.7648C41.3897 37.7648 40.421 36.8105 40.421 35.5836L40.5594 35.4473ZM57.8569 30.2668C57.0266 30.2668 56.3347 30.9485 56.3347 31.7664C56.3347 32.5844 57.0266 33.266 57.8569 33.266C58.6872 33.266 59.3791 32.5844 59.3791 31.7664C59.3791 30.9485 58.6872 30.2668 57.8569 30.2668ZM57.8569 25.9044C61.0396 25.9044 63.6689 28.4946 63.6689 31.6301C63.6689 34.7656 61.0396 37.3558 57.8569 37.3558C54.6742 37.3558 52.0449 34.7656 52.0449 31.6301C52.0449 28.4946 54.6742 25.9044 57.8569 25.9044ZM30.5961 26.586C28.9355 26.586 27.5517 27.9493 27.5517 29.5852C27.5517 31.2211 28.9355 32.5844 30.5961 32.5844C32.2566 32.5844 33.6404 31.2211 33.6404 29.5852C33.6404 27.9493 32.2566 26.586 30.5961 26.586ZM30.5961 21.542C35.0242 21.542 38.7605 25.2228 38.7605 29.5852C38.7605 33.9477 35.0242 37.6285 30.5961 37.6285C26.0295 37.6285 22.4316 33.9477 22.4316 29.5852C22.4316 25.0864 26.1679 21.542 30.5961 21.542Z" fill="#FF003C"/>
</svg>
