<svg width="52" height="52" viewBox="0 0 52 52" fill="none" xmlns="http://www.w3.org/2000/svg">
<path fill-rule="evenodd" clip-rule="evenodd" d="M21.1924 1.91648L21.2274 1.91194C21.264 2.1253 21.2426 2.37345 21.2046 2.58983C21.1711 2.77898 21.0858 2.88036 21.063 3.11792C21.0447 3.3116 21.0736 3.58397 21.0158 3.75798C20.9625 3.92443 20.9457 3.82304 20.9031 3.97739C20.8315 4.23462 20.9503 4.51001 20.763 4.83685C20.6458 5.04112 20.7097 5.5798 20.6397 5.7296C20.5803 5.8552 20.5559 5.7523 20.5209 5.9475C20.4707 6.22894 20.5925 6.28947 20.3854 6.47256C20.0504 6.77216 20.0565 6.50736 19.6317 6.73282C19.5129 6.79637 19.5114 6.78124 19.3698 6.8115C18.9845 6.89321 19.4703 6.89019 18.9023 7.00064C18.5719 7.0642 18.8597 7.12775 18.4288 7.18979L17.9232 7.37893C17.774 7.44097 17.8365 7.4561 17.7238 7.51057C17.669 7.53781 17.6339 7.5363 17.5822 7.55445L17.4771 7.6059C17.1604 7.80412 17.2304 7.70274 17.0964 7.78143C17.0888 7.78597 17.0797 7.79202 17.0721 7.79807C16.7264 8.0311 16.7767 7.78294 16.6716 8.078C16.2072 8.10221 16.2194 8.25958 15.8996 7.9857L15.5799 7.7784C15.4535 7.69669 15.4839 7.74814 15.3865 7.69972C15.2525 7.63465 15.3743 7.69366 15.2799 7.57261L11.8828 5.26961C11.8768 5.26507 11.8691 5.25599 11.863 5.25145L11.8204 5.21816C11.656 5.10922 11.6544 5.2 11.6377 4.98816C11.2631 4.86257 11.4321 4.54633 10.9342 5.05928L10.8033 5.19093C10.6876 5.3029 10.7469 5.23481 10.6266 5.315C10.5109 5.39369 10.4561 5.50112 10.3541 5.60099C10.2871 5.66605 10.281 5.66303 10.2231 5.73112C9.99017 6.00348 9.61255 6.29249 9.30954 6.6496L9.27147 6.68894C9.26386 6.6965 9.23798 6.71466 9.23036 6.72223C9.12987 6.80999 9.16337 6.80394 9.08876 6.87808C8.98065 6.98703 8.96999 6.90986 8.79336 7.14137C8.68677 7.28058 8.76291 7.19281 8.63957 7.28966C8.63805 7.29117 8.58323 7.33656 8.57866 7.33959L8.50558 7.41373C8.43249 7.49242 8.43401 7.50301 8.38224 7.59077C8.30763 7.71334 8.20713 7.77235 8.07923 7.92366L7.8082 8.17636C7.70618 8.28076 7.627 8.35793 7.53107 8.45931L7.3849 8.61214C7.37881 8.61819 7.37119 8.62576 7.36662 8.6303C7.36053 8.63635 7.35292 8.64392 7.34835 8.64997C7.15041 8.84668 6.98748 8.90267 6.79867 9.14628L6.5383 9.41108C6.25813 9.63351 6.54134 9.40352 6.3373 9.65621L5.6247 10.3644C5.5714 10.4203 5.60643 10.378 5.55161 10.4446L4.98213 10.9938C4.70349 11.2647 4.88773 11.36 5.00954 11.5824L5.14354 11.7489C5.2151 11.8382 5.26839 11.9986 5.34148 12.1151C5.44502 12.283 5.35214 12.1272 5.46177 12.2528L6.47891 13.7372C6.52002 13.8128 6.63118 14.011 6.68904 14.0912C6.75908 14.1881 6.75147 14.1654 6.81085 14.2713C6.91592 14.4574 6.80172 14.2622 6.93266 14.4135C7.00728 14.4529 6.97834 14.4438 7.01337 14.4756C7.02098 14.4831 7.06666 14.527 7.07275 14.5346C7.14431 14.6133 7.34987 15.0143 7.56609 15.2624C7.7549 15.4803 8.12795 15.9176 8.12186 16.2021C8.11882 16.364 8.01223 16.5244 7.90108 16.7589C7.85692 16.8527 7.84322 16.8391 7.79906 16.9163C7.7549 16.9934 7.76556 16.9995 7.73511 17.0751C7.68029 17.2113 7.68943 17.1584 7.6407 17.2461C7.56609 17.3778 7.58284 17.4671 7.50519 17.5972L7.20522 18.2705C7.14279 18.5217 7.11691 18.4294 7.05143 18.5943C6.97987 18.7729 7.03164 18.7789 6.92505 18.956C6.82912 19.1164 6.86871 19.1799 6.81542 19.3358C6.75756 19.5037 6.70883 19.4523 6.66772 19.705C6.64031 19.8714 6.47282 20.3027 6.34492 20.3511C6.28553 20.3738 5.981 20.3874 5.9003 20.3995C5.69017 20.4313 5.66581 20.4585 5.51202 20.5009C5.3156 20.5554 4.89991 20.5856 4.65019 20.6341L3.81273 20.796C3.24782 20.9533 3.30568 20.852 2.98897 20.9412C2.35706 21.1183 2.84127 21.0214 2.16978 21.1047C1.88504 21.141 1.72973 21.2499 1.37495 21.2741C1.10543 21.2923 0.829832 21.374 0.583161 21.4905L0.581638 30.3999C0.744563 30.4755 1.03235 30.5754 1.25618 30.6011C1.71298 30.6541 1.55157 30.6087 1.96574 30.7403C2.16978 30.8054 2.49258 30.7873 2.71793 30.8493C2.9844 30.9219 3.11078 30.9613 3.4412 30.9885L4.85575 31.2896C5.07197 31.335 5.41762 31.2942 5.63079 31.3865C5.94902 31.5257 5.97643 31.506 6.38451 31.5332L6.63727 32.0174C6.6662 32.1279 6.65554 32.2353 6.68904 32.3488C6.72406 32.4699 6.77583 32.5062 6.81694 32.6257C6.85349 32.7316 6.84892 32.8164 6.89764 32.9193L7.22502 33.75C7.27831 33.921 7.30267 33.8514 7.36053 33.986L7.57675 34.5247C7.67116 34.7199 7.67116 34.5731 7.73815 34.7593C7.90108 35.2162 7.76099 34.6881 7.95742 35.2117C8.04269 35.4371 8.06096 35.2646 8.13252 35.5173L8.19648 35.6898C8.28631 35.8714 8.22845 35.8169 8.18886 35.8654C8.06096 36.0258 8.28174 35.7246 8.15536 35.9062L7.62548 36.6507C7.58741 36.7082 7.6407 36.6174 7.59655 36.7021C7.5463 36.7975 7.59959 36.7384 7.53716 36.8217C7.53259 36.8277 7.52498 36.8338 7.52041 36.8398C7.39555 36.9911 7.47626 36.8519 7.39555 37.0698L7.12909 37.3785C7.12452 37.383 7.11386 37.3891 7.10929 37.3951L7.0697 37.4315C7.06361 37.4375 7.05752 37.4466 7.05143 37.4526C7.00575 37.5132 6.97073 37.5873 6.91896 37.6584C6.70274 37.9505 6.69208 38.0519 6.52155 38.2682C6.48957 38.3091 6.48653 38.3167 6.47282 38.3333C6.14393 38.7585 6.43628 38.4725 6.15154 38.7948C6.12413 38.8266 6.12565 38.8296 6.10129 38.8614C6.04495 38.9355 6.06627 38.9022 6.01602 38.9628C5.93075 39.0641 5.93837 39.0763 5.89269 39.2124L5.76174 39.223C5.70997 39.3653 5.5714 39.4833 5.50136 39.6043C5.35519 39.857 5.14506 40.0658 5.01563 40.3185C4.96538 40.4169 4.87707 40.5001 4.85118 40.6166C4.81312 40.7952 4.95625 40.9253 5.07197 41.0327L5.97034 41.8907C6.19417 42.1419 6.12565 41.9043 6.30837 42.2599C6.31446 42.2735 6.40582 42.3991 6.42105 42.4158L6.91439 42.8561C7.03925 42.9575 6.98139 43.0059 7.13518 43.1209C7.31029 43.251 7.44732 43.4492 7.58893 43.6021L9.0918 45.0532C9.12682 45.091 9.09637 45.0653 9.14509 45.1122L10.5673 46.53C10.6678 46.5996 10.7287 46.5981 10.8155 46.6919L11.0789 46.9658C11.1063 46.9991 11.1611 47.1489 11.3697 47.0883L11.6925 46.878C11.7565 46.8205 11.7382 46.8069 11.8326 46.76C11.9057 46.7237 11.9255 46.7343 11.997 46.698L13.672 45.5313C13.7329 45.498 13.7786 45.4874 13.8258 45.4587L13.9674 45.3391C14.0207 45.3043 14.0039 45.324 14.0435 45.3028C14.1135 45.2635 14.077 45.2907 14.1318 45.2393C14.2567 45.1228 14.4683 45.0244 14.6206 44.9412L15.5981 44.2754C15.6423 44.2451 15.6575 44.2376 15.688 44.2164C15.7732 44.1574 15.7489 44.1574 15.8357 44.1014C15.8981 44.0605 15.9499 44.0499 16.0093 44.0136C16.1783 43.9077 16.1676 43.823 16.4356 43.9017C16.6016 43.9501 16.8543 44.1816 17.0538 44.2527C17.337 44.3526 16.9929 44.2799 17.4923 44.4509C17.637 44.5009 17.6141 44.5205 17.7192 44.5644C17.8578 44.6219 17.838 44.5765 17.9674 44.6567L18.278 44.7914C18.2902 44.7959 18.3222 44.808 18.3328 44.8126C18.4379 44.8625 18.3572 44.8232 18.4044 44.8565C18.6785 45.0441 18.6724 44.8973 18.9328 45.0047C19.0439 45.0501 18.983 45.0577 19.1338 45.1046C19.2434 45.1394 19.3013 45.1273 19.3987 45.1772C19.5083 45.2332 19.4322 45.2438 19.6195 45.2907C19.7261 45.318 19.8098 45.324 19.9027 45.3028C20.1052 45.2892 20.3336 45.4193 20.4813 45.5101C20.5209 45.7961 20.4996 46.0155 20.591 46.2682C20.6869 46.5345 20.6595 46.7252 20.7143 47.0112C20.7721 47.3108 20.7996 47.0006 20.8696 47.7163C20.9198 48.2383 21.0066 48.1491 21.0417 48.4093C21.0584 48.5364 21.0493 48.6787 21.066 48.8073C21.0904 48.9858 21.1391 48.9964 21.1817 49.1326C21.2564 49.3686 21.2031 49.6546 21.2807 49.8922C21.5639 50.7729 21.2533 50.3628 21.6294 51.304L30.5766 51.307C30.8065 50.7214 30.7974 50.1146 30.8872 49.8983C30.9999 49.6274 30.9557 49.4579 31.0044 49.1553C31.0593 48.8164 31.111 49.125 31.1598 48.4048C31.1887 47.966 31.2846 48.0658 31.3257 47.7269C31.3638 47.4137 31.3501 47.2699 31.4582 47.0066C31.5404 46.8084 31.5176 46.4755 31.5739 46.2652C31.6089 46.1366 31.6561 46.076 31.679 45.9323C31.7033 45.7855 31.7018 45.6403 31.7323 45.5177C31.9104 45.4057 32.3642 45.2453 32.6565 45.2378C32.7113 45.2272 32.7601 45.1833 32.8164 45.1545C32.9428 45.0895 32.9078 45.1334 33.0494 45.091C33.3204 45.0108 32.9824 45.0441 33.4803 44.9245C33.8533 44.8353 34.1822 44.6416 34.3467 44.5856L35.574 44.0106C35.6547 43.9592 35.8572 43.6838 36.1815 43.9213C36.381 44.0681 36.5713 44.1725 36.7829 44.3647L37.0266 44.5674C37.4651 44.7974 37.4179 44.8459 37.5641 44.9276C37.7483 45.032 38.164 45.2574 38.298 45.3921C38.4183 45.5132 38.6726 45.6675 38.8218 45.7189C38.8324 45.7235 38.8492 45.7189 38.8553 45.7341L39.3669 46.0064C39.5039 46.0836 39.4095 46.0685 39.5466 46.132L39.8602 46.3348C39.8679 46.3393 39.877 46.3454 39.8846 46.3499C39.9257 46.3787 39.9044 46.3545 39.9547 46.3923C40.078 46.4861 40.1145 46.5194 40.2942 46.533C40.3825 46.7328 40.7403 46.9597 40.9322 47.0551C41.0769 46.9779 42.1214 45.9096 42.327 45.6887L42.5447 45.4587C42.7533 45.2847 42.9162 45.0305 43.1035 44.864L43.5131 44.4782C43.5953 44.3738 43.4979 44.4555 43.5892 44.3768C43.6167 44.3526 43.6045 44.3753 43.6562 44.3329L44.9307 43.0679C45.1561 42.9045 45.0799 42.9378 45.2048 42.8092L45.5291 42.4975C45.6936 42.2917 45.9387 42.1101 46.1275 41.9043L46.9239 41.0993C47.0305 41.0282 46.9315 41.1054 47.0305 41.0116L47.3335 40.6877C47.2695 40.5954 47.2726 40.6393 47.2162 40.5516C47.169 40.4774 47.1629 40.4169 47.1142 40.3518C46.9802 40.1703 46.9757 40.1778 46.8112 40.0613C46.7975 39.8964 46.8036 39.8858 46.7198 39.7784C46.6772 39.7239 46.6909 39.7572 46.6376 39.6724L46.4808 39.4545C46.4549 39.4182 46.4397 39.3849 46.4062 39.3426L46.0834 38.928C46.0179 38.8054 45.9813 38.8236 45.9296 38.7086C45.8565 38.5482 45.6113 38.247 45.6053 38.2395C45.5489 38.1638 45.5459 38.0776 45.488 37.9853C45.4697 37.9565 45.4225 37.9066 45.4027 37.8824L45.3327 37.7946C45.2017 37.6599 45.2292 37.7674 45.1682 37.5707C45.0891 37.3119 44.9155 37.2211 44.8028 36.9881L44.5805 36.6477C44.4815 36.51 44.4465 36.569 44.4435 36.3344L44.477 36.3299L44.3567 36.3072C44.2653 36.0938 43.9166 35.8699 44.1252 35.4326C44.2135 35.2465 44.1922 35.4417 44.2851 35.1814L44.5698 34.6488C44.6292 34.5338 44.6247 34.4551 44.678 34.3462C44.7526 34.1949 44.7526 34.2947 44.8226 34.0799C44.8835 33.8892 44.8774 33.9331 44.9536 33.8045L45.1911 33.2249C45.252 32.9238 45.2063 33.1145 45.3053 32.9268C45.3738 32.7982 45.3449 32.7301 45.389 32.5924C45.4347 32.4457 45.4713 32.4714 45.5169 32.3095C45.6342 31.8934 45.456 32.2641 45.7225 31.6951C45.8413 31.4424 46.0148 31.562 46.3224 31.5136C46.4427 31.4954 46.5249 31.447 46.627 31.4122C46.7549 31.3698 46.8371 31.3759 47.0015 31.3668C47.3563 31.3471 47.3929 31.2563 47.6548 31.2079C47.9517 31.1534 48.1329 31.217 48.346 31.0702C48.5288 30.9446 48.7846 30.99 49.0647 30.9764C49.2962 30.9643 49.2505 30.9567 49.4043 30.8932C49.5566 30.8296 49.925 30.813 50.1108 30.7797C50.4778 30.7146 50.2509 30.6299 51.163 30.6117L51.2269 30.5406C51.5726 30.244 51.5497 30.8871 51.5497 29.321V25.9679C51.5497 24.4971 51.5954 22.9522 51.5452 21.4905C51.4218 21.4723 51.2726 21.4905 51.1614 21.4451C50.994 21.3785 51.1219 21.3362 50.863 21.3059C50.4991 21.2635 50.4184 21.3407 50.1199 21.1879C49.9068 21.0789 49.5992 21.1319 49.3251 21.0986C48.9719 21.0562 49.4302 20.9654 48.6095 20.9458C48.1435 20.9337 48.4328 20.7793 47.9349 20.7642C47.3335 20.746 47.4934 20.7354 47.2482 20.6235L45.7971 20.3662C45.6692 20.277 45.7453 20.3466 45.6631 20.2028C45.625 20.1347 45.5961 20.0939 45.5718 20.0333C45.4971 19.8518 45.5657 19.817 45.4332 19.6233C45.3205 19.4568 45.3753 19.4054 45.322 19.1996C45.2657 18.9787 45.1485 19.0876 45.185 18.7517C45.2124 18.6518 45.1987 18.5898 45.153 18.4884L44.8119 17.7092C44.7663 17.5836 44.7054 17.5427 44.6734 17.4761L44.4419 16.9647C44.381 16.7937 44.3628 16.827 44.3171 16.7105C44.2851 16.6273 44.3125 16.65 44.2684 16.5698C44.2044 16.4563 43.9486 16.2338 44.2135 15.8964C44.2882 15.8011 44.2958 15.7708 44.3719 15.6815C44.5028 15.5287 44.5485 15.4062 44.7084 15.2337C44.713 15.2276 44.7206 15.22 44.7267 15.214C44.9338 14.9931 44.8059 15.1081 44.9246 14.928L45.7621 13.7114C45.7956 13.6479 45.7849 13.6585 45.8337 13.5934L46.0042 13.3543C46.0088 13.3483 46.0164 13.3392 46.0209 13.3331C46.193 13.1183 46.094 13.2333 46.2037 13.032L46.732 12.2528C46.8432 12.0909 47.3944 11.3479 47.3822 11.2132C47.3472 11.1043 47.3167 11.0861 47.2436 11.0074C47.1431 10.9 47.1371 10.9363 47.067 10.8486C47.035 10.8092 47.0426 10.8047 47.0092 10.7563L46.729 10.4748C46.7229 10.4703 46.7153 10.4627 46.7092 10.4567L46.6696 10.4219C46.6635 10.4173 46.6559 10.4098 46.6498 10.4037L46.394 10.1344C46.2783 9.99062 46.1732 9.89529 46.0362 9.78483C45.8519 9.63654 45.8641 9.58358 45.686 9.42319L44.6353 8.41695C44.4526 8.38668 44.5592 8.42451 44.4419 8.308L43.5253 7.43794C43.5207 7.43189 43.5146 7.42281 43.5085 7.41676L43.1918 7.09749C43.1766 7.08084 43.1462 7.04453 43.1401 7.03847L42.63 6.53611C42.6239 6.53006 42.6163 6.52249 42.6102 6.51644L41.3997 5.29533C41.3936 5.29079 41.3403 5.24237 41.3388 5.24086L41.1073 5.02448C41.0494 4.97606 40.9596 4.94731 40.9444 4.88073C40.9413 4.8656 40.9322 4.86257 40.9246 4.85501L40.5226 5.1077C40.5165 5.11224 40.5089 5.11981 40.5013 5.12435L39.7856 5.60855C39.6562 5.73263 39.5177 5.78862 39.3502 5.88395C39.1994 5.96868 39.274 5.95658 39.1644 6.03072C39.0943 6.07914 39.0426 6.08671 38.971 6.13664C38.9208 6.17144 38.901 6.19717 38.8659 6.21986L38.5995 6.40295C38.5096 6.45894 38.4624 6.44835 38.3589 6.51039L37.3448 7.1792C37.3372 7.18373 37.3281 7.18827 37.3204 7.19281C37.3144 7.19735 37.3037 7.20189 37.2976 7.20643L37.1758 7.30327C37.1697 7.30781 37.1606 7.31538 37.153 7.31992L36.821 7.51965C36.6931 7.58623 36.7738 7.55294 36.6794 7.65584C36.5865 7.75722 36.4114 7.85254 36.3033 7.9282C35.9851 8.15215 35.8739 8.16274 35.5587 7.93728C35.446 7.85708 35.4917 7.91458 35.3547 7.85103C35.2283 7.79353 35.2557 7.77235 35.1324 7.73452C35.0486 7.7088 34.9497 7.71182 34.8705 7.67853C34.6908 7.60439 34.8553 7.5484 34.3619 7.52419C34.1807 7.25334 34.2553 7.45307 34.0117 7.33656C33.9447 7.30327 33.9249 7.25637 33.864 7.2261C33.7209 7.1565 33.6097 7.17012 33.4529 7.07933C33.3859 7.03999 33.4422 7.05512 33.3463 7.02637C33.2747 7.00518 33.3067 7.01578 33.2397 7.0067C33.0935 6.98703 33.0539 6.99762 32.9656 6.90229C32.8301 6.75552 32.7129 6.85538 32.5484 6.77973C32.3992 6.71163 32.5164 6.6844 32.3063 6.62539C32.1266 6.57394 31.8876 6.51039 31.7262 6.41809C31.6729 6.04434 31.6881 5.9823 31.5846 5.66303C31.5115 5.43605 31.5511 5.14099 31.4658 4.92613C31.3592 4.6583 31.3592 4.5312 31.3333 4.20587C31.312 3.93956 31.2039 3.76252 31.1765 3.49621C31.1445 3.17693 31.1369 3.02864 31.0471 2.76384C30.9755 2.55352 31.0151 2.23424 30.9161 2.04208C30.7471 1.71221 30.8187 1.09485 30.6025 0.637878C30.1198 0.556169 28.8879 0.621234 28.3261 0.621234C27.7947 0.621234 21.9888 0.574326 21.6949 0.628799C21.4071 0.681759 21.3964 1.38386 21.3523 1.6305C21.3279 1.76971 21.3005 1.85445 21.1924 1.91648ZM21.3599 9.09332C21.2472 9.08727 20.4493 9.36871 20.326 9.42924C20.1951 9.49279 20.0793 9.48674 19.9606 9.55029L19.1414 9.88621C18.9785 9.94371 19.0789 9.91798 18.9724 9.98305C18.8231 10.0723 18.7653 10.0103 18.613 10.1117C18.4181 10.2403 18.543 10.1661 18.313 10.2554C18.1943 10.3023 18.2491 10.2902 18.1684 10.3386L17.6629 10.5823C17.4802 10.6534 17.1878 10.8894 17.0812 10.9333C16.9183 10.9999 16.9442 11.0453 16.7797 11.1179C16.1295 11.4069 16.3777 11.7262 15.6332 11.1179C15.5814 11.0755 15.5616 11.0513 15.5098 11.0165L14.8003 10.5323C14.7317 10.49 14.7333 10.4748 14.6708 10.4355C14.5749 10.375 14.5719 10.4022 14.4896 10.3523L13.2258 9.4822C13.101 9.42167 13.168 9.44891 13.069 9.37779L12.367 8.92082C12.1935 8.79675 11.7915 8.47747 11.6103 8.43964C11.3469 8.63635 11.2418 8.84063 11.1063 8.94806L10.8733 9.16595C10.8627 9.17654 10.817 9.22043 10.817 9.22194C10.7622 9.27187 10.7591 9.26733 10.7134 9.30667C10.6221 9.38536 10.6876 9.32786 10.6221 9.40352C10.4835 9.56693 10.2505 9.71522 10.1211 9.87562C9.94754 10.0905 9.69782 10.2584 9.53642 10.4884L9.23493 10.782C8.91365 11.0544 9.03546 10.9832 8.83752 11.1709L8.60303 11.3827C8.47817 11.5386 8.42031 11.5174 8.54821 11.7111L9.11312 12.5282C9.25168 12.7355 9.54251 13.2181 9.68716 13.3725C9.74198 13.4315 9.73589 13.4376 9.78309 13.5011C9.83334 13.5692 9.844 13.5662 9.88815 13.6191C9.93383 13.6736 9.89881 13.6297 9.93383 13.6827C9.93992 13.6918 9.95515 13.7205 9.96276 13.7296L9.99322 13.775C10.048 13.8491 10.0374 13.8219 10.0876 13.9036L10.5566 14.5936C10.6876 14.7721 10.7515 15.0127 10.8977 15.1883C10.9464 15.2458 10.9494 15.2488 10.9982 15.3123L11.4017 15.8798C11.525 16.1294 11.3667 16.3277 11.2235 16.5229C11.1748 16.5894 11.1687 16.6182 11.1276 16.6863C10.9723 16.9344 10.4957 17.6774 10.45 17.8771L9.89577 19.1966C9.77243 19.4432 9.77243 19.4069 9.71152 19.6914C9.67955 19.8427 9.66737 19.7837 9.6156 19.8382C9.52424 19.935 9.55164 20.0197 9.48922 20.1665C9.34913 20.4858 9.22123 20.9064 9.15271 21.2423C9.15575 21.4723 9.10703 21.4148 9.06135 21.5828C9.02785 21.7054 9.02785 21.8476 8.99892 21.9732C8.94867 22.1941 8.92431 22.061 8.84056 22.4786C8.83447 22.5073 8.82838 22.5376 8.81924 22.5679C8.8162 22.5754 8.81163 22.5875 8.81011 22.5936L8.76443 22.6647C8.75986 22.6783 8.74616 22.6829 8.74007 22.6859C8.3259 22.9719 7.86301 22.8372 7.48844 22.984C7.20218 23.0959 7.1565 23.0657 6.80933 23.099C6.4241 23.1353 6.67077 23.2064 6.14545 23.2563C5.80894 23.2881 5.77696 23.2594 5.50136 23.391C5.30342 23.4863 5.01868 23.4379 4.74612 23.4757C4.53295 23.506 4.59081 23.5711 4.07615 23.6271C3.193 23.7224 3.40465 23.5877 3.40465 25.9195C3.40465 26.3295 3.35288 27.8003 3.42902 28.0908C3.66655 28.2724 4.11878 28.2028 4.44768 28.2981C4.97909 28.4525 4.85118 28.4343 5.50288 28.4858L5.53182 28.6129C5.91096 28.5523 6.35405 28.74 6.67838 28.8065C7.11538 28.8958 7.43667 28.9987 7.89499 29.0154C7.91935 29.0925 7.90412 28.9866 7.85692 29.0623C7.94219 29.0668 8.03051 29.0683 8.11425 29.0835C8.15384 29.091 8.18582 29.1001 8.23454 29.1183C8.2924 29.1394 8.32895 29.1591 8.33656 29.1621C8.44467 29.1969 8.59694 29.1909 8.71114 29.2393C8.72027 29.2423 8.73093 29.2484 8.73702 29.2529C8.84665 29.3044 8.86492 29.604 8.90908 29.7129C8.96999 29.8657 8.99131 29.9686 9.01567 30.1608C9.02328 30.2229 9.03089 30.3046 9.05069 30.3893C9.08723 30.5512 9.1055 30.5073 9.15271 30.589C9.23645 30.7358 9.14662 30.8538 9.273 31.0672C9.39024 31.2654 9.34 31.5105 9.46485 31.7345C9.51358 31.8222 9.51662 31.854 9.53794 31.9599C9.56687 32.1007 9.53794 32.0462 9.59885 32.1612C9.67498 32.3019 9.6628 32.2172 9.71152 32.3428C9.74959 32.4441 9.73132 32.4699 9.78309 32.5713L10.0891 33.3959C10.1501 33.5518 10.1333 33.461 10.2094 33.5639C10.2962 33.6834 10.3069 33.8287 10.3922 33.9437C10.4713 34.0496 10.5536 34.1782 10.6206 34.3129C10.6571 34.387 10.6662 34.4218 10.7073 34.4869C10.7728 34.5898 10.7606 34.558 10.8139 34.6806C10.8992 34.8788 10.8596 34.7517 10.9373 34.8531C11.0043 34.9393 10.9829 34.9711 11.0317 35.0589C11.0941 35.1723 11.0652 35.071 11.1413 35.2102L11.353 35.5975C11.4474 35.7731 11.557 35.8487 11.2464 36.2527L10.147 37.9232C10.1409 37.9323 10.1242 37.9596 10.1181 37.9686C10.0694 38.0382 10.0496 38.0397 9.99626 38.1048C9.86227 38.2713 9.77091 38.5073 9.62473 38.6647L8.46142 40.3367C8.46294 40.4668 8.6213 40.5425 8.69743 40.6197L9.71457 41.6577C9.80441 41.7545 9.86227 41.7696 9.96885 41.8529C10.0709 41.9316 10.1881 42.1313 10.3145 42.2523L10.5307 42.4475C10.9129 42.7713 11.4672 43.6036 11.761 43.4719L12.5178 42.9227C12.6 42.8697 12.5482 42.9151 12.632 42.85C12.6335 42.8485 12.6853 42.8031 12.6914 42.7986L13.0355 42.5777C13.2136 42.4415 12.9929 42.5519 13.3263 42.3507C13.4086 42.3008 13.305 42.3658 13.3903 42.3023C13.5989 42.1479 13.8669 42.0269 14.077 41.8665C14.2369 41.7439 14.3815 41.5866 14.5703 41.5018L14.9769 41.234C15.0302 41.1977 15.0545 41.1765 15.1124 41.1447L15.3713 40.9889C15.4611 40.9389 15.4276 40.9768 15.5205 40.9132C15.6606 40.8179 15.7413 40.7059 15.8935 40.6151C16.0138 40.544 16.0763 40.5274 16.1798 40.4577L16.9137 40.9117C16.9183 40.9147 16.9289 40.9208 16.932 40.9238C16.9335 40.9253 16.9746 40.9435 16.9853 40.948C17.2639 40.9874 17.3903 41.1931 17.6583 41.29L18.6633 41.7878C18.8932 41.8831 18.7957 41.8211 18.9861 41.9452C19.1307 42.0405 19.1977 41.986 19.3485 42.0753L19.7337 42.213C19.9195 42.2614 19.8509 42.325 20.0809 42.3598C20.4235 42.4127 20.2042 42.3779 20.4174 42.499C20.5544 42.5762 20.6686 42.5277 20.8193 42.5913C21.3477 42.8167 21.3827 42.6821 21.5852 42.8304C21.6918 42.909 21.535 42.8758 21.7664 42.909C22.24 42.9786 22.2095 43.0392 22.3679 43.0664C22.5354 43.0952 22.6663 43.0906 22.8308 43.1224C22.8734 43.3448 22.9556 43.4992 23.0089 43.7201C23.0653 43.9531 23.0272 44.2406 23.0866 44.4751C23.1429 44.6976 23.1947 44.92 23.2252 45.1561C23.2617 45.433 23.3378 45.6161 23.3652 45.8536C23.3927 46.0836 23.4307 46.3136 23.4886 46.4982L23.7596 47.8691C23.7703 48.0568 23.7885 48.1899 23.8647 48.3533C23.9743 48.5879 24.2286 48.5152 24.4661 48.5152L28.1022 48.5137C28.1038 48.5137 28.0505 48.5894 28.2302 48.4804C28.4129 48.37 28.4388 47.7405 28.4753 47.5377C28.5027 47.3879 28.5423 47.3531 28.5758 47.2291C28.6352 47.0097 28.6139 46.7328 28.6763 46.5058C28.7463 46.2485 28.792 46.132 28.8103 45.8203C28.8286 45.4859 28.926 45.4405 28.9595 45.1833C28.9915 44.9397 28.9778 44.6567 29.0585 44.457C29.1148 44.3163 29.1453 44.4025 29.1666 44.1816C29.1864 43.9607 29.2717 43.2782 29.4011 43.1617C29.5473 43.1042 29.6995 43.1088 29.8822 43.0709C30.0573 43.0361 30.1761 42.9529 30.3238 42.9242C30.6101 42.8697 30.5416 42.9121 30.776 42.8122C30.9435 42.7396 31.1049 42.7562 31.2618 42.6972C31.379 42.6533 31.3349 42.6397 31.4247 42.6034C31.5161 42.5656 31.5998 42.5731 31.7018 42.561C31.915 42.5338 31.9059 42.446 32.119 42.3915L32.5454 42.2251C32.6291 42.1873 32.687 42.1888 32.7723 42.1525L33.1681 41.9845C33.293 41.9315 33.258 41.9164 33.3493 41.8695C33.4422 41.8226 33.4803 41.8408 33.5823 41.7984C33.6996 41.7485 33.6554 41.7379 33.7711 41.6879C33.8412 41.6577 33.9021 41.6531 33.9645 41.6183C34.0894 41.5487 33.9812 41.5714 34.1396 41.4988L34.8903 41.0948C35.0852 41.0222 35.9683 40.4245 36.0125 40.4229C36.1587 40.4169 36.8865 40.9874 37.0631 41.0887L37.9402 41.7061C38.3056 41.9739 38.7335 42.213 39.0898 42.4975C39.1948 42.5822 39.236 42.558 39.3562 42.6458L40.3932 43.363C40.6475 43.5385 40.6718 43.4492 40.8774 43.2404C41.0966 43.018 41.2794 42.7895 41.523 42.5762C41.6951 42.4263 41.8169 42.3023 41.9661 42.1298C42.228 41.8271 42.5752 41.5412 42.8492 41.2552C43.0655 41.0297 43.5618 40.6106 43.6974 40.3443C43.6562 40.2262 43.6684 40.2868 43.6106 40.2051C43.5634 40.1355 43.5695 40.1415 43.5268 40.0613L41.2474 36.7415C41.2078 36.687 41.1971 36.6643 41.1621 36.6038C41.0555 36.4131 40.8606 36.1665 40.7906 35.994L40.7068 35.7988C40.7845 35.6339 40.9215 35.4387 41.0647 35.3146C41.0692 35.1542 41.0997 35.304 41.2504 34.9393L41.456 34.5429C41.5276 34.437 41.5032 34.502 41.5702 34.3598C41.6296 34.2327 41.8823 33.871 41.8808 33.7787C41.8839 33.5487 41.89 33.5427 41.9905 33.3989C42.1047 33.237 42.0453 33.1841 42.126 33.0464L42.2813 32.718C42.3605 32.5077 42.3894 32.6726 42.432 32.3745C42.4762 32.0628 42.5173 32.2202 42.5782 32.0341C42.6269 31.8858 42.5889 31.7375 42.6482 31.624C42.7457 31.4379 42.7548 31.6165 42.7959 31.273C42.8173 31.0974 42.8157 31.0536 42.9604 30.9824C42.9695 30.813 42.9543 30.6208 42.9893 30.4604C43.0487 30.1911 43.1127 30.4241 43.1705 30.1048C43.2969 29.4058 43.268 29.9414 43.3548 29.1652C43.6989 29.1304 43.641 29.0744 43.8725 29.0154C44.0811 28.9624 44.3338 29.0017 44.5059 28.9352C45.0815 28.7097 44.8241 28.861 45.351 28.7823C45.5626 28.7506 45.4789 28.8005 45.5718 28.6401C45.8276 28.6295 46.2905 28.6779 46.4579 28.5554C46.7777 28.3239 46.7945 28.513 47.2619 28.4268C47.501 28.3829 47.2771 28.4419 47.4172 28.3571C47.7583 28.1483 48.0141 28.3541 48.3993 28.1831C48.5333 28.1241 48.614 28.115 48.7815 28.0802C48.8333 27.7806 48.8318 24.0719 48.777 23.8041C48.4344 23.5923 48.0232 23.6271 47.8405 23.5756C47.2467 23.4092 47.0594 23.4667 46.7853 23.388C46.2341 23.2291 46.5234 23.332 46.1047 23.2533C45.7667 23.1882 45.9402 23.1111 45.4636 23.0944C44.8196 23.0717 45.0754 23.0279 44.751 22.9598C44.5181 22.9113 44.2409 22.9295 44.011 22.8675C43.8816 22.8327 43.8633 22.8009 43.7065 22.7646C43.6639 22.754 43.5771 22.7373 43.5588 22.7313C43.2558 22.6375 43.4141 22.5815 43.3015 22.2168C43.2527 22.061 43.201 21.9929 43.1705 21.7886C43.1294 21.5041 43.1035 21.5979 43.035 21.4118C42.9802 21.265 42.9954 21.0865 42.9406 20.9488C42.8599 20.7506 42.8492 20.8565 42.8142 20.5251C42.7883 20.2739 42.7107 20.3133 42.6513 20.1499C42.5599 19.9002 42.6361 19.9698 42.499 19.7458C42.4061 19.5945 42.4594 19.4871 42.3544 19.3297C42.2584 19.1845 42.3468 19.4281 42.2447 19.071C42.1854 18.8652 42.1579 18.9772 42.094 18.8122C42.0696 18.7487 42.0666 18.6518 42.0285 18.5747C41.9859 18.4854 41.9767 18.5278 41.9265 18.4128C41.8793 18.3053 41.9113 18.3038 41.8428 18.1964C41.6357 17.8711 41.7651 17.9906 41.6585 17.8181L41.2733 17.1205C41.2626 17.1039 41.2276 17.06 41.2261 17.057C41.118 16.8951 40.9292 16.5682 40.888 16.3655C40.8073 16.2838 40.8743 16.3367 40.8195 16.2354C40.7799 16.1627 40.7708 16.1612 40.7312 16.0946C40.7906 15.9766 40.8302 15.8661 40.9063 15.7406C41.1149 15.3956 41.0251 15.6725 41.2474 15.2624C41.3555 15.0627 41.5352 14.981 41.6007 14.7797C41.6692 14.4589 41.8397 14.3182 41.8808 14.2471L42.3909 13.5268C42.4518 13.4436 42.4457 13.4103 42.5203 13.318L43.7019 11.5855C43.5466 11.2813 43.1203 10.9848 42.8721 10.7336L42.6376 10.4794C42.3711 10.2494 42.4792 10.3008 42.2798 10.0875C42.0666 9.86049 40.9855 8.8028 40.6931 8.57431L40.5515 8.46385C40.4647 8.51227 40.5043 8.50622 40.4008 8.5728C40.1983 8.70142 40.0384 8.85122 39.8237 8.96773C39.5801 9.09937 39.3547 9.2976 39.1294 9.46404L38.2706 10.0284C38.2264 10.0617 38.2249 10.0572 38.1823 10.092C38.1259 10.1389 38.1777 10.098 38.1259 10.1465C38.0468 10.2206 38.1016 10.1904 37.9965 10.2357C37.7818 10.3296 37.6158 10.5036 37.4011 10.6171C37.2154 10.7154 37.1286 10.8123 36.9976 10.9242C36.8667 11.0362 36.6977 11.1028 36.5561 11.1905C36.3871 11.2949 36.1815 11.6006 35.9379 11.4947C35.9211 11.4795 35.8815 11.4266 35.8785 11.4236C35.8069 11.357 35.6973 11.3464 35.6181 11.3025C35.4795 11.2238 35.609 11.2586 35.4735 11.186C35.3379 11.1134 35.3014 11.1255 35.1644 11.015C34.9177 10.8153 34.7806 10.8138 34.6162 10.7003L34.3573 10.5792C34.1975 10.4915 34.1716 10.3886 33.7437 10.2282C33.5397 10.1525 33.6752 10.1374 33.3965 10.0769C33.0874 10.0103 33.2991 9.97397 33.0509 9.90437L32.719 9.7591C32.5697 9.67286 32.4677 9.747 32.3337 9.65318C32.2028 9.5624 32.3627 9.61536 32.1845 9.54424C32.1403 9.52608 32.052 9.51398 32.0018 9.50036C31.8312 9.45194 31.8449 9.39746 31.6561 9.35812L31.2861 9.24464C31.1735 9.17957 30.709 9.09181 30.5233 9.03128C30.3543 8.9753 30.2203 9.00102 30.0711 8.95563C29.9553 8.91931 29.9173 8.8603 29.7269 8.82398C29.3904 8.76043 29.3965 8.80128 29.2914 8.50471C29.057 7.84649 29.2168 7.81623 29.0691 7.49847C28.9488 7.23972 29.0006 6.94617 28.9397 6.65716C28.9077 6.50736 28.8575 6.37723 28.8286 6.24407C28.7966 6.09881 28.8072 5.93993 28.7859 5.79164C28.757 5.59191 28.7189 5.57678 28.6763 5.42395C28.6428 5.3029 28.6276 5.11981 28.6169 4.9927C28.588 4.67494 28.4829 4.50396 28.4448 4.19982L28.2834 3.50982C28.2576 3.42963 28.285 3.47653 28.2499 3.42811C28.087 3.31463 26.4593 3.38423 26.1167 3.38423C25.5442 3.38423 24.4524 3.32219 23.9423 3.40088C23.8266 3.56278 23.7855 3.79127 23.7642 4.02883C23.7337 4.37232 23.6622 4.41468 23.6119 4.69461C23.5662 4.94731 23.5586 5.15764 23.4992 5.40125L23.3774 6.0625C23.3302 6.3273 23.2663 6.39236 23.2297 6.73887C23.1993 7.02637 23.178 7.1792 23.1033 7.43643C23.0272 7.69518 23.0683 7.92971 23.0166 8.17787C22.9861 8.32465 22.9374 8.35339 22.8993 8.46083C22.7592 8.84971 22.8902 8.75135 22.4516 8.83457C22.3116 8.86181 22.2278 8.92385 22.1227 8.95411C21.9964 8.99043 21.8304 8.98135 21.7238 9.01161C21.5365 9.06306 21.5898 9.09937 21.3599 9.09332ZM19.4474 18.7608C19.3941 18.9847 19.3926 18.8652 19.2525 19.015L18.6846 19.646C18.613 19.7277 18.5475 19.7867 18.4958 19.8654L17.8958 20.6537C17.774 20.796 17.6263 20.9488 17.5715 21.1228L17.5076 21.2726C17.2913 21.5768 17.4299 21.4723 17.3005 21.6569C17.136 21.89 17.0218 22.3288 16.9107 22.5996C16.8467 22.754 16.8254 22.9446 16.7417 23.0748L16.6899 23.1625C16.6396 23.2942 16.6488 23.4757 16.5909 23.6225C16.4798 23.9025 16.5102 24.2353 16.4539 24.5365C16.4067 24.7786 16.3382 24.8179 16.3321 25.1705C16.3229 25.7152 16.3184 26.2297 16.3321 26.7759C16.3382 27.0226 16.6366 28.4858 16.7097 28.7717L16.8163 28.9851C16.8208 28.9957 16.8239 29.0048 16.8285 29.0154C16.833 29.026 16.8345 29.035 16.8376 29.0471L17.4147 30.3999C17.5289 30.7025 18.1638 31.6876 18.3679 31.8434L18.7013 32.202C18.747 32.2716 18.61 32.0855 18.7333 32.2489L19.321 32.9011C19.4413 33.0055 19.4413 32.9284 19.5449 33.0464L19.8464 33.349C19.9423 33.4262 20.0291 33.5503 20.1463 33.6153C20.2544 33.6758 20.3184 33.6804 20.3991 33.7621C20.4067 33.7697 20.4463 33.812 20.4554 33.8196L20.9792 34.1979C21.0173 34.2175 21.0782 34.2327 21.1132 34.2523C21.1894 34.2962 21.1954 34.3416 21.2899 34.381C21.5106 34.4718 21.4893 34.499 21.599 34.5504C21.7208 34.6095 21.771 34.5565 21.8837 34.6382C22.0466 34.7577 21.835 34.6972 22.1547 34.788C22.2613 34.8183 22.2126 34.791 22.2781 34.8395C22.3374 34.8833 22.275 34.8349 22.3329 34.8939C22.4319 34.9953 22.68 34.9484 22.7973 35.0331C22.9084 35.1133 22.7562 35.0649 22.9556 35.133L23.3439 35.2752C23.4277 35.301 23.481 35.301 23.5678 35.3116C23.7581 35.3358 23.7992 35.3342 23.9423 35.4175C24.1525 35.5385 24.5103 35.5128 24.7965 35.5673C25.1681 35.6384 25.2777 35.652 25.7071 35.6641C26.505 35.6868 26.8613 35.6656 27.5861 35.5279C27.9896 35.4523 28.0657 35.537 28.4494 35.3796C28.6017 35.3176 28.7463 35.3221 28.8956 35.2873C29.0646 35.248 29.06 35.2011 29.2366 35.1496C29.5046 35.071 29.427 35.0301 29.5625 34.9726C29.7467 34.8954 29.7513 35.0119 29.9416 34.8546C30.1274 34.7018 30.1152 34.8122 30.3147 34.7033C30.3923 34.6609 30.3664 34.6654 30.4852 34.611C30.6451 34.5383 30.5141 34.6276 30.6268 34.5217C30.7456 34.4112 30.8765 34.4037 30.9618 34.3371C31.0364 34.2781 30.9633 34.2781 31.0973 34.2266C31.1643 34.2009 31.2146 34.207 31.2861 34.1827C31.4034 34.1434 31.3349 34.1646 31.3866 34.1298C31.3958 34.1237 31.4201 34.1026 31.4277 34.0965L31.8145 33.812C31.8815 33.7666 31.8099 33.8166 31.8769 33.7606C31.9789 33.6774 31.9165 33.7258 32.0307 33.6547L32.2439 33.4398C32.3383 33.2749 32.6109 33.172 32.7631 32.9601C32.8286 32.8693 32.8195 32.8436 32.9108 32.7861L33.1468 32.6045C33.3463 32.429 33.529 32.1733 33.6691 32.0447L33.9478 31.8026C33.9538 31.7859 33.9721 31.792 33.9843 31.7874C34.3162 31.4561 34.2492 31.3774 34.438 31.1655C34.5507 31.0384 34.668 30.7857 34.7593 30.6314C34.8218 30.527 34.8065 30.53 34.8507 30.4226C34.9588 30.1608 34.9603 30.4211 35.038 30.0564C35.073 29.893 35.1567 29.8219 35.2055 29.66C35.2466 29.5223 35.2131 29.5843 35.2755 29.4678C35.4232 29.1969 35.6653 28.2285 35.7399 27.9153C35.7795 27.7504 35.7689 27.5854 35.8084 27.4266C35.8526 27.248 35.8983 27.1481 35.9211 26.9484C35.9668 26.5595 35.979 24.9798 35.8693 24.7165C35.7963 24.541 35.7932 24.7422 35.7567 24.2777L35.5024 23.1096L35.0928 22.0655C34.971 21.8067 35.0684 21.9096 34.9116 21.6842C34.8415 21.5843 34.8613 21.5934 34.8248 21.4754L34.435 20.7385C34.2919 20.5387 34.2721 20.4646 34.1487 20.3481L34.0422 20.2013C33.9995 20.1423 34.0284 20.1968 33.9752 20.1151C33.9005 19.9985 33.966 20.0485 33.8579 19.935C33.6447 19.7095 33.2093 19.366 33.0128 19.068C32.9428 18.962 32.9626 18.9817 32.8667 18.9061C32.8058 18.8576 32.7555 18.8213 32.6976 18.7759C32.585 18.6882 32.5225 18.6261 32.4114 18.5051L31.7947 17.9967C31.5115 17.75 31.7749 17.9331 31.4506 17.747L30.939 17.4353C30.7456 17.3732 30.8781 17.4368 30.7349 17.3369L29.9386 16.9707C29.7513 16.8709 29.6554 16.9163 29.5016 16.8421C29.13 16.6605 29.3661 16.7877 29.0676 16.7075C28.8544 16.65 28.9153 16.5773 28.6626 16.5501C28.4311 16.5259 28.3489 16.538 28.1632 16.4563C27.9363 16.3549 26.4441 16.2096 26.0741 16.2096C25.6629 16.2096 24.2453 16.3216 23.985 16.4215C23.7977 16.4926 23.7748 16.5062 23.5434 16.5395C23.1186 16.6 23.3241 16.6212 23.0988 16.6938C22.5491 16.8709 23.0166 16.7059 22.6983 16.8557C22.6222 16.8921 22.5217 16.8981 22.4593 16.9117C22.2507 16.9556 22.3725 16.9178 22.2415 17.001C22.1547 17.0555 22.1806 17.0479 22.0695 17.0842C21.6827 17.2128 21.5746 17.3021 21.2442 17.4973L20.7676 17.8045C20.3945 17.9906 20.6762 17.8453 20.3839 18.0617L20.0793 18.2842C19.9575 18.3795 19.9271 18.322 19.7444 18.5126C19.6439 18.617 19.6027 18.732 19.4474 18.7608ZM24.0093 19.2813C23.7048 19.4493 23.5876 19.4251 23.4185 19.5098C23.3089 19.5643 23.3729 19.5643 23.2282 19.6157L21.8289 20.4252C21.8228 20.4298 21.8136 20.4374 21.8076 20.4419C21.7984 20.4479 21.7725 20.4661 21.7634 20.4737L20.9579 21.2363C20.7493 21.4572 20.693 21.5904 20.5163 21.8037L20.2971 22.0731C20.1387 22.2667 20.1555 22.3787 20.0595 22.5073L19.516 23.7194C19.4657 23.8419 19.4581 23.8026 19.4124 23.9115C19.3804 23.9887 19.3789 24.0356 19.3713 24.134C19.3485 24.4623 19.2525 24.3791 19.1977 24.8512C19.1536 25.234 19.1064 27.2995 19.2556 27.5688C19.3622 27.7625 19.3378 27.8563 19.4033 28.0167C19.4855 28.2149 19.4946 28.1483 19.5601 28.4192C19.5875 28.5296 19.5967 28.5402 19.6469 28.628C19.7763 28.8504 19.8555 29.2499 20.0169 29.4133C20.2103 29.6085 20.3214 29.8809 20.492 30.1003L21.1924 30.8947C21.2548 30.9643 21.2579 30.9628 21.3234 31.0248C21.3294 31.0294 21.3371 31.0369 21.3431 31.043L21.3995 31.099C21.4406 31.1368 21.4391 31.1353 21.4787 31.1686L22.1288 31.6785C22.2522 31.7859 22.4851 31.854 22.6283 31.966L22.8704 32.0976C23.1612 32.2187 22.91 32.2096 23.3043 32.2701C23.5662 32.311 23.4307 32.3866 23.685 32.4457C23.921 32.5001 23.9225 32.5455 24.1266 32.603C24.2834 32.6469 24.4326 32.6333 24.5864 32.7044L25.0691 32.8164C25.4391 32.8406 25.8594 32.836 26.2309 32.833C26.575 32.83 27.0181 32.827 27.3455 32.777C27.6257 32.7332 27.5312 32.6802 27.7642 32.6393C28.2804 32.547 28.1144 32.5319 28.4327 32.4472L28.6504 32.3579C28.7509 32.2853 28.9626 32.2338 29.0585 32.1688C29.2473 32.0416 29.3036 32.1324 29.4803 32.0265L29.8518 31.7995C29.9538 31.7148 29.902 31.7587 30.0147 31.7012C30.2888 31.5635 30.406 31.3547 30.6527 31.1822C30.7974 31.0808 30.7623 31.0521 30.8872 30.9688C30.9481 30.928 30.8979 30.9749 30.9801 30.9098C31.2587 30.6874 31.4247 30.3817 31.6683 30.1381C31.8556 29.9505 32.0216 29.6857 32.1327 29.4466C32.1875 29.3316 32.1906 29.3634 32.2348 29.2847C32.2774 29.2075 32.2789 29.15 32.3185 29.0683L32.5164 28.6689C32.6961 28.4298 32.5834 28.4676 32.6885 28.2437C32.7966 28.0137 32.7844 28.1181 32.8362 27.8351C32.859 27.4841 32.9032 27.5824 32.9687 27.3479C33.0539 27.0377 33.0372 24.9919 32.9519 24.6106C32.9139 24.4381 32.8682 24.3503 32.8347 24.1612C32.7327 23.5832 32.757 24.0613 32.6261 23.5196C32.5804 23.3305 32.3429 22.9643 32.2545 22.7419L31.4856 21.5646C31.1004 21.0229 30.5903 20.6855 30.1426 20.3284L30.103 20.2921C30.0954 20.2845 30.0741 20.2618 30.0665 20.2543L29.092 19.6687C29.0189 19.6384 28.9565 19.643 28.8758 19.6157C28.7144 19.5628 28.6976 19.4962 28.4768 19.4538C28.1525 19.3918 28.3352 19.357 28.084 19.2904C27.883 19.2374 27.8023 19.2314 27.618 19.1587C27.1704 18.9832 24.9412 18.9938 24.5194 19.1951C24.3489 19.2768 24.2408 19.2692 24.0093 19.2813ZM16.9853 40.948C16.9914 40.9601 17.0036 40.9647 17.0081 40.9828C17.0112 41.001 17.0355 41.0373 17.0416 41.0479C17.1695 41.234 17.8486 41.5139 18.0557 41.6214C18.1714 41.6819 18.3968 41.7243 18.4775 41.7878C18.4836 41.7923 18.4912 41.8014 18.4973 41.806L18.8064 41.98C18.9084 42.0541 18.8521 42.0208 18.98 42.0723C19.2084 42.1631 19.0196 42.0692 19.1627 42.1873C19.3165 42.3144 19.4094 42.2145 19.5829 42.3265C19.8083 42.4717 19.6423 42.4158 20.0093 42.4596C20.1509 42.5308 19.8707 42.564 20.4219 42.6337C20.7295 42.673 20.5788 42.7592 20.8711 42.7956C21.1863 42.8349 21.1056 42.8183 21.3447 42.9257C21.5122 43.0013 21.7055 42.965 21.8685 43.0437C22.3192 43.2601 22.6709 43.0997 22.7668 43.3705C22.8156 43.5098 22.7912 43.7428 22.846 43.8941C22.8826 43.9955 22.8978 43.9501 22.9343 44.0908C22.9998 44.3496 22.945 44.6794 23.0592 44.9124C23.1597 45.1197 23.1292 45.1409 23.1582 45.3966C23.2054 45.8264 23.3028 45.725 23.3333 46.4861C23.3424 46.7191 23.3744 46.7691 23.4596 46.931C23.5388 47.0808 23.5145 47.3426 23.519 47.5317C23.5282 47.9221 23.6013 47.7284 23.6698 47.9478C23.7261 48.1324 23.6683 48.3488 23.7383 48.5349C24.0154 48.7301 25.4574 48.6348 25.9355 48.6348C26.3984 48.6348 27.9348 48.6953 28.2743 48.6166C28.6474 48.5319 28.4403 48.0522 28.5986 47.7904C28.6976 47.627 28.6885 47.5514 28.6961 47.3047C28.7052 47.0036 28.6839 47.0036 28.8057 46.8069C28.958 46.5603 28.8423 46.0912 28.9428 45.7643C29.0311 45.4768 29.1057 45.0713 29.124 44.7324C29.0752 44.7521 29.1011 44.7884 29.1666 44.7702C29.2899 44.5493 29.2625 43.997 29.3432 43.7367C29.4833 43.2798 29.3402 43.1996 29.9508 43.1617C30.237 43.1436 30.2035 43.1375 30.4197 43.0361C30.5827 42.9605 30.805 43.0104 30.9618 42.9665C31.1156 42.9227 31.0395 42.9106 31.1263 42.8531C31.2161 42.794 31.2602 42.8092 31.3744 42.794C31.6257 42.7592 31.5374 42.676 31.8389 42.6246C32.1693 42.5686 32.0459 42.5202 32.2683 42.4596C32.3413 42.44 32.4373 42.4369 32.518 42.4067C32.6261 42.3643 32.6063 42.3371 32.7037 42.2962C32.8012 42.2554 32.8606 42.2675 32.9443 42.2296C33.0539 42.1797 33.0098 42.1615 33.1194 42.1131C33.1925 42.0798 33.2869 42.0738 33.3615 42.0481C33.5123 41.9951 33.43 41.9981 33.5488 41.9376C33.6889 41.8665 33.7437 41.8831 33.9158 41.7802C33.9234 41.7757 33.9325 41.7696 33.9401 41.7651L34.936 41.2249C35.0304 41.172 35.1111 41.1689 35.2344 41.1599C35.3075 40.8724 35.2968 41.0706 35.51 40.9389C35.7049 40.8194 35.9501 40.4593 36.2485 40.7059L36.4997 40.9056C36.6916 41.0675 36.7738 40.8784 36.8073 41.1583L37.2443 41.352C37.4316 41.4201 37.3067 41.3823 37.427 41.4746C37.5047 41.5351 37.5595 41.5472 37.6341 41.6032L37.8107 41.7318C37.8184 41.7379 37.826 41.7439 37.8336 41.75L37.8823 41.815C37.9341 41.8846 37.8519 41.8347 37.9615 41.8967C37.995 41.9149 38.0011 41.9073 38.0681 41.9437C38.1092 41.9664 38.1488 42.0012 38.1823 42.0223C38.2493 42.0647 38.33 42.0889 38.4046 42.1328C38.4838 42.1797 38.4792 42.1918 38.5919 42.2569L38.8675 42.4581C38.8766 42.4642 38.904 42.4823 38.9116 42.4884C38.9177 42.4929 38.9269 42.5005 38.9329 42.505C38.939 42.5096 38.9482 42.5171 38.9543 42.5217L39.0593 42.6004C39.1461 42.6579 39.2055 42.7668 39.2984 42.7986L39.9212 43.189C40.078 43.2495 40.0567 43.3009 40.1891 43.3721C40.1968 43.3766 40.2074 43.3796 40.215 43.3857C40.2226 43.3902 40.2333 43.3948 40.2409 43.4008C40.2424 43.4008 40.2988 43.4462 40.3079 43.4523C40.6962 43.7488 40.9809 43.2692 41.2443 43.0256L42.7229 41.5548C42.7838 41.4837 42.8036 41.4852 42.8751 41.4065C42.9254 41.349 42.9726 41.293 43.0365 41.2295C43.1507 41.116 43.2406 41.0267 43.3548 40.9132C43.9425 40.3231 43.9212 40.3337 43.4888 39.7753C43.2801 39.5045 43.0502 39.0838 42.8599 38.7888C42.8294 38.7418 42.8371 38.76 42.7944 38.7116L42.4457 38.2365C42.2295 37.9822 42.0788 37.6433 41.8778 37.3861L41.4865 36.802C41.4392 36.7203 41.4225 36.631 41.3585 36.569L41.2794 36.4933C41.153 36.3375 41.1164 36.2164 41.0373 36.0908C40.917 35.8971 40.9474 36.1544 40.9033 35.8684C40.8408 35.4674 41.0586 35.714 41.0769 35.3055C40.9337 35.4296 40.7967 35.6248 40.719 35.7897L40.7906 35.994C40.8606 36.1665 41.0555 36.4131 41.1621 36.6038C41.1971 36.6643 41.2078 36.687 41.2474 36.7415L43.539 40.0522C43.5816 40.1324 43.5618 40.1355 43.6106 40.2051C43.6669 40.2868 43.6684 40.2172 43.7095 40.3352C43.5755 40.603 43.0655 41.0297 42.8492 41.2552C42.5752 41.5412 42.2402 41.8181 41.9783 42.1207C41.8291 42.2932 41.6935 42.4263 41.523 42.5762C41.2794 42.7895 41.1088 43.0089 40.8896 43.2313C40.684 43.4402 40.6612 43.5294 40.4054 43.3539L39.3684 42.6367C39.2481 42.5489 39.1948 42.5807 39.0898 42.4975C38.7335 42.2115 38.3178 41.9633 37.9524 41.697L37.0753 41.0797C36.9002 40.9783 36.1724 40.4078 36.0247 40.4139C35.9805 40.4154 35.0852 41.0222 34.8903 41.0948L34.1396 41.4988C33.9812 41.5714 34.1015 41.5412 33.9767 41.6093C33.9142 41.6441 33.8412 41.6577 33.7711 41.6879C33.6554 41.7379 33.7117 41.7409 33.5945 41.7893C33.4925 41.8317 33.4544 41.8135 33.3615 41.8604C33.2702 41.9073 33.3052 41.9225 33.1803 41.9754L32.7844 42.1434C32.6992 42.1797 32.6413 42.1782 32.5576 42.216L32.119 42.3915C31.9059 42.446 31.915 42.5338 31.7018 42.561C31.5998 42.5746 31.5282 42.558 31.4369 42.5943C31.347 42.6306 31.3912 42.6427 31.274 42.6881C31.1171 42.7471 30.9572 42.7305 30.7882 42.8031C30.5537 42.9045 30.6223 42.8606 30.336 42.9151C30.1883 42.9438 30.0573 43.0361 29.8822 43.0709C29.6995 43.1088 29.5473 43.1042 29.4011 43.1617C29.2717 43.2782 29.1864 43.9607 29.1666 44.1816C29.1468 44.4025 29.127 44.3072 29.0707 44.4479C28.99 44.6476 28.9915 44.9412 28.9595 45.1833C28.926 45.4405 28.8286 45.4859 28.8103 45.8203C28.792 46.132 28.7463 46.2485 28.6763 46.5058C28.6139 46.7328 28.6474 47.0006 28.588 47.22C28.5545 47.3441 28.5149 47.3789 28.4875 47.5287C28.4509 47.7314 28.4266 48.3609 28.2423 48.4714C28.0627 48.5788 28.1038 48.5137 28.1022 48.5137L24.4783 48.5062C24.2408 48.5062 23.988 48.5788 23.8769 48.3442C23.8007 48.1808 23.7703 48.0568 23.7596 47.8691L23.4886 46.4982C23.4307 46.3136 23.3927 46.0836 23.3652 45.8536C23.3378 45.6161 23.2617 45.433 23.2252 45.1561C23.1947 44.92 23.1536 44.69 23.0988 44.4661C23.0394 44.2315 23.0775 43.944 23.0211 43.711C22.9678 43.4901 22.8841 43.3357 22.843 43.1133C22.6785 43.0815 22.5476 43.0861 22.3801 43.0573C22.2217 43.0301 22.24 42.9786 21.7664 42.909C21.535 42.8758 21.704 42.8984 21.5974 42.8213C21.3964 42.673 21.3614 42.8077 20.8315 42.5822C20.6823 42.5187 20.5666 42.5686 20.4295 42.4899C20.2164 42.3689 20.4356 42.4037 20.093 42.3507C19.8646 42.3159 19.921 42.2599 19.7337 42.213L19.3606 42.0662C19.2099 41.9785 19.1429 42.0314 18.9982 41.9361C18.8094 41.812 18.8947 41.8831 18.6633 41.7878L17.6705 41.2809C17.4025 41.1841 17.2639 40.9874 16.9853 40.948ZM5.76174 39.223L5.89269 39.2124C5.93837 39.0763 5.93075 39.0641 6.01602 38.9628C6.06627 38.9022 6.04495 38.9355 6.10129 38.8614C6.12565 38.8296 6.12413 38.8266 6.15154 38.7948C6.43628 38.4725 6.14393 38.7585 6.47282 38.3333C6.48653 38.3167 6.48957 38.3091 6.52155 38.2682C6.69208 38.0519 6.70274 37.9505 6.91896 37.6584C6.97073 37.5873 7.00575 37.5132 7.05143 37.4526C7.05752 37.4466 7.06361 37.4375 7.0697 37.4315L7.10929 37.3951C7.11386 37.3891 7.12452 37.383 7.12909 37.3785L7.39555 37.0698C7.47626 36.8519 7.39555 36.9911 7.52041 36.8398C7.52498 36.8338 7.53259 36.8277 7.53716 36.8217C7.59959 36.7384 7.5463 36.7975 7.59655 36.7021C7.6407 36.6174 7.58741 36.7082 7.62548 36.6507L8.15536 35.9062C8.28174 35.7246 8.06096 36.0258 8.18886 35.8654C8.22845 35.8169 8.28631 35.8714 8.19648 35.6898L8.13252 35.5173C8.06096 35.2646 8.04269 35.4371 7.95742 35.2117C7.76099 34.6881 7.90108 35.2162 7.73815 34.7593C7.67116 34.5731 7.67116 34.7199 7.57675 34.5247L7.36053 33.986C7.30267 33.8514 7.27831 33.921 7.22502 33.75L6.89764 32.9193C6.84892 32.8164 6.85349 32.7316 6.81694 32.6257C6.77583 32.5062 6.72406 32.4699 6.68904 32.3488C6.65554 32.2353 6.6662 32.1279 6.63727 32.0174L6.38451 31.5332C5.97643 31.506 5.94902 31.5257 5.63079 31.3865C5.41762 31.2942 5.07197 31.335 4.85575 31.2896L3.4412 30.9885C3.11078 30.9613 2.9844 30.9219 2.71793 30.8493C2.49258 30.7873 2.16978 30.8054 1.96574 30.7403C1.55157 30.6087 1.71298 30.6541 1.25618 30.6011C1.03235 30.5754 0.744563 30.4755 0.581638 30.3999L0.583161 21.4905C0.829832 21.374 1.10543 21.2923 1.37495 21.2741C1.72973 21.2499 1.88504 21.141 2.16978 21.1047C2.84127 21.0214 2.35706 21.1183 2.98897 20.9412C3.30568 20.852 3.24782 20.9533 3.81273 20.796L4.65019 20.6341C4.89991 20.5856 5.3156 20.5554 5.51202 20.5009C5.66581 20.4585 5.69017 20.4313 5.9003 20.3995C5.981 20.3874 6.28553 20.3738 6.34492 20.3511C6.47282 20.3027 6.64031 19.8714 6.66772 19.705C6.70883 19.4523 6.75756 19.5037 6.81542 19.3358C6.86871 19.1799 6.82912 19.1164 6.92505 18.956C7.03164 18.7789 6.97987 18.7729 7.05143 18.5943C7.11691 18.4294 7.14279 18.5217 7.20522 18.2705L7.50519 17.5972C7.58284 17.4671 7.56609 17.3778 7.6407 17.2461C7.68943 17.1584 7.68029 17.2113 7.73511 17.0751C7.76556 16.9995 7.7549 16.9934 7.79906 16.9163C7.84322 16.8391 7.85692 16.8527 7.90108 16.7589C8.01223 16.5244 8.11882 16.364 8.12186 16.2021C8.12795 15.9176 7.7549 15.4803 7.56609 15.2624C7.34987 15.0143 7.14431 14.6133 7.07275 14.5346C7.06666 14.527 7.02098 14.4831 7.01337 14.4756C6.97834 14.4438 7.00728 14.4529 6.93266 14.4135C6.94941 14.7631 6.96312 14.6496 7.07732 14.7737C7.21436 14.9219 7.31333 15.046 7.33313 15.2685L7.46712 15.3532C7.47321 15.3592 7.4793 15.3683 7.48539 15.3759L7.80515 15.8087C7.85083 15.8828 7.83408 15.8949 7.87672 15.9645C8.00614 16.1733 8.02137 15.901 8.02746 16.2929C7.96808 16.3201 7.91631 16.3458 7.85844 16.3806C7.83713 16.7831 7.81124 16.5788 7.71227 16.7861C7.67116 16.8724 7.68943 16.9072 7.64832 16.9889C7.58436 17.116 7.5935 16.998 7.52498 17.1599C7.48235 17.2613 7.37728 17.6819 7.21283 17.7924C7.21131 17.7939 7.15345 17.8242 7.14432 17.8332L7.12909 18.1207C6.92505 18.2388 6.9616 18.3159 6.93876 18.6155C6.89155 18.7154 6.85501 18.6503 6.80324 18.7487C6.76365 18.8243 6.78192 18.8894 6.75299 18.9893C6.70122 19.1769 6.75908 19.0105 6.62813 19.1739C6.50936 19.3237 6.62661 19.2768 6.56723 19.6233C6.5322 19.8306 6.52459 19.711 6.46825 19.8366C6.35558 20.0833 6.51393 20.0681 6.23985 20.2089C5.93837 20.3632 5.58511 20.2225 5.26535 20.3935C5.07197 20.4979 5.04152 20.457 4.79028 20.4812C4.50554 20.5085 4.47204 20.5009 4.29846 20.5856C4.01677 20.7233 3.62544 20.5766 3.3407 20.7521C3.08337 20.9095 2.79864 20.7733 2.56262 20.8504C2.38599 20.9079 2.5611 20.8852 2.39817 20.9654C2.14389 21.091 2.11953 20.8898 1.40997 21.147C1.07498 21.2681 0.692792 21.1001 0.473529 21.3664C0.341057 21.5268 0.408055 23.2488 0.408055 23.5696C0.408055 24.5486 0.369988 29.9989 0.420236 30.4831C0.459825 30.5088 0.484188 30.5134 0.539004 30.5467C0.724768 30.6571 0.69736 30.6677 0.998848 30.6813C1.57441 30.7055 1.3384 30.763 1.63075 30.8342C1.83174 30.8826 2.12866 30.8463 2.34793 30.9038C2.65855 30.9855 2.39665 31.0278 3.02247 31.0505C3.61631 31.0732 3.41531 31.1277 3.69548 31.1837C3.91627 31.2276 4.22233 31.2155 4.41266 31.2896C4.65933 31.3849 4.77962 31.3713 5.0674 31.4167C5.42523 31.4727 5.29123 31.562 5.72215 31.5801C6.45607 31.6119 6.33883 31.6543 6.45912 31.9932C6.51546 32.1491 6.53677 32.0931 6.57788 32.2807C6.60681 32.4124 6.60225 32.4805 6.64945 32.5909C6.6997 32.7089 6.71797 32.7377 6.76822 32.886C6.82456 33.0555 6.86871 33.0464 6.91592 33.1387C6.99662 33.296 6.89155 33.2446 7.06818 33.5896L7.73968 35.1254C7.91631 35.4129 7.77774 35.3902 7.91631 35.5446C8.02289 35.6641 7.95285 35.4735 8.01985 35.6808C8.00919 35.9894 8.01832 35.7322 7.89651 35.9047C7.83865 35.9879 7.85083 36.0318 7.76252 36.1453L7.48691 36.5886C7.34074 36.8338 7.22349 36.8837 7.12757 37.1349L7.03164 37.2847C6.92657 37.4118 6.98596 37.3861 6.92201 37.4829L5.87441 38.9355C5.80894 39.0611 5.7861 39.108 5.76174 39.223ZM21.3599 9.09332C21.5898 9.09937 21.5365 9.06306 21.7238 9.01161C21.8304 8.98135 21.9964 8.99043 22.1227 8.95411C22.2278 8.92385 22.3116 8.86181 22.4516 8.83457C22.8902 8.75135 22.7592 8.84971 22.8993 8.46083C22.9374 8.35339 22.9861 8.32465 23.0166 8.17787C23.0683 7.92971 23.0272 7.69518 23.1033 7.43643C23.178 7.1792 23.1993 7.02637 23.2297 6.73887C23.2663 6.39236 23.3302 6.3273 23.3774 6.0625L23.4992 5.40125C23.5586 5.15764 23.5662 4.94731 23.6119 4.69461C23.6622 4.41468 23.7337 4.37232 23.7642 4.02883C23.7855 3.79127 23.8266 3.56278 23.9423 3.40088C24.4524 3.32219 25.5442 3.38423 26.1167 3.38423C26.4593 3.38423 28.087 3.31463 28.2499 3.42811C28.285 3.47653 28.2576 3.42963 28.2834 3.50982L28.4448 4.19982C28.4829 4.50396 28.588 4.67494 28.6169 4.9927C28.6276 5.11981 28.6428 5.3029 28.6763 5.42395C28.7189 5.57678 28.757 5.59191 28.7859 5.79164C28.8072 5.93993 28.7966 6.09881 28.8286 6.24407C28.8575 6.37723 28.9077 6.50736 28.9397 6.65716C29.0006 6.94617 28.9488 7.23972 29.0691 7.49847C29.2168 7.81623 29.057 7.84649 29.2914 8.50471C29.3965 8.80128 29.3904 8.76043 29.7269 8.82398C29.9173 8.8603 29.9553 8.91931 30.0711 8.95563C30.2203 9.00102 30.3543 8.9753 30.5233 9.03128C30.709 9.09181 31.1735 9.17957 31.2861 9.24464L31.6561 9.35812C31.8449 9.39746 31.8312 9.45194 32.0018 9.50036C32.052 9.51398 32.1403 9.52608 32.1845 9.54424C32.3627 9.61536 32.2028 9.5624 32.3337 9.65318C32.4677 9.747 32.5697 9.67286 32.719 9.7591L33.0509 9.90437C33.2991 9.97397 33.0874 10.0103 33.3965 10.0769C33.6752 10.1374 33.5397 10.1525 33.7437 10.2282C34.1716 10.3886 34.1975 10.4915 34.3573 10.5792L34.6162 10.7003C34.7806 10.8138 34.9177 10.8153 35.1644 11.015C35.3014 11.1255 35.3379 11.1134 35.4735 11.186C35.609 11.2586 35.4795 11.2238 35.6181 11.3025C35.6973 11.3464 35.8069 11.357 35.8785 11.4236C35.8815 11.4266 35.9211 11.4795 35.9379 11.4947C36.1815 11.6006 36.3871 11.2949 36.5561 11.1905C36.6977 11.1028 36.8667 11.0362 36.9976 10.9242C37.1286 10.8123 37.2154 10.7154 37.4011 10.6171C37.6158 10.5036 37.7818 10.3296 37.9965 10.2357C38.1016 10.1904 38.0468 10.2206 38.1259 10.1465C38.1777 10.098 38.1259 10.1389 38.1823 10.092C38.2249 10.0572 38.2264 10.0617 38.2706 10.0284L39.1294 9.46404C39.3547 9.2976 39.5801 9.09937 39.8237 8.96773C40.0384 8.85122 40.1983 8.70142 40.4008 8.5728C40.5043 8.50622 40.4647 8.51227 40.5515 8.46385L40.6931 8.57431C40.9855 8.8028 42.0666 9.86049 42.2798 10.0875C42.4792 10.3008 42.3711 10.2494 42.6376 10.4794L42.8721 10.7336C43.1203 10.9848 43.5466 11.2813 43.7019 11.5855L42.5203 13.318C42.4457 13.4103 42.4518 13.4436 42.3909 13.5268L41.8808 14.2471C41.8397 14.3182 41.6692 14.4589 41.6007 14.7797L41.7362 14.7616C41.7742 14.6965 41.7773 14.6541 41.823 14.5875L42.3102 13.9566C42.362 13.8839 42.4259 13.7024 42.528 13.5737C42.5965 13.4875 42.4259 13.5208 42.6954 13.4754C42.7152 13.1909 42.7959 13.1682 42.9238 12.9655L43.2741 12.4495C43.3365 12.3602 43.2817 12.4359 43.3426 12.3678L43.6365 11.9199C43.7963 11.6657 43.9364 11.5204 43.6365 11.2692C43.271 10.9636 42.9528 10.605 42.6391 10.2478L42.1793 9.78029C42.1701 9.77424 42.1442 9.75154 42.1366 9.74549C41.963 9.59871 41.8153 9.36266 41.6235 9.25523C41.4773 9.17352 41.4393 9.12964 41.4195 8.92688L41.0616 8.64846C41.054 8.64089 41.0342 8.61668 41.0281 8.60912L40.8561 8.36853L40.2942 8.35945C40.2516 8.58491 40.2287 8.49412 40.0201 8.65754C40.0125 8.66359 40.0049 8.67115 39.9973 8.67569C39.9151 8.73168 39.9105 8.70747 39.8328 8.74379C39.7567 8.7801 39.7902 8.76951 39.7323 8.81793C39.7263 8.82247 39.7186 8.83155 39.7125 8.83609L39.6684 8.86938C39.5892 8.9299 39.4994 9.02069 39.3197 9.09181C39.2177 9.13266 39.0852 9.29911 38.9817 9.37477L38.8203 9.45345C38.6482 9.51851 38.6345 9.57601 38.6254 9.58207L38.1092 9.9195C38.0696 9.95581 38.1138 9.92101 38.0437 9.97246C37.9082 10.0693 38.0407 9.94371 37.9219 10.0663L37.2672 10.5384C37.1134 10.6352 37.223 10.6201 37.022 10.7048L36.5271 10.9999C36.4419 11.0544 36.3079 11.0816 36.2576 11.1633L36.2272 11.2178C36.1419 11.3661 35.845 11.2269 35.7841 11.1769C35.6151 11.0422 35.4247 10.9878 35.2481 10.8501C35.0852 10.723 34.9847 10.723 34.869 10.6337L34.269 10.3492C34.0345 10.2902 34.2675 10.2539 33.8701 10.151L33.4696 9.9664C33.363 9.9195 33.4575 9.92252 33.2915 9.84384L33.0281 9.70615C32.9306 9.62444 32.8316 9.64411 32.6992 9.59115C32.5789 9.54424 32.6261 9.51851 32.518 9.47615C32.4434 9.4474 32.3337 9.4474 32.2652 9.42621C32.0566 9.36115 32.1297 9.28549 31.8861 9.25674C31.5298 9.21589 31.6348 9.14477 31.4414 9.09635C31.2267 9.04339 31.1628 9.11753 30.9633 8.99951C30.7654 8.88299 30.4532 8.93444 30.2401 8.82096C30.1655 8.78161 30.1243 8.76194 30.0269 8.74076C29.8579 8.70444 29.6675 8.71655 29.5001 8.66208C29.3889 8.49714 29.4437 8.31708 29.3721 8.1234C29.2321 7.7436 29.296 7.56353 29.2138 7.23367C29.1818 7.10505 29.1453 7.09597 29.1163 7.0067C29.06 6.84025 29.0661 6.54368 29.0448 6.35605C29.0143 6.08519 28.923 6.08973 28.8956 5.83401C28.8727 5.61914 28.8834 5.39823 28.8103 5.21514C28.6946 4.9231 28.7372 4.62955 28.658 4.31784C28.6245 4.18317 28.591 4.21797 28.5514 4.05456C28.3276 3.14667 28.9488 3.27529 26.5385 3.27529C25.9233 3.27529 24.2027 3.18904 23.7733 3.34792C23.6789 3.62028 23.7155 3.88206 23.6013 4.18317C23.4962 4.45856 23.5525 4.79902 23.4566 5.0502C23.3226 5.39974 23.3896 5.55559 23.3074 5.92026C23.2008 6.39236 23.2145 6.12907 23.1384 6.76308C23.114 6.9719 23.0744 6.96282 23.0272 7.11716C22.9831 7.25788 22.98 7.41525 22.9663 7.57261C22.9343 7.94031 22.8445 8.07498 22.7958 8.43359C22.7394 8.84971 22.4379 8.63333 22.1273 8.75589C21.9872 8.81036 21.9659 8.86332 21.7634 8.89359C21.535 8.92688 21.4497 8.90267 21.3599 9.09332ZM21.1924 1.91648C21.3005 1.85445 21.3279 1.76971 21.3523 1.6305C21.3964 1.38386 21.4071 0.681759 21.6949 0.628799C21.9888 0.574326 27.7947 0.621234 28.3261 0.621234C28.8879 0.621234 30.1198 0.556169 30.6025 0.637878C30.8187 1.09485 30.7471 1.71221 30.9161 2.04208C31.0151 2.23424 30.9755 2.55352 31.0471 2.76384C31.1369 3.02864 31.1445 3.17693 31.1765 3.49621C31.2039 3.76252 31.312 3.93956 31.3333 4.20587C31.3592 4.5312 31.3592 4.6583 31.4658 4.92613C31.5511 5.14099 31.5115 5.43605 31.5846 5.66303C31.6881 5.9823 31.6729 6.04434 31.7262 6.41809C31.8876 6.51039 32.1266 6.57394 32.3063 6.62539C32.5164 6.6844 32.3992 6.71163 32.5484 6.77973C32.7129 6.85538 32.8301 6.75552 32.9656 6.90229C33.0539 6.99762 33.0935 6.98703 33.2397 7.0067C33.3067 7.01578 33.2747 7.00518 33.3463 7.02637C33.4422 7.05512 33.3859 7.03999 33.4529 7.07933C33.6097 7.17012 33.7209 7.1565 33.864 7.2261C33.9249 7.25637 33.9447 7.30327 34.0117 7.33656C34.2553 7.45307 34.1807 7.25334 34.3619 7.52419C34.8553 7.5484 34.6908 7.60439 34.8705 7.67853C34.9497 7.71182 35.0486 7.7088 35.1324 7.73452C35.2557 7.77235 35.2283 7.79353 35.3547 7.85103C35.4917 7.91458 35.446 7.85708 35.5587 7.93728C35.8739 8.16274 35.9851 8.15215 36.3033 7.9282C36.4114 7.85254 36.5865 7.75722 36.6794 7.65584C36.7738 7.55294 36.6931 7.58623 36.821 7.51965L37.153 7.31992C37.1606 7.31538 37.1697 7.30781 37.1758 7.30327L37.2976 7.20643C37.3037 7.20189 37.3144 7.19735 37.3204 7.19281C37.3281 7.18827 37.3372 7.18373 37.3448 7.1792L38.3589 6.51039C38.4624 6.44835 38.5096 6.45894 38.5995 6.40295L38.8659 6.21986C38.901 6.19717 38.9208 6.17144 38.971 6.13664C39.0426 6.08671 39.0943 6.07914 39.1644 6.03072C39.274 5.95658 39.1994 5.96868 39.3502 5.88395C39.5177 5.78862 39.6562 5.73263 39.7856 5.60855L40.5013 5.12435C40.5089 5.11981 40.5165 5.11224 40.5226 5.1077L40.9246 4.85501C40.9322 4.86257 40.9413 4.8656 40.9444 4.88073C40.9596 4.94731 41.0494 4.97606 41.1073 5.02448L41.3388 5.24086C41.3403 5.24237 41.3936 5.29079 41.3997 5.29533L42.6102 6.51644C42.6163 6.52249 42.6239 6.53006 42.63 6.53611L43.1401 7.03847C43.1462 7.04453 43.1766 7.08084 43.1918 7.09749L43.5085 7.41676C43.5146 7.42281 43.5207 7.43189 43.5253 7.43794L44.4419 8.308C44.5592 8.42451 44.4526 8.38668 44.6353 8.41695C44.6399 8.32918 44.6338 8.34432 44.5896 8.28076L44.3582 8.05228C44.3521 8.04774 44.3445 8.04017 44.3384 8.03412C44.3323 8.02958 44.3232 8.02202 44.3186 8.01748L43.6456 7.38498C43.6395 7.38044 43.6319 7.37288 43.6273 7.36834L43.1111 6.80394C43.0518 6.7419 42.9375 6.62539 42.8629 6.56032C42.6239 6.35302 42.429 6.09579 42.1762 5.89908C41.9615 5.73263 41.7895 5.45119 41.5489 5.2575C41.5382 5.24994 41.4895 5.21211 41.488 5.2106C41.4195 5.14553 41.4697 5.17126 41.386 5.09106C41.325 5.03205 41.3266 5.05172 41.2565 4.98968C41.252 4.98514 41.2428 4.97757 41.2383 4.97303L41.0297 4.74152C40.7358 4.73396 40.7297 4.83836 40.5531 4.97152L40.3414 5.08803C40.0628 5.19395 39.8298 5.44665 39.5694 5.59947L39.3304 5.73566C39.2542 5.80224 39.3517 5.73566 39.2451 5.80375L38.9345 6.01408C38.6634 6.20624 38.6132 6.14875 38.4442 6.30914L38.1655 6.52249C38.0193 6.60269 37.9721 6.5921 37.9051 6.66473C37.9006 6.67078 37.893 6.67986 37.8884 6.6844L37.6752 6.85084C37.6676 6.85538 37.6585 6.86144 37.6509 6.86598L37.3783 7.04453C37.2854 7.10051 37.2839 7.07176 37.1986 7.12775L36.8941 7.34262C36.8789 7.35472 36.8484 7.38347 36.8286 7.39558C36.754 7.44248 36.7875 7.41525 36.7205 7.444C36.5698 7.50906 36.6718 7.46972 36.5698 7.57413C36.5637 7.58018 36.5561 7.58926 36.55 7.59531C36.4434 7.68761 36.2363 7.75419 36.0505 7.91458C35.813 8.12188 35.8221 7.87524 35.7186 7.82531C35.6074 7.77083 35.5526 7.83741 35.3806 7.74057L34.5964 7.36077C34.4594 7.27906 34.4183 7.30933 34.2964 7.24426C34.1472 7.16558 34.2447 7.12624 34.0619 7.08841C33.6919 7.01275 33.8884 7.00367 33.4468 6.89472C33.3143 6.86144 33.2656 6.79637 33.1697 6.76157C32.9991 6.69953 33.0174 6.77367 32.8697 6.64808C32.6794 6.48769 32.4799 6.57999 32.2804 6.45743C32.1114 6.35453 32.1449 6.41355 31.9789 6.34999C31.7445 6.2592 31.8175 6.00197 31.7612 5.75079C31.717 5.55257 31.6348 5.3725 31.6135 5.1304C31.5861 4.82928 31.5891 4.69764 31.4871 4.41922C31.4034 4.19376 31.4445 3.96982 31.3866 3.73377L31.0928 2.42944C31.041 2.18128 31.079 1.89984 31.0105 1.67892C30.907 1.34603 30.9024 1.46557 30.872 1.0313C30.8446 0.642418 30.808 0.683273 30.6497 0.44117C30.1183 0.377618 23.0851 0.427551 21.8045 0.426038C21.5289 0.426038 21.5015 0.456301 21.4315 0.545577C21.3903 0.598537 21.3858 0.609129 21.3675 0.668141C21.3173 0.843666 21.334 1.09182 21.3036 1.28853C21.264 1.54122 21.168 1.58359 21.1924 1.91648ZM33.9843 31.7874C33.9721 31.792 33.9538 31.7859 33.9478 31.8026L33.6691 32.0447C33.529 32.1733 33.3463 32.429 33.1468 32.6045L32.9108 32.7861C32.8195 32.8436 32.8286 32.8693 32.7631 32.9601C32.6109 33.172 32.3383 33.2749 32.2439 33.4398L32.0307 33.6547C31.9165 33.7258 31.9789 33.6774 31.8769 33.7606C31.8099 33.8166 31.8815 33.7666 31.8145 33.812L31.4277 34.0965C31.4201 34.1026 31.3958 34.1237 31.3866 34.1298C31.3349 34.1646 31.4034 34.1434 31.2861 34.1827C31.2146 34.207 31.1643 34.2009 31.0973 34.2266C30.9633 34.2781 31.0364 34.2781 30.9618 34.3371C30.8765 34.4037 30.7456 34.4112 30.6268 34.5217C30.5141 34.6276 30.6451 34.5383 30.4852 34.611C30.3664 34.6654 30.3923 34.6609 30.3147 34.7033C30.1152 34.8122 30.1274 34.7018 29.9416 34.8546C29.7513 35.0119 29.7467 34.8954 29.5625 34.9726C29.427 35.0301 29.5046 35.071 29.2366 35.1496C29.06 35.2011 29.0646 35.248 28.8956 35.2873C28.7463 35.3221 28.6017 35.3176 28.4494 35.3796C28.0657 35.537 27.9896 35.4523 27.5861 35.5279C26.8613 35.6656 26.505 35.6868 25.7071 35.6641C25.2777 35.652 25.1681 35.6384 24.7965 35.5673C24.5103 35.5128 24.1525 35.5385 23.9423 35.4175C23.7992 35.3342 23.7581 35.3358 23.5678 35.3116C23.481 35.301 23.4277 35.301 23.3439 35.2752L22.9556 35.133C22.7562 35.0649 22.9084 35.1133 22.7973 35.0331C22.68 34.9484 22.4319 34.9953 22.3329 34.8939C22.275 34.8349 22.3374 34.8833 22.2781 34.8395C22.2126 34.791 22.2613 34.8183 22.1547 34.788C21.835 34.6972 22.0466 34.7577 21.8837 34.6382C21.771 34.5565 21.7208 34.6095 21.599 34.5504C21.4893 34.499 21.5106 34.4718 21.2899 34.381C21.1954 34.3416 21.1894 34.2962 21.1132 34.2523C21.0782 34.2327 21.0173 34.2175 20.9792 34.1979L20.4554 33.8196C20.4463 33.812 20.4067 33.7697 20.3991 33.7621C20.3184 33.6804 20.2544 33.6758 20.1463 33.6153C20.0291 33.5503 19.9423 33.4262 19.8464 33.349L19.5449 33.0464C19.4413 32.9284 19.4413 33.0055 19.321 32.9011L18.7333 32.2489C18.61 32.0855 18.747 32.2716 18.7013 32.202L18.3679 31.8434C18.1638 31.6876 17.5289 30.7025 17.4147 30.3999L16.8376 29.0471C16.8345 29.035 16.833 29.026 16.8285 29.0154C16.8239 29.0048 16.8208 28.9957 16.8163 28.9851L16.7097 28.7717C16.6366 28.4858 16.3382 27.0226 16.3321 26.7759C16.3184 26.2297 16.3229 25.7152 16.3321 25.1705C16.3382 24.8179 16.4067 24.7786 16.4539 24.5365C16.5102 24.2353 16.4798 23.9025 16.5909 23.6225C16.6488 23.4757 16.6396 23.2942 16.6899 23.1625L16.7417 23.0748C16.8254 22.9446 16.8467 22.754 16.9107 22.5996C17.0218 22.3288 17.136 21.89 17.3005 21.6569C17.4299 21.4723 17.2913 21.5768 17.5076 21.2726L17.5715 21.1228C17.6263 20.9488 17.774 20.796 17.8958 20.6537L18.4958 19.8654C18.5475 19.7867 18.613 19.7277 18.6846 19.646L19.2525 19.015C19.3926 18.8652 19.3941 18.9847 19.4474 18.7608C19.2678 18.8183 19.1749 18.9484 19.0394 19.071C18.9967 19.1088 19.0043 19.1058 18.9632 19.1466L18.4151 19.7958C18.2948 19.9728 18.275 20.0772 18.0588 20.109C18.0329 20.4131 17.9765 20.2573 17.8669 20.4722L17.707 20.7233C17.6324 20.8565 17.7055 20.7597 17.6004 20.8535C17.468 20.9715 17.5471 21.032 17.4451 21.1727C17.3568 21.2953 17.3751 21.1924 17.3233 21.377C17.2837 21.5147 17.1787 21.6267 17.1223 21.7735C17.066 21.9217 17.1254 21.8037 17.034 21.9187C16.9289 22.0504 16.9701 22.0201 16.9548 22.2365C16.9031 22.3515 16.8376 22.2728 16.7995 22.4544C16.7584 22.6556 16.7858 22.7131 16.6625 22.8932C16.6305 22.9401 16.629 22.9431 16.6107 23.0157C16.5879 23.1126 16.5879 23.2563 16.5833 23.3834C16.5239 23.4122 16.4767 23.4394 16.4112 23.4667C16.4082 23.6634 16.4112 23.8692 16.4006 24.0644C16.3838 24.3821 16.3168 24.3519 16.2635 24.5758C16.2072 24.8149 16.2316 25.4913 16.23 25.7772C16.227 26.1737 16.2194 26.6095 16.2498 26.9802C16.2712 27.2359 16.2742 27.3161 16.3458 27.5219C16.4189 27.7307 16.4036 27.8275 16.4234 28.0878C16.4447 28.3617 16.5117 28.3329 16.5742 28.5191C16.6564 28.7612 16.5346 28.8232 16.699 29.032C16.8087 29.1697 16.7645 29.324 16.8574 29.4738C16.9213 29.5767 16.9122 29.5026 16.9564 29.6706C17.0218 29.9187 17.0751 29.8915 17.1436 30.126C17.2122 30.3651 17.2487 30.2577 17.3325 30.5346C17.3918 30.7282 17.4086 30.6375 17.4664 30.7298C17.535 30.8387 17.535 30.9658 17.6004 31.046C17.6431 31.0974 17.6431 31.0808 17.6796 31.1686C17.8014 31.4515 17.8562 31.3017 17.873 31.5953C18.1882 31.6255 17.9796 31.6119 18.0527 31.7239C18.1379 31.854 18.0207 31.7405 18.2186 31.8389L18.2476 32.0825C18.4516 32.2384 18.4699 32.202 18.6115 32.432L18.7181 32.5455C18.7242 32.5516 18.7318 32.5607 18.7379 32.5667L18.884 32.7029C18.8901 32.7074 18.9008 32.7135 18.9069 32.718L18.983 32.7997C18.9876 32.8058 18.9952 32.8149 18.9998 32.8209L19.117 32.9238C19.1231 32.9299 19.1307 32.9374 19.1353 32.9435L19.3576 33.1341C19.7322 33.4852 19.9469 33.6108 20.2544 33.8816C20.4387 34.0435 21.2975 34.5762 21.5213 34.6548C21.6949 34.7154 21.8015 34.8092 21.9888 34.8848C22.1304 34.9423 22.0786 34.9681 22.2248 35.0195L23.0348 35.2979C23.2571 35.4356 23.3805 35.3736 23.6408 35.4477L24.8057 35.7337C25.2853 35.7761 27.245 35.8366 27.6424 35.7065C27.915 35.6172 27.7825 35.6021 28.221 35.5794C28.6824 35.5552 28.5332 35.4568 28.7935 35.4084C28.9016 35.3887 28.993 35.3978 29.1011 35.3691C29.2808 35.3191 29.197 35.2949 29.3447 35.2419C29.4498 35.2041 29.5198 35.2192 29.6325 35.1587L30.3954 34.8334C30.5842 34.7502 30.4487 34.7335 30.6009 34.6821C31.041 34.5323 31.1826 34.3779 31.5465 34.1555C31.8784 33.9512 32.3048 33.6168 32.5956 33.3717C32.7266 33.2628 32.8179 33.1251 32.9595 33.0328C33.2199 32.8618 33.631 32.3413 33.8396 32.0689C33.9432 31.9342 33.9432 31.972 33.9843 31.7874ZM41.8808 33.7787L42.528 32.4971C42.5858 32.3186 42.598 32.3655 42.6498 32.2459C42.6954 32.14 42.6909 32.0568 42.7259 31.9403C42.7716 31.7905 42.8112 31.8041 42.8523 31.6513C42.9908 31.1217 43.0045 31.4061 43.0533 31.1277C43.1675 30.4786 43.1401 30.8326 43.2192 30.5436C43.2436 30.4559 43.2421 30.3257 43.2634 30.2107C43.2923 30.0534 43.3258 30.064 43.37 29.949C43.4172 29.8279 43.4583 29.436 43.4842 29.2786C43.8283 29.1818 44.2988 29.0577 44.6399 29.0441C45.1972 29.0214 45.0586 28.9639 45.2017 28.9049C45.3434 28.8459 45.6753 28.8701 45.8611 28.8383C46.0818 28.8005 46.1321 28.7188 46.3742 28.69C47.1599 28.5947 46.7716 28.5705 47.6015 28.4888C47.8618 28.4631 47.9456 28.3677 48.1374 28.3344C49.0252 28.1846 48.9033 28.7354 48.9033 26.2902C48.9033 25.8302 48.9033 25.3717 48.9033 24.9117C48.9033 24.5758 49.0145 23.7753 48.7907 23.6165C48.6506 23.5136 48.346 23.5696 48.1481 23.5121C47.7111 23.3865 47.271 23.3577 47.1766 23.3199C46.9193 23.2185 47.0487 23.2079 46.5874 23.1837C45.9783 23.1519 46.6087 23.0188 45.6174 22.9991C45.0373 22.987 45.3144 22.8659 44.9794 22.8402C44.716 22.8206 44.5165 22.8448 44.2988 22.757C43.5862 22.4695 43.8268 22.8871 43.5146 22.4892C43.3136 22.2335 43.5192 22.0549 43.3456 21.7992C43.1736 21.545 43.2923 21.6297 43.2223 21.3573C43.1736 21.1667 43.102 21.1939 43.07 20.9518C43.0304 20.6598 43.0837 20.7309 42.9467 20.5236C42.8477 20.3753 42.8873 20.2467 42.8127 20.0924C42.6224 19.6974 42.7366 19.8745 42.6589 19.6868C42.5721 19.4765 42.5873 19.7065 42.5051 19.2798C42.4473 18.9802 42.4473 19.2526 42.327 18.897C42.2858 18.7744 42.295 18.8138 42.2432 18.7184C42.1458 18.5368 42.2249 18.5611 42.0712 18.3326C41.9996 18.2267 42.0179 18.2524 41.9737 18.1298L41.4712 17.2598C41.4149 17.1614 41.4332 17.1342 41.3799 17.0479C41.3357 16.9753 41.3205 16.9965 41.2733 16.8951L41.0632 16.5047C40.9916 16.3428 41.0662 16.4003 40.8957 16.3488C40.9368 16.5516 41.1256 16.88 41.2337 17.0403C41.2352 17.0434 41.2702 17.0873 41.2809 17.1039L41.6661 17.8015C41.7727 17.974 41.6418 17.8559 41.8504 18.1797C41.9189 18.2872 41.8854 18.2887 41.9341 18.3961C41.9844 18.5111 41.9935 18.4688 42.0361 18.558C42.0742 18.6367 42.0772 18.732 42.1016 18.7956C42.164 18.9605 42.193 18.8486 42.2523 19.0543C42.3544 19.4099 42.2661 19.1678 42.362 19.3131C42.4655 19.4689 42.4138 19.5764 42.5066 19.7292C42.6437 19.9531 42.5675 19.8851 42.6589 20.1332C42.7183 20.2966 42.7959 20.2588 42.8218 20.5085C42.8568 20.8398 42.8675 20.7339 42.9482 20.9322C43.003 21.0683 42.9878 21.2484 43.0426 21.3952C43.1127 21.5813 43.137 21.4875 43.1781 21.7719C43.2086 21.9762 43.2604 22.0443 43.3091 22.2002C43.4218 22.5663 43.2634 22.6208 43.5664 22.7146C43.5847 22.7207 43.6715 22.7373 43.7141 22.7479C43.8709 22.7842 43.8892 22.816 44.0186 22.8508C44.2486 22.9129 44.5257 22.8947 44.7587 22.9431C45.083 23.0112 44.8256 23.0551 45.4713 23.0778C45.9479 23.0944 45.7743 23.1716 46.1123 23.2367C46.531 23.3169 46.2432 23.2125 46.7929 23.3713C47.067 23.45 47.2543 23.3925 47.8481 23.559C48.0309 23.6104 48.4435 23.5756 48.7846 23.7875C48.8394 24.0553 48.8409 27.764 48.7891 28.0636C48.6217 28.0984 48.5409 28.1075 48.407 28.1665C48.0217 28.3375 47.7659 28.1317 47.4248 28.3405C47.2848 28.4268 47.5071 28.3662 47.2695 28.4101C46.8036 28.4964 46.7868 28.3057 46.4656 28.5387C46.2981 28.6613 45.8352 28.6129 45.5794 28.6235C45.4865 28.7839 45.5702 28.7339 45.3586 28.7657C44.8317 28.8444 45.0891 28.6946 44.5135 28.9185C44.3414 28.9851 44.0887 28.9458 43.8801 28.9987C43.6486 29.0577 43.708 29.1137 43.3624 29.1485C43.2756 29.9232 43.3045 29.3891 43.1781 30.0882C43.1203 30.4059 43.0563 30.1729 42.9969 30.4438C42.9619 30.6042 42.9756 30.7963 42.968 30.9658C42.8218 31.0369 42.8249 31.0808 42.8036 31.2563C42.7624 31.5998 42.7533 31.4228 42.6559 31.6074C42.5965 31.7209 42.6345 31.8692 42.5858 32.0174C42.5249 32.2036 42.4823 32.0462 42.4396 32.3579C42.3985 32.656 42.3681 32.4911 42.2889 32.7014L42.1336 33.0297C42.0529 33.1689 42.1123 33.2204 41.9981 33.3823C41.896 33.526 41.8915 33.5321 41.8884 33.7621L41.8808 33.7787ZM19.9027 45.3028L19.956 45.3391C20.1539 45.5056 20.2468 45.4829 20.3884 45.5888C20.4098 45.778 20.4402 46.1971 20.4813 46.3484C20.5788 46.701 20.5864 46.6813 20.629 47.0929L20.9244 48.5576C20.9945 48.8088 20.9503 49.0857 21.0158 49.3323C21.1361 49.7832 21.095 49.3278 21.1772 50.0602C21.2122 50.3703 21.3142 50.4717 21.3492 50.7698C21.3629 50.8863 21.3797 51.0603 21.4117 51.1602C21.4376 51.2374 21.4497 51.2601 21.4878 51.3115C21.567 51.422 21.503 51.3705 21.6111 51.4205C21.7482 51.4795 29.8518 51.4916 30.6253 51.4432C30.9344 51.0195 30.8095 50.4748 30.9725 50.0269C31.0684 49.7651 31.0395 49.5306 31.1171 49.2809L31.4826 47.4122C31.7216 46.8568 31.5054 46.8886 31.7094 46.2939C31.781 46.0851 31.784 45.7855 31.8449 45.5419L32.5469 45.3119C32.6672 45.2499 32.5758 45.327 32.6581 45.2196C32.3642 45.2272 31.9119 45.3891 31.7338 45.4995C31.7033 45.6221 31.7049 45.7674 31.6805 45.9141C31.6577 46.0579 31.6105 46.1184 31.5754 46.247C31.5191 46.4574 31.5419 46.7903 31.4597 46.9885C31.3501 47.2533 31.3653 47.3955 31.3272 47.7087C31.2861 48.0492 31.1917 47.9478 31.1613 48.3866C31.1125 49.1069 31.0608 48.7982 31.006 49.1371C30.9572 49.4383 30.9999 49.6092 30.8887 49.8801C30.7989 50.0965 30.808 50.7032 30.5781 51.2888L21.6309 51.2858C21.2548 50.3431 21.5655 50.7547 21.2822 49.874C21.2061 49.6365 21.2594 49.352 21.1833 49.1144C21.1406 48.9783 21.0919 48.9662 21.0675 48.7891C21.0508 48.6605 21.0599 48.5183 21.0432 48.3912C21.0082 48.1309 20.9214 48.2202 20.8711 47.6981C20.8011 46.9839 20.7737 47.2926 20.7158 46.993C20.6595 46.707 20.6884 46.5164 20.5925 46.2501C20.5011 45.9989 20.5224 45.778 20.4828 45.492C20.3351 45.4012 20.1067 45.2695 19.9042 45.2847L19.9027 45.3028ZM51.163 30.6117C50.2509 30.6299 50.4778 30.7146 50.1108 30.7797C49.925 30.813 49.5566 30.8296 49.4043 30.8932C49.2505 30.9567 49.2962 30.9643 49.0647 30.9764C48.7846 30.99 48.5288 30.9446 48.346 31.0702C48.1329 31.217 47.9517 31.1534 47.6548 31.2079C47.3929 31.2563 47.3563 31.3471 47.0015 31.3668C46.8371 31.3759 46.7549 31.3698 46.627 31.4122C46.5249 31.447 46.4427 31.4954 46.3224 31.5136C46.0148 31.562 45.8413 31.4424 45.7225 31.6951C45.456 32.2641 45.6342 31.8934 45.5169 32.3095C45.4713 32.4714 45.4347 32.4457 45.389 32.5924C45.3449 32.7301 45.3738 32.7982 45.3053 32.9268C45.2063 33.1145 45.252 32.9238 45.1911 33.2249L44.9536 33.8045C44.8774 33.9331 44.8835 33.8892 44.8226 34.0799C44.7526 34.2947 44.7526 34.1949 44.678 34.3462C44.6247 34.4551 44.6292 34.5338 44.5698 34.6488L44.2851 35.1814C44.1922 35.4417 44.2135 35.2465 44.1252 35.4326C43.9166 35.8699 44.2653 36.0938 44.3567 36.3072L44.477 36.3299C44.4663 36.1044 44.4358 36.2452 44.3491 36.0333C44.3019 35.9198 44.3338 35.9758 44.2805 35.9002C44.2272 35.8215 44.2257 35.882 44.1968 35.7715C44.1572 35.6233 44.2349 35.5673 44.279 35.4992C44.3628 35.3691 44.3369 35.2919 44.4176 35.1905C44.4556 35.1421 44.445 35.1875 44.5044 35.0876C44.5973 34.9287 44.6932 34.6049 44.8378 34.3779L45.0343 33.9316C45.0541 33.8801 45.0678 33.8029 45.0815 33.7424C45.1348 33.5079 45.1439 33.6199 45.22 33.4912C45.2916 33.3702 45.2596 33.2855 45.3099 33.1583C45.3723 33.001 45.4134 33.057 45.453 32.8497C45.5139 32.5319 45.4362 32.7437 45.5596 32.5637C45.6646 32.4109 45.6129 32.2656 45.7027 32.0613L45.7621 31.9312C45.791 31.8465 45.8321 31.6951 45.8474 31.6225C47.0031 31.6225 46.7945 31.4697 47.1584 31.4349C47.3685 31.4137 47.6136 31.4364 47.8085 31.3728C48.2471 31.2291 47.6867 31.3259 48.3917 31.2321C48.8455 31.1716 48.6978 31.1217 48.9566 31.0884C49.1668 31.0611 49.5185 31.0808 49.6936 31.0384C49.9083 30.987 49.8443 30.9038 50.2341 30.8811C50.796 30.8463 50.6407 30.7933 50.8402 30.7373C51.332 30.5996 51.8238 30.9219 51.8253 30.2864L51.8238 22.9809C51.8238 22.5058 51.8421 21.9959 51.8238 21.5253C51.8086 21.1092 51.5117 21.2045 51.0929 21.1803C50.8447 21.1667 50.9391 21.1546 50.8112 21.0668C50.6696 20.9685 50.4199 21.0033 50.1961 20.9987C49.7926 20.9912 49.9494 20.861 49.5977 20.8383C49.383 20.8247 49.1074 20.8625 48.917 20.7808C48.8059 20.7324 48.85 20.7037 48.6582 20.6734C48.5516 20.6568 48.4283 20.6507 48.3217 20.6462C47.9106 20.628 48.008 20.5917 47.7355 20.5085C47.5208 20.4434 47.2802 20.4949 47.0503 20.4419C46.9178 20.4101 46.93 20.3738 46.7868 20.3329C46.5843 20.2739 46.2661 20.2997 46.1077 20.2603C45.9357 20.2179 46.0209 20.1877 45.8093 20.1559C45.8154 20.2785 45.724 20.2951 46.1169 20.336C46.7168 20.398 46.5006 20.4086 46.8584 20.4843C46.9833 20.5115 47.1279 20.516 47.265 20.5312L51.4264 21.3225C51.5452 21.3649 51.5908 21.4224 51.6959 21.4527C51.7629 21.89 51.7111 28.7127 51.7127 29.9111C51.7127 30.2274 51.8329 30.5845 51.163 30.6117ZM51.163 30.6117C51.8329 30.5845 51.7127 30.2274 51.7127 29.9111C51.7111 28.7127 51.7629 21.89 51.6959 21.4527C51.5908 21.4224 51.5452 21.3649 51.4264 21.3225L47.265 20.5312C47.1279 20.516 46.9833 20.5115 46.8584 20.4843C46.5006 20.4086 46.7168 20.398 46.1169 20.336C45.724 20.2951 45.8154 20.2785 45.8093 20.1559L45.4027 19.1103C45.3829 19.0256 45.3677 18.9787 45.3312 18.9136C45.3251 18.903 45.2931 18.8531 45.2855 18.8425C45.2779 18.8319 45.252 18.8016 45.2444 18.7926L45.1941 18.7396C45.1576 19.074 45.2657 18.9787 45.322 19.1996C45.3738 19.4054 45.3281 19.4447 45.4423 19.6112C45.5748 19.8049 45.5063 19.8397 45.5809 20.0212C45.6053 20.0803 45.6342 20.1226 45.6723 20.1907C45.7545 20.336 45.6783 20.2664 45.8062 20.3541L47.2573 20.6114C47.501 20.7233 47.3426 20.7339 47.9441 20.7521C48.442 20.7672 48.142 20.9337 48.6095 20.9458C49.4317 20.9654 48.981 21.0456 49.3343 21.0865C49.6083 21.1198 49.9068 21.0789 50.1199 21.1879C50.4184 21.3407 50.4991 21.2635 50.863 21.3059C51.1219 21.3362 51.0031 21.3664 51.1706 21.433C51.2802 21.4769 51.4218 21.4723 51.5452 21.4905C51.5954 22.9522 51.5589 24.485 51.5589 25.9558L51.5497 29.321C51.5497 30.8871 51.5726 30.244 51.2269 30.5406L51.163 30.6117ZM38.8218 45.7189L38.837 45.8445C38.9923 45.8748 39.6212 46.2909 39.7674 46.415C40.0491 46.6526 40.1252 46.6647 40.3521 46.8372C40.4328 46.8992 40.4114 46.9022 40.5013 46.9446C41.019 47.1867 40.9733 47.2276 41.3327 46.8478C41.7027 46.4574 42.3331 45.9036 42.5736 45.5797L42.7 45.4481C42.7503 45.3997 42.7761 45.3724 42.8294 45.3195C42.8629 45.2847 42.9056 45.2438 42.9421 45.2075L43.3395 44.8262C43.5177 44.7127 43.7172 44.4873 43.8511 44.3208L44.1222 44.0333C44.1283 44.0273 44.1359 44.0197 44.1405 44.0136L45.3814 42.8258C45.4636 42.7229 45.5246 42.6579 45.6113 42.5686L46.3925 41.8196C46.4854 41.7288 46.5234 41.6577 46.6254 41.5684L47.1523 41.0464C47.2178 40.9768 47.2147 40.9874 47.2771 40.9087C47.5177 40.6091 47.3974 40.6197 47.099 40.1339L45.8017 38.2183C45.7667 38.1653 45.7453 38.132 45.7073 38.0867L45.0571 37.1364C44.9734 36.9866 44.9475 37.0199 44.8637 36.8837C44.7069 36.6265 44.6475 36.4464 44.4435 36.3344C44.4465 36.569 44.4815 36.51 44.5805 36.6477L44.8028 36.9881C44.9155 37.2211 45.0891 37.3119 45.1682 37.5707C45.2292 37.7674 45.2017 37.6599 45.3327 37.7946L45.4027 37.8824C45.4225 37.9066 45.4697 37.9565 45.488 37.9853C45.5459 38.0776 45.5489 38.1638 45.6053 38.2395C45.6113 38.247 45.8565 38.5482 45.9296 38.7086C45.9813 38.8236 46.0179 38.8054 46.0834 38.928L46.4062 39.3426C46.4397 39.3849 46.4549 39.4182 46.4808 39.4545L46.6376 39.6724C46.6909 39.7572 46.6772 39.7239 46.7198 39.7784C46.8036 39.8858 46.7975 39.8964 46.8112 40.0613C46.9757 40.1778 46.9802 40.1703 47.1142 40.3518C47.1629 40.4169 47.169 40.4774 47.2162 40.5516C47.2726 40.6393 47.2695 40.5954 47.3335 40.6877L47.0305 41.0116C46.9315 41.1054 47.0305 41.0282 46.9239 41.0993L46.1275 41.9043C45.9387 42.1101 45.6936 42.2917 45.5291 42.4975L45.2048 42.8092C45.0799 42.9378 45.1561 42.9045 44.9307 43.0679L43.6562 44.3329C43.6045 44.3753 43.6167 44.3526 43.5892 44.3768C43.4979 44.4555 43.5953 44.3738 43.5131 44.4782L43.1035 44.864C42.9162 45.0305 42.7533 45.2847 42.5447 45.4587L42.327 45.6887C42.1214 45.9096 41.0769 46.9779 40.9322 47.0551C40.7403 46.9597 40.3825 46.7328 40.2942 46.533C40.1145 46.5194 40.078 46.4861 39.9547 46.3923C39.9044 46.3545 39.9257 46.3787 39.8846 46.3499C39.877 46.3454 39.8679 46.3393 39.8602 46.3348L39.5466 46.132C39.4095 46.0685 39.5039 46.0836 39.3669 46.0064L38.8553 45.7341C38.8492 45.7189 38.8324 45.7235 38.8218 45.7189ZM11.6377 4.98816C11.6544 5.2 11.656 5.10922 11.8204 5.21816L11.863 5.25145C11.8691 5.25599 11.8768 5.26507 11.8828 5.26961L15.2799 7.57261C15.3743 7.69366 15.2525 7.63465 15.3865 7.69972C15.4839 7.74814 15.4535 7.69669 15.5799 7.7784L15.8996 7.9857C16.2194 8.25958 16.2072 8.10221 16.6716 8.078C16.7767 7.78294 16.7264 8.0311 17.0721 7.79807C17.0797 7.79202 17.0888 7.78597 17.0964 7.78143C17.2304 7.70274 17.1604 7.80412 17.4771 7.6059L17.5822 7.55445C17.6339 7.5363 17.669 7.53781 17.7238 7.51057C17.8365 7.4561 17.774 7.44097 17.9232 7.37893L18.4288 7.18979C18.8597 7.12775 18.5719 7.0642 18.9023 7.00064C19.4703 6.89019 18.9845 6.89321 19.3698 6.8115C19.5114 6.78124 19.5129 6.79637 19.6317 6.73282C20.0565 6.50736 20.0504 6.77216 20.3854 6.47256C20.5925 6.28947 20.4707 6.22894 20.5209 5.9475C20.5559 5.7523 20.5803 5.8552 20.6397 5.7296C20.7097 5.5798 20.6458 5.04112 20.763 4.83685C20.9503 4.51001 20.8315 4.23462 20.9031 3.97739C20.9457 3.82304 20.9625 3.92443 21.0158 3.75798C21.0736 3.58397 21.0447 3.3116 21.063 3.11792C21.0858 2.88036 21.1711 2.77898 21.2046 2.58983C21.2426 2.37345 21.264 2.1253 21.2274 1.91194C21.2198 1.92102 21.2137 1.92102 21.2107 1.93918L21.0645 2.44608C20.9366 2.79562 21.0477 2.98022 20.8635 3.5991C20.8056 3.79429 20.7996 4.00613 20.7645 4.20587C20.7219 4.44797 20.6579 4.4737 20.6244 4.73093C20.591 4.98211 20.6062 5.1304 20.5392 5.36342C20.3717 5.94296 20.5042 6.27585 20.2027 6.39387C19.8342 6.53914 20.2072 6.46651 19.7185 6.57545C19.5936 6.60269 19.5586 6.64506 19.484 6.67683L18.6663 6.92347C18.4942 6.95979 18.5445 6.98097 18.441 7.03242C18.3283 7.08992 18.2415 7.07176 18.1364 7.10808C18.01 7.15196 18.0542 7.1686 17.9293 7.23216C17.841 7.27755 17.7725 7.28209 17.6872 7.32748C17.6187 7.3638 17.573 7.41979 17.4802 7.44853C17.0949 7.57413 17.3614 7.49696 16.9716 7.65886C16.8285 7.71787 16.8909 7.72998 16.7615 7.78748C16.6396 7.84195 16.6351 7.8011 16.5163 7.87978C16.3656 7.97965 16.5087 7.97965 16.224 7.98116C15.9925 7.92064 16.2072 7.99478 16.0686 7.88886L14.2293 6.6965C14.0542 6.60117 13.9567 6.46348 13.8258 6.39236L11.6377 4.98816ZM24.0093 19.2813C24.2408 19.2692 24.3489 19.2768 24.5194 19.1951C24.9412 18.9938 27.1704 18.9832 27.618 19.1587C27.8023 19.2314 27.883 19.2374 28.084 19.2904C28.3352 19.357 28.1525 19.3918 28.4768 19.4538C28.6976 19.4962 28.7144 19.5628 28.8758 19.6157C28.9565 19.643 29.0189 19.6384 29.092 19.6687L30.0665 20.2543C30.0741 20.2618 30.0954 20.2845 30.103 20.2921L30.1426 20.3284C30.5903 20.6855 31.1004 21.0229 31.4856 21.5646L32.2545 22.7419C32.3429 22.9643 32.5804 23.3305 32.6261 23.5196C32.757 24.0613 32.7327 23.5832 32.8347 24.1612C32.8682 24.3503 32.9139 24.4381 32.9519 24.6106C33.0372 24.9919 33.0539 27.0377 32.9687 27.3479C32.9032 27.5824 32.859 27.4841 32.8362 27.8351C32.9215 27.7806 32.8575 27.8518 32.9595 27.7247C32.9809 27.6974 33.0159 27.6233 33.0281 27.5764C33.1011 27.3237 33.0433 27.0392 33.1148 26.8395C33.2884 26.3507 33.2397 26.3462 33.229 25.6986C33.2138 24.7922 33.1818 25.3596 33.0935 24.9889C33.0402 24.7604 33.1011 24.4094 33.0387 24.2096C32.9717 23.9963 32.958 24.1899 32.9017 23.9781C32.8788 23.8964 32.8941 23.8676 32.8575 23.7723C32.824 23.6861 32.8042 23.6952 32.7753 23.6407C32.7174 23.5348 32.7342 23.4576 32.6931 23.3169C32.652 23.1761 32.6032 23.1792 32.5439 23.0157L31.6759 21.5601C31.6698 21.5556 31.6607 21.548 31.6546 21.5435L31.0745 20.9246C30.9968 20.8399 31.0486 20.8898 30.9603 20.8172L30.4867 20.4343C30.1 20.0182 30.1959 20.2225 29.8533 19.9758L29.4072 19.711C29.2732 19.6263 29.4041 19.6566 29.2031 19.5885C28.8209 19.4584 29.1681 19.4114 28.5347 19.3706C28.3839 19.1285 28.3733 19.2495 28.0672 19.192C27.8251 19.1466 27.988 19.0574 27.5678 19.0241C27.2678 18.9999 27.1993 19.0453 26.9633 18.9424C26.6725 18.8153 26.0192 18.8591 25.669 18.8637C25.2503 18.8682 25.4056 18.8985 25.1437 18.9862C24.9914 19.0377 24.7326 19.0059 24.5484 19.0559C24.4281 19.0876 24.3732 19.13 24.3032 19.1542C24.2469 19.1724 24.1829 19.1769 24.157 19.186C24.0109 19.2389 24.0778 19.1769 24.0093 19.2813ZM5.53182 28.6129L5.50288 28.4858C4.85118 28.4343 4.97909 28.4525 4.44768 28.2981C4.11878 28.2028 3.66655 28.2724 3.42902 28.0908C3.35288 27.8003 3.40465 26.3295 3.40465 25.9195C3.40465 23.5877 3.193 23.7224 4.07615 23.6271C4.59081 23.5711 4.53295 23.506 4.74612 23.4757C5.01868 23.4379 5.30342 23.4863 5.50136 23.391C5.77696 23.2594 5.80894 23.2881 6.14545 23.2563C6.67077 23.2064 6.4241 23.1353 6.80933 23.099C7.1565 23.0657 7.20218 23.0959 7.48844 22.984C7.86301 22.8372 8.3259 22.9719 8.74007 22.6859C8.74616 22.6829 8.75986 22.6783 8.76443 22.6647L8.81011 22.5936C8.81163 22.5875 8.8162 22.5754 8.81924 22.5679C8.82838 22.5376 8.83447 22.5073 8.84056 22.4786C8.92431 22.061 8.94867 22.1941 8.99892 21.9732C9.02785 21.8476 9.02785 21.7054 9.06135 21.5828C9.10703 21.4148 9.15575 21.4723 9.15271 21.2423C9.11464 21.262 9.02937 21.2136 8.98065 21.5283C8.95476 21.7023 8.96542 21.7432 8.89385 21.8809C8.81772 22.0307 8.82077 21.9808 8.79336 22.1881C8.73854 22.6178 8.76595 22.3772 8.70352 22.583L8.61064 22.6405C8.4873 22.6889 8.36854 22.6481 8.08075 22.7509C7.627 22.9129 7.55696 22.7313 7.0225 22.9628C6.89764 23.0173 6.78344 23.0052 6.63118 23.0233C6.33426 23.0566 6.21092 23.1368 5.92162 23.1761C5.49832 23.2321 5.59424 23.161 5.23946 23.3123C5.00954 23.4092 4.71262 23.3547 4.469 23.4122C4.18578 23.4788 4.17665 23.5469 3.77314 23.5665C3.39552 23.5847 3.32091 23.5832 3.31482 23.9826C3.31025 24.3246 3.27827 28.0137 3.34984 28.1665C3.43968 28.3571 3.79902 28.3133 4.02286 28.3511C4.33652 28.4056 4.17512 28.4389 4.75069 28.4994C4.95016 28.5206 5.44807 28.6174 5.53182 28.6129Z" fill="white"/>
</svg>
