<svg width="48" height="52" viewBox="0 0 48 52" fill="none" xmlns="http://www.w3.org/2000/svg">
<path fill-rule="evenodd" clip-rule="evenodd" d="M20.4479 41.3955C19.3801 41.3713 18.311 41.3994 17.2432 41.3994H5.20571C4.96799 41.3994 4.76754 41.3943 4.53625 41.3317C4.32808 41.2755 4.16232 41.3151 3.93231 41.2219C3.93488 41.2231 3.92717 41.2206 3.93231 41.2219C3.93231 41.2219 3.92075 41.2168 3.91946 41.2168C3.91047 41.2142 3.90276 41.2129 3.89377 41.2104C3.59051 41.1401 3.28598 40.9997 3.01485 40.8503L2.99815 40.8413L2.03957 40.1161L2.028 40.1046C2.02158 40.0982 2.01515 40.0918 2.00873 40.0854L1.99588 40.0726L1.22619 39.0281L1.21719 39.0102C1.06814 38.7255 0.971766 38.456 0.904948 38.1419C0.903663 38.133 0.901093 38.1253 0.899808 38.1164C0.883104 38.0934 0.868969 38.0679 0.857405 38.0398C0.746898 37.7793 0.743043 37.0885 0.743043 36.7845V12.8281C0.743043 11.3737 0.636392 10.1619 1.52044 8.9118C1.56285 8.85179 1.59883 8.81859 1.64509 8.76751C1.65151 8.75985 1.65922 8.75219 1.66564 8.74452C1.67335 8.73431 1.67978 8.72537 1.68749 8.71515C1.86738 8.47765 2.05756 8.24141 2.29913 8.06392C2.37237 8.01029 2.44433 7.95666 2.51243 7.89665C2.84652 7.60168 3.30397 7.42418 3.71259 7.25563C3.83851 7.20327 3.94516 7.19944 4.0698 7.16241C4.56451 7.01557 5.25968 7.05515 5.78394 7.05515H31.5924C31.6746 7.05515 32.0575 7.0909 32.1179 7.0411L32.7758 6.06936C33.0739 5.61733 33.3553 5.15381 33.6779 4.7171C33.7331 4.64176 33.7832 4.56897 33.8308 4.48853L34.5311 3.45549C34.6377 3.27162 34.7611 3.10562 34.8767 2.92812L35.2249 2.39692C35.2314 2.38926 35.2429 2.37266 35.2494 2.36628C35.2545 2.35989 35.2609 2.35223 35.2661 2.34585L35.3252 2.27945C35.3534 2.24369 35.3766 2.20411 35.4023 2.1658C35.6991 1.73803 36.1861 1.3243 36.6551 1.09573L37.0534 0.881211C37.3156 0.704995 37.4119 0.684564 37.7101 0.59901L38.1444 0.489195C38.4939 0.367887 39.1852 0.41641 39.563 0.429179C39.7223 0.435564 39.8212 0.487918 39.9613 0.501964C40.4483 0.551764 41.1807 0.895257 41.5906 1.16213C42.1239 1.50946 42.5878 1.97809 42.9501 2.50035C43.1801 2.83235 43.2714 3.20266 43.4718 3.53722C43.5759 3.7096 43.5618 3.89603 43.6183 4.07225C43.662 4.2076 43.6633 4.34679 43.6787 4.4847C43.7571 5.23298 43.6993 5.76418 43.4731 6.47798C43.4179 6.6542 43.3408 6.8253 43.2675 6.99386C43.2611 7.01046 43.2508 7.03217 43.2392 7.0577C43.3754 7.0577 43.5117 7.05515 43.6491 7.05898C43.928 7.06537 44.1773 7.10878 44.4471 7.18029C44.5062 7.19561 44.573 7.19817 44.6347 7.21221C44.9264 7.27989 45.7462 7.68212 45.9826 7.866C46.3399 8.14309 46.647 8.45594 46.9168 8.81859L46.9245 8.83008L47.2792 9.43534C47.3203 9.5209 47.3318 9.56814 47.355 9.64731L47.4655 9.91036C47.4937 9.93717 47.5169 9.97037 47.5323 10.01C47.5439 10.0406 47.5541 10.0738 47.5631 10.1045C47.8857 11.1477 47.7597 12.5332 47.7597 13.6275V35.3838C47.7597 36.1423 47.824 36.8893 47.6839 37.6414C47.6351 37.907 47.6274 38.1994 47.5156 38.4484C47.504 38.4752 47.4925 38.4969 47.4783 38.5212C47.4693 38.539 47.4629 38.5608 47.4565 38.5799C47.2869 39.0728 46.999 39.59 46.6238 39.9564C46.1741 40.3957 45.7937 40.7188 45.2091 40.9767C44.8364 41.1401 44.5165 41.2576 44.1079 41.3036L43.7712 41.3879C43.617 41.4147 43.3382 41.4057 43.1788 41.407C42.7548 41.4121 42.3321 41.4134 41.908 41.4147C40.6295 41.4185 39.351 41.4172 38.0724 41.4147C35.8482 41.4109 33.6239 41.4006 31.3996 41.4006C30.2766 41.4006 29.1522 41.3713 28.0292 41.3968C28.0523 41.5283 28.0973 41.6433 28.1165 41.8003C28.1255 41.8795 28.1525 41.9753 28.1718 42.0532C28.2078 42.2 28.2463 42.3468 28.2849 42.4937C28.3556 42.7644 28.4365 43.044 28.493 43.3173C28.5239 43.4654 28.5264 43.6238 28.5701 43.7668L28.6948 44.2329C28.7346 44.4282 28.7809 44.6287 28.8297 44.8228C28.8605 44.9428 28.9004 45.008 28.9184 45.1484C28.9338 45.2672 28.9569 45.317 28.9865 45.4293L29.088 45.8431C29.5429 45.8673 30.0157 45.8367 30.4693 45.8367C31.8249 45.8367 32.4135 45.7511 33.5596 46.5799C33.5661 46.5837 33.5725 46.5888 33.5802 46.5939C33.8346 46.7778 34.1289 47.1851 34.3126 47.4456C34.5812 47.8236 34.7328 48.6996 34.7341 49.1644C34.7341 49.2627 34.7302 49.3597 34.7238 49.4568C34.7238 49.4555 34.7238 49.458 34.7238 49.4568C35.2635 49.4504 35.8019 49.4466 36.3416 49.444C36.6615 49.4427 36.9815 49.4414 37.3014 49.4453C37.4723 49.4478 37.7229 49.4427 37.8887 49.4746C39.0181 49.6904 39.2263 51.2738 38.2523 51.8255C37.9401 52.003 37.7743 51.9672 37.4325 51.9672H13.0363C12.2396 51.9672 11.4416 52.003 10.6449 51.9634C10.5537 51.9583 10.492 51.9532 10.4047 51.9212L10.3905 51.9161L10.2479 51.8421C9.77888 51.5739 9.40624 50.9354 9.60798 50.3991C9.80715 49.8679 10.2235 49.467 10.8184 49.4606C11.7924 49.4504 12.7651 49.4593 13.7391 49.4606C13.7456 49.1478 13.7057 48.8311 13.7661 48.5182C13.7777 48.4557 13.7918 48.4059 13.8201 48.351C13.8239 48.3344 13.8265 48.3152 13.8291 48.2986L13.8329 48.2731L14 47.8261L14.0077 47.8108C14.018 47.7929 14.027 47.7763 14.0372 47.7585C14.0437 47.7457 14.0501 47.7316 14.0565 47.7176L14.0655 47.6997L14.6026 46.9093L14.6129 46.8978C14.8943 46.5722 15.2207 46.3475 15.5882 46.1304C15.7809 46.0167 15.9917 46.018 16.1908 45.9491C16.5776 45.815 17.1931 45.806 17.6043 45.8022C18.0836 45.7984 18.5629 45.8175 19.0409 45.8175C19.1103 45.8175 19.2966 45.8252 19.4058 45.8175C19.4109 45.7869 19.4161 45.755 19.4212 45.732C19.4456 45.6081 19.4778 45.4881 19.5189 45.3693C19.5536 45.2672 19.5561 45.1906 19.5741 45.0846C19.5934 44.9697 19.6332 44.8994 19.6628 44.796C19.7206 44.593 19.7476 44.381 19.7887 44.1741L20.0162 43.2598C20.0496 43.1615 20.0637 43.076 20.0791 42.9751C20.0984 42.8474 20.1434 42.7746 20.1704 42.6648C20.2346 42.3966 20.3014 42.1298 20.3592 41.8603C20.3824 41.7556 20.4222 41.5603 20.4479 41.3955ZM22.1608 45.2033C22.1402 45.317 22.1081 45.4306 22.0837 45.5187C22.0695 45.5736 22.0323 45.7039 22.0104 45.8099C22.0284 45.8099 22.0464 45.8099 22.0631 45.8099C22.234 45.8124 22.4049 45.8137 22.5758 45.815C23.0667 45.8175 23.5575 45.8162 24.0484 45.8162C24.8579 45.815 25.6764 45.7996 26.4859 45.8137C26.4589 45.7064 26.4127 45.5647 26.396 45.5098C26.3677 45.414 26.3227 45.3476 26.2996 45.2429C26.2791 45.1535 26.2868 45.0501 26.2636 44.9722C26.2302 44.8586 26.2007 44.7807 26.184 44.6581C26.1647 44.5138 26.1403 44.3746 26.0837 44.2405C26.0246 44.1001 25.9964 44.0094 25.9861 43.8523C25.9848 43.8306 25.9835 43.7962 25.9784 43.7719C25.9501 43.7272 25.9321 43.6902 25.9154 43.6365C25.8807 43.5242 25.8936 43.4246 25.873 43.316C25.8563 43.2254 25.8216 43.1411 25.801 43.0504C25.7805 42.9636 25.7445 42.8921 25.7175 42.8091C25.6893 42.7223 25.6803 42.6405 25.6828 42.5575L25.5685 42.4771L25.5749 42.4592L25.58 42.4452L25.562 42.4171L25.5813 42.3979L25.5633 42.3749L25.5736 42.366L25.5646 42.3532L25.58 42.3417L25.5685 42.3226L25.5556 42.2919L25.5428 42.2613L25.5852 42.2383L25.5543 42.1362L25.5209 42.1413L25.4849 41.9063L25.4541 41.8067L25.4451 41.7914L25.4335 41.7735L25.422 41.7595L25.4156 41.748L25.413 41.7326L25.4078 41.7173L25.4027 41.7045L25.4001 41.6765L25.3153 41.596L25.3218 41.5845L25.3282 41.5603L25.3128 41.536L25.3269 41.5245L25.3153 41.5066L25.3269 41.4977L25.3166 41.4811L25.3295 41.4734L25.3192 41.4555L25.3333 41.4479L25.3243 41.4275L25.3308 41.4121C25.3218 41.4121 25.3128 41.4109 25.3025 41.4109C25.2755 41.4096 25.2395 41.4083 25.2138 41.407C25.1933 41.4057 25.174 41.4057 25.1534 41.4045L25.111 41.4032C25.084 41.4019 25.0571 41.4019 25.0301 41.4006C25.0044 41.4006 24.9774 41.3994 24.9517 41.3994H24.9286C24.8926 41.3981 24.8579 41.3981 24.8219 41.3968C24.7846 41.3968 24.7474 41.3955 24.7101 41.3955C24.6729 41.3955 24.633 41.3943 24.5958 41.3943C24.5572 41.3943 24.5174 41.393 24.4788 41.393C24.4403 41.393 24.3992 41.393 24.3606 41.393C24.3208 41.393 24.2809 41.393 24.2411 41.393C24.2013 41.393 24.1614 41.393 24.1216 41.393C24.0831 41.393 24.0445 41.393 24.006 41.393C23.9674 41.393 23.925 41.393 23.8865 41.3943C23.8492 41.3943 23.8119 41.3955 23.7747 41.3955C23.7374 41.3955 23.6976 41.3968 23.6603 41.3968C23.6243 41.3968 23.5896 41.3981 23.5537 41.3994H23.5267C23.5035 41.3994 23.4804 41.4006 23.4573 41.4006C23.429 41.4019 23.3956 41.4019 23.3673 41.4032C23.3378 41.4045 23.2979 41.4045 23.2697 41.4057L23.2324 41.407C23.2183 41.407 23.2041 41.4083 23.19 41.4083C23.1784 41.4083 23.1669 41.4096 23.154 41.4096L23.145 41.4313L23.1669 41.4428L23.1502 41.4747L23.1733 41.49L23.1566 41.513L23.1733 41.5271L23.1592 41.5437L23.1707 41.5539L23.0975 41.6305L23.0962 41.6662L23.0859 41.7033L23.0756 41.7211L23.0654 41.7378L23.0538 41.7543L23.0461 41.7748L23.0307 41.8041L23.0153 41.8284L22.9998 41.8246L22.9896 41.854L22.924 42.0978L22.9176 42.1489L22.9086 42.2L22.8996 42.2511L22.8893 42.2996L22.8803 42.3392L22.8765 42.3609L22.8636 42.4464L22.8495 42.4975L22.8328 42.5486L22.8199 42.5984L22.8045 42.6482L22.7865 42.698L22.7724 42.7452L22.757 42.7925L22.7416 42.8397L22.7364 42.8538C22.7364 42.8512 22.7351 42.8576 22.7364 42.8538C22.7351 42.8576 22.7326 42.8704 22.7313 42.8742C22.7313 42.8729 22.7313 42.8755 22.7313 42.8742L22.7274 42.8883C22.7274 42.887 22.7274 42.8895 22.7274 42.8883L22.4062 44.3401L22.473 44.3797L22.3522 44.5815L22.3445 44.6185V44.6568L22.3612 44.6632L22.3496 44.6964L22.3651 44.7028L22.3522 44.7334L22.3651 44.7398L22.3496 44.7692L22.3638 44.7768L22.3368 44.8228L22.3535 44.8356L22.3381 44.8573L22.3484 44.8649L22.3317 44.8867L22.3419 44.8956L22.3291 44.9109L22.3214 44.9313L22.3124 44.9556L22.3214 44.9671L22.297 44.9875L22.3085 45.0028L22.297 45.0105L22.2764 45.036L22.2893 45.0629L22.2571 45.0782L22.2674 45.1088L22.2032 45.1305L22.2006 45.2033H22.1608ZM13.2765 30.2531L13.3061 30.2097L13.3228 30.2211L13.3511 30.1867L13.3729 30.2045L13.4372 30.1496L13.4667 30.1816L13.5888 30.1509C13.5875 30.1509 13.5901 30.1509 13.5888 30.1509L13.5978 30.1292L13.7019 30.1228L13.7186 30.119L13.7456 30.1126L13.8342 30.0896L13.8381 30.1037L13.9087 30.0909L13.9113 30.1075H14.0809C14.0963 30.1075 14.1118 30.1075 14.1285 30.1075H43.1699L43.2264 30.1062L43.2855 30.1049H43.3459L43.4076 30.1062L43.4705 30.1075L43.5052 30.1088H43.6286L43.6838 30.1101L43.7404 30.1113L43.7982 30.1126L43.8586 30.1152L43.9203 30.1164L43.9832 30.1177L44.1798 30.1228C44.1863 30.1228 44.1914 30.1228 44.1978 30.1228L44.2672 30.1241C44.2646 30.1241 44.2698 30.1241 44.2672 30.1241L44.4304 30.1267C44.4458 30.1267 44.46 30.1267 44.4754 30.1267C44.4972 30.1267 44.5229 30.1267 44.5435 30.1267C44.5512 30.1267 44.5615 30.1267 44.5692 30.1267H44.6116H44.7169C44.7259 30.1267 44.7349 30.1267 44.7439 30.1267C44.7529 30.1267 44.7645 30.1267 44.7735 30.1267H44.8069L44.8737 30.1254C44.8917 30.1254 44.9097 30.1241 44.9277 30.1241C44.9482 30.1241 44.9752 30.1228 44.9958 30.1228L45.033 30.1215C45.0382 30.1215 45.0433 30.1215 45.0485 30.1203C45.0677 30.119 45.0934 30.119 45.1127 30.1177L45.1307 30.1164C45.1281 30.1164 45.1333 30.1164 45.1307 30.1164L45.1384 13.404C45.1384 13.3798 45.1384 13.3555 45.1384 13.3312C45.1384 13.3095 45.1384 13.2866 45.1384 13.2648C45.1384 13.2406 45.1384 13.2074 45.1384 13.1831C45.1384 13.1576 45.1384 13.1333 45.1371 13.1078C45.1371 13.0822 45.1371 13.0567 45.1358 13.0324C45.1358 13.0158 45.1358 12.998 45.1346 12.9814V12.9558C45.1346 12.9303 45.1333 12.9047 45.1333 12.8792C45.1333 12.8549 45.132 12.8307 45.132 12.8064C45.132 12.7809 45.1307 12.7502 45.1307 12.7247C45.1307 12.7094 45.1307 12.6953 45.1294 12.68L45.1281 12.6187C45.1281 12.6225 45.1281 12.6149 45.1281 12.6187V12.5715C45.1281 12.5727 45.1281 12.5702 45.1281 12.5715C45.1281 12.5459 45.1268 12.5166 45.1268 12.491C45.1268 12.4706 45.1256 12.4514 45.1256 12.431L45.1217 12.2739L45.1204 12.1169L45.1179 12.0339L45.1166 11.9585V11.85V11.8028V11.6751V11.6483V11.5435V11.495L45.1179 11.3597V11.3443L45.1204 11.2103L45.1217 11.1375L45.1256 11.0175L45.1294 10.9408L45.132 10.877C45.1114 10.734 44.9354 10.4633 44.8827 10.3649C44.7581 10.1338 44.6655 10.0483 44.4548 9.89631C43.9742 9.54771 43.4513 9.58219 42.8859 9.58219C42.377 9.58219 41.8656 9.55154 41.3568 9.57963C41.3491 9.57963 41.3311 9.58091 41.3234 9.58474C41.3041 9.59751 41.2373 9.69073 41.2193 9.71116C41.0651 9.89248 40.9109 10.07 40.7696 10.2615C40.6192 10.4645 40.4303 10.6305 40.28 10.8285L39.1132 12.2676C38.9513 12.468 38.7766 12.6609 38.6095 12.8549C38.4708 13.0158 38.3011 13.2023 38.1855 13.3798L37.1074 14.7371C37.1023 14.7448 37.0958 14.7537 37.0881 14.7627L35.5667 16.5631C35.4884 16.6589 35.4293 16.7662 35.347 16.8619C35.1157 17.1288 34.8407 17.3983 34.6377 17.6843L33.5686 18.9842C33.5327 19.0225 33.498 19.0825 33.4633 19.1259L32.6409 20.1258C32.5676 20.219 32.488 20.3071 32.4045 20.3939C32.3852 20.4144 32.3466 20.4501 32.3248 20.4769C32.3325 20.5408 32.3762 20.6774 32.3903 20.7246C32.4546 20.9468 32.4957 21.1984 32.5317 21.427C32.5676 21.6555 32.6049 21.9147 32.6062 22.1459C32.6088 22.5979 32.5779 23.2057 32.452 23.6373C32.434 23.6999 32.4392 23.7739 32.4289 23.8416C32.425 23.8646 32.4224 23.8863 32.4186 23.9093C32.407 23.9885 32.3646 24.0498 32.3094 24.0881C32.2233 24.2566 32.1976 24.4443 32.0909 24.6257C31.9162 24.9245 31.7877 25.213 31.5782 25.4965C31.2017 26.0047 30.8522 26.3508 30.3203 26.7007L29.6238 27.1118L28.6254 27.4528L28.5933 27.4553C27.7144 27.5294 26.901 27.56 26.0182 27.5064C25.7304 27.4885 24.6099 27.4106 24.3902 27.486C24.164 27.5779 24.0702 27.5319 23.862 27.5651C23.4778 27.6264 22.9536 27.8167 22.6285 28.0261C22.3175 28.2266 22.0747 28.5011 21.7547 28.6965C21.1238 29.0796 20.2693 28.8229 19.9571 28.1589C19.8234 27.8742 19.7412 27.4758 19.6756 27.1667C19.6422 27.0097 19.6127 26.8513 19.5818 26.6943C19.5677 26.6215 19.5523 26.5193 19.5292 26.4517C19.4611 26.2691 19.4199 25.9473 19.3891 25.7494C19.3531 25.5195 19.3184 25.2884 19.2889 25.0573L19.1989 24.0766C19.1822 23.2593 19.1732 21.8713 19.4276 21.109L19.6628 20.2969C19.7155 20.0875 19.8067 19.9087 19.8928 19.712C19.9712 19.5333 20.0984 19.3775 20.1704 19.2026L20.1793 19.1808L20.7062 18.3789C21.0133 17.9754 21.4437 17.5936 21.8588 17.2999L22.5051 16.8798L22.5257 16.8709C22.5951 16.8415 22.6657 16.8134 22.7351 16.7841C22.8508 16.7343 22.9407 16.6487 23.0692 16.6002C23.1283 16.5785 23.1849 16.5593 23.2427 16.5338L23.6397 16.3908C23.8415 16.318 24.0612 16.2018 24.2719 16.1737C24.3156 16.1673 24.3568 16.1673 24.3992 16.1635C24.4107 16.1596 24.4249 16.1545 24.4364 16.1494C24.6073 16.0792 24.7602 16.0869 24.9376 16.0626C25.0134 16.0524 25.0892 16.0243 25.1676 16.0128C25.4734 15.9643 25.7843 15.9745 26.094 15.9655C26.1146 15.9375 26.1351 15.9081 26.1531 15.8787C26.1724 15.8455 26.1763 15.8276 26.1904 15.7944C26.2238 15.714 26.2752 15.6604 26.3407 15.6055C26.423 15.5352 26.5784 15.2824 26.6401 15.1853C26.7391 15.0308 26.8406 14.8482 26.9498 14.7014L27.4548 13.9314C27.5062 13.8573 27.5679 13.7999 27.618 13.7309C27.6681 13.6632 27.7156 13.5943 27.7593 13.5215L28.6794 12.1079L28.6871 12.0977C28.7025 12.0786 28.7179 12.0607 28.7346 12.0441C28.7423 12.0326 28.7487 12.0211 28.7565 12.0109C28.8169 11.9177 28.8605 11.836 28.9364 11.7517C28.9505 11.7364 28.971 11.7147 28.9826 11.6981C29.0019 11.6636 29.0186 11.6227 29.0379 11.5857L29.0443 11.5729L30.0131 10.1325C30.1327 9.9359 30.2791 9.7584 30.4141 9.57453C30.1956 9.57069 29.9759 9.56814 29.7574 9.56686C29.115 9.56303 28.4725 9.56431 27.8313 9.56559C26.7943 9.56814 25.7561 9.57963 24.7178 9.57963H6.32362C5.68757 9.57963 4.89475 9.46599 4.3011 9.71882C4.15847 9.78011 4.01584 9.90908 3.88734 9.99847C3.69974 10.1287 3.57253 10.3739 3.45945 10.5654C3.41447 10.642 3.41062 10.7353 3.36822 10.8272C3.35922 10.8476 3.34766 10.8681 3.33481 10.8859C3.33481 10.8821 3.33481 10.8885 3.33481 10.8859L3.27313 11.3827C3.23844 13.6632 3.27441 15.9438 3.27441 18.2244C3.27441 20.3352 3.26028 22.4459 3.25771 24.5567C3.25643 25.8438 3.25514 27.131 3.26285 28.4181C3.26542 28.8587 3.26799 29.2979 3.27698 29.7385C3.27955 29.8611 3.2757 30.0283 3.28341 30.1726C3.40163 30.1816 3.55325 30.179 3.62649 30.179C3.91818 30.179 4.21115 30.1713 4.50284 30.1637C4.80866 30.156 5.11448 30.1484 5.4203 30.1496C5.62589 30.1496 5.89059 30.1484 6.09233 30.1918C6.52665 30.2837 6.7361 30.4191 6.97767 30.7983C6.99694 30.8277 7.01236 30.8571 7.03035 30.8864C7.03421 30.8928 7.03935 30.9005 7.0432 30.9069C7.13058 31.0575 7.14985 31.2286 7.14985 31.3985C7.15114 31.7228 7.15756 31.7318 7.0008 32.0063C6.90828 32.1697 6.81576 32.3025 6.66414 32.4187C6.33133 32.6741 5.89188 32.6767 5.49097 32.6767C5.0785 32.6767 4.66474 32.6652 4.25098 32.6626C4.00941 32.6614 3.76784 32.6614 3.52627 32.6677C3.46844 32.669 3.37593 32.6703 3.29112 32.6741C3.28983 32.7073 3.28983 32.7392 3.28855 32.7686C3.28212 32.9576 3.27698 33.1479 3.27313 33.3368C3.26285 33.877 3.25771 34.4171 3.25642 34.9573C3.25514 35.5051 3.25771 36.0554 3.27313 36.6032C3.27827 36.8024 3.28469 37.0016 3.29883 37.1996C3.30397 37.2736 3.30911 37.4039 3.32838 37.4779L3.43246 37.7729C3.66504 38.428 4.33322 38.82 5.00654 38.88C5.57192 38.9311 6.17328 38.8838 6.74252 38.8838C18.4061 38.8838 30.0697 38.8838 41.732 38.8838C42.7291 38.8838 44.0051 39.092 44.7478 38.2722C45.3569 37.5992 45.1988 36.7258 45.1988 35.8945C45.1988 35.3071 45.2142 34.7198 45.2168 34.1324C45.2181 33.785 45.2194 33.4364 45.2117 33.0878C45.2091 32.9946 45.2104 32.8274 45.2001 32.6907C45.1281 32.6894 45.0549 32.6894 44.9894 32.6882C44.6823 32.6831 44.3751 32.6805 44.0668 32.678C43.0272 32.669 41.989 32.6665 40.9494 32.6639C37.8064 32.6562 34.6621 32.6562 31.5191 32.6575C25.9989 32.6601 20.4787 32.6728 14.9573 32.6728C14.5885 32.6728 14.2184 32.692 13.8509 32.6703C12.805 32.609 12.3514 31.5632 12.8525 30.7L12.8679 30.6732L13.0928 30.4408L13.1108 30.428C13.1339 30.4012 13.1596 30.3833 13.1892 30.3705L13.2765 30.2531ZM9.66709 30.2109C10.1978 30.0845 10.7233 30.331 10.979 30.806L10.9855 30.8175L11.1281 31.1622L11.1332 31.1801C11.2386 31.6041 11.0073 32.1493 10.6835 32.429C10.6873 32.4264 10.6809 32.4315 10.6835 32.429C10.6642 32.4481 10.636 32.4698 10.6115 32.4839C10.6013 32.4902 10.591 32.4966 10.5807 32.503C10.1669 32.7673 9.52189 32.7112 9.13383 32.4213C8.91282 32.2553 8.70466 31.931 8.65326 31.6602C8.58515 31.304 8.67896 30.9707 8.88583 30.6796C9.14797 30.3131 9.26747 30.3067 9.66709 30.2109ZM34.1366 14.3604C34.215 14.2711 34.3216 14.0642 34.3692 14.0029C34.4938 13.842 34.6454 13.6875 34.7842 13.5381C34.9024 13.4104 35.0502 13.2585 35.1479 13.1142C35.2288 12.9941 35.3136 12.8933 35.4061 12.7885L36.2259 11.8028C36.2658 11.7491 36.3056 11.6968 36.3441 11.6431L38.7522 8.74325C38.828 8.66025 38.8961 8.55937 38.9629 8.46871C39.0053 8.41125 39.0464 8.364 39.0927 8.3142L39.9459 7.30543C40.0307 7.2186 40.0975 7.09857 40.1798 7.00407C40.7708 6.31581 41.146 5.97998 41.1448 5.0159C41.1448 4.58302 41.1473 4.77073 41.033 4.38382L40.9237 4.06714L40.9212 4.05437C40.8723 3.8373 40.6398 3.62277 40.4714 3.48359L39.9536 3.13882C39.9459 3.13499 39.9382 3.12988 39.9318 3.12605C39.9356 3.12732 39.9279 3.12477 39.9318 3.12605C39.4422 2.90769 38.765 2.85279 38.2754 3.09157C38.0621 3.195 37.8373 3.30737 37.6599 3.46699C37.5918 3.52828 37.5302 3.58702 37.4685 3.6547C37.2822 3.86156 37.1331 4.1029 36.9738 4.33019C36.9712 4.3353 36.9674 4.33913 36.9648 4.34424L36.4675 5.12444C36.4058 5.21638 36.3467 5.30704 36.2863 5.39642L35.7518 6.19961C35.7492 6.20472 35.7454 6.20983 35.7428 6.21493C35.7376 6.22259 35.7338 6.23026 35.7286 6.23792L34.3152 8.3308C34.2856 8.36783 34.2548 8.41508 34.2291 8.45466L33.8809 8.95011C33.8231 9.03183 33.7742 9.11739 33.7151 9.19783L32.0048 11.753C31.9316 11.887 31.8159 12.0288 31.7234 12.1514C31.6797 12.2088 31.5769 12.3416 31.5333 12.4221C31.5461 12.4297 31.5602 12.4387 31.5731 12.4476L33.7999 14.0974C33.8642 14.1446 34.0299 14.2928 34.1366 14.3604ZM21.9153 25.5565C22.3214 25.3803 22.6812 25.2462 23.1232 25.1594C23.2504 25.1339 23.3943 25.1313 23.5177 25.0968C23.7053 25.0445 23.8351 25.0662 24.0201 25.0496C24.1923 25.0343 24.3516 25.0062 24.5212 24.9845C24.7577 24.9538 25.0069 24.9602 25.2447 24.9653C26.0311 24.9845 26.8123 25.0688 27.6013 25.0292C27.6989 25.0241 27.7632 24.9819 27.8596 24.9628C27.9816 24.9385 28.1191 24.9577 28.2219 24.936C28.3363 24.904 28.8066 24.701 28.8952 24.6282C29.3295 24.2656 29.6238 24.0102 29.8487 23.4803C29.8975 23.3641 29.999 23.0985 30.0093 22.9771C30.0209 22.8558 30.0286 22.7115 30.0967 22.6081C30.1031 22.5226 30.098 22.4076 30.098 22.3349C30.0967 22.165 30.1044 22.128 30.0556 21.9684C30.0131 21.8317 30.0247 21.6645 29.981 21.5508C29.945 21.4563 29.8435 21.012 29.7716 20.966C29.7741 20.9673 29.769 20.9647 29.7716 20.966C29.6508 20.9353 29.5274 20.8306 29.4362 20.7617L26.4949 18.5781C26.4692 18.5577 26.3896 18.4888 26.3613 18.4773C26.3253 18.467 26.1788 18.4734 26.1377 18.4734C25.9205 18.4734 25.688 18.4849 25.476 18.5283C25.3475 18.5539 25.2331 18.5654 25.1033 18.5769C25.0044 18.5858 24.9157 18.6356 24.8168 18.6599C24.7191 18.6828 24.6292 18.7135 24.5341 18.7429C24.4326 18.7735 24.3619 18.8105 24.2668 18.8501C24.137 18.9038 23.9905 18.9548 23.8659 19.0161C23.7541 19.071 23.6385 19.1579 23.5369 19.2306C23.456 19.2881 23.3699 19.3366 23.2851 19.3877C23.1283 19.4835 23.0397 19.5869 22.9176 19.721C22.5411 20.1309 22.2597 20.5842 22.0849 21.1128C22.0554 21.1997 22.0181 21.2686 21.9821 21.3516C21.9397 21.4499 21.9153 21.5661 21.8961 21.6709C21.7611 22.4102 21.7033 23.0435 21.7187 23.7969C21.7252 24.1315 21.774 24.5095 21.8138 24.8427C21.8382 25.047 21.8665 25.2514 21.9012 25.4544C21.9063 25.4825 21.9076 25.5182 21.9153 25.5565ZM16.2833 49.444L32.2104 49.4478C32.2194 49.181 32.2027 48.9294 32.0537 48.6842C31.992 48.5834 31.8622 48.4161 31.7466 48.3752C31.6669 48.3484 31.4215 48.3114 31.3354 48.3114H17.1301C16.5943 48.3114 16.2795 48.7149 16.2795 49.2244L16.2833 49.444ZM30.6608 18.5143L30.6903 18.4913C31.2763 17.8286 31.8057 17.1173 32.3826 16.4482C32.4186 16.4074 32.4738 16.3512 32.5227 16.2963C32.4995 16.2771 32.4764 16.2605 32.4533 16.2503C32.3312 16.1954 32.2683 16.1711 32.1706 16.0766L30.2342 14.5877C30.1982 14.5622 30.1609 14.5341 30.1237 14.5047C30.0825 14.5737 30.0427 14.6439 29.9977 14.7129L28.4995 16.9411C28.5843 17.0126 28.7282 17.1007 28.786 17.1378L29.9669 17.9767C30.0838 18.0776 30.4577 18.3879 30.6608 18.5143Z" fill="white"/>
</svg>
