<svg width="62" height="47" viewBox="0 0 62 47" fill="none" xmlns="http://www.w3.org/2000/svg">
<path fill-rule="evenodd" clip-rule="evenodd" d="M11.7968 34.2007C11.8035 34.0933 11.799 33.9344 11.8001 33.8695C11.8035 33.6189 11.817 33.366 11.8812 33.1221C11.906 33.0259 11.9161 32.8894 11.9274 32.7898C11.9476 32.5962 11.9645 32.4015 11.9803 32.2079C12.0084 31.87 12.0253 31.5108 12.0726 31.1796L12.2539 29.6265C12.2652 29.2909 12.3429 29.01 12.6176 28.7941C13.0928 28.4203 13.5443 28.342 14.0521 28.709C14.3741 28.9418 14.5081 29.2718 14.516 29.6556C14.5216 29.9231 14.4586 30.1524 14.4451 30.4076C14.4293 30.6962 14.4428 30.9861 14.4214 31.2759C14.4113 31.4236 14.364 31.5231 14.346 31.6608C14.3223 31.8331 14.3156 31.9942 14.3077 32.1665C14.2964 32.3993 14.2638 32.6208 14.221 32.8502C14.1714 33.112 14.1951 33.4052 14.1579 33.676C14.1332 33.855 14.105 34.024 14.096 34.1985L23.2344 34.1952C23.249 33.7867 23.2265 33.1825 23.1466 32.8983C23.0937 32.7103 23.1083 32.5044 23.1049 32.3109C23.1027 32.1386 23.079 31.9696 23.07 31.7973C23.0599 31.6294 23.0216 31.4806 23.0036 31.3161C22.963 30.9547 22.9811 30.5911 22.9518 30.2297C22.9394 30.073 22.9214 29.9208 22.9056 29.7653C22.8853 29.5672 22.8786 29.3658 22.8707 29.1678C22.8583 28.8265 22.7716 28.5009 22.7649 28.154C22.7581 27.8094 22.7637 27.4502 22.7108 27.1101C22.6602 26.7845 22.5926 26.3895 22.6455 26.0549C22.525 25.7125 22.5138 24.974 22.4991 24.6887C22.4913 24.5186 22.4665 24.3642 22.4428 24.1964C22.4034 23.9177 22.3899 23.6391 22.3843 23.3583C22.3742 22.9051 22.2807 22.4643 22.2706 22.01C22.2661 21.8209 22.2672 21.2491 22.2041 20.9705L15.3875 20.985C15.3717 21.1204 15.3582 21.2558 15.3458 21.3912C15.3109 21.7649 15.2794 22.1386 15.2479 22.5124C15.2186 22.8715 15.1893 23.2318 15.1612 23.591C15.1522 23.7096 15.142 23.8293 15.1319 23.948C15.1274 24.0017 15.124 24.0878 15.1105 24.1393C15.0959 24.1941 15.0767 24.231 15.0655 24.2892C15.0339 24.456 15.0407 24.5857 15.0418 24.7514C15.0429 25.0277 15.0035 25.2851 14.9439 25.5547C14.9348 25.595 14.9337 25.651 14.9292 25.6924C14.9213 25.7819 14.9078 25.868 14.8808 25.9542C14.811 26.1769 14.6691 26.3391 14.4732 26.4488L14.4563 26.4577C14.427 26.4734 14.3955 26.4879 14.364 26.5025C14.3032 26.5316 14.2424 26.5573 14.1804 26.5797L13.8618 26.714L13.8787 26.6558C13.7098 26.677 13.5386 26.6625 13.3664 26.5942C12.6379 26.3033 12.594 25.6879 12.6795 25.0132C12.7144 24.7346 12.7358 24.4481 12.7493 24.1673L12.8372 23.2598C12.8552 22.8078 12.9216 22.3322 12.9712 21.8813C12.997 21.643 13.0229 21.4046 13.041 21.1663C13.0455 21.1003 13.0522 21.0231 13.0567 20.9459C12.6041 20.9335 12.1447 20.938 11.6943 20.9391C10.8937 20.9403 10.0932 20.9459 9.2926 20.9503C8.52694 20.9548 7.76015 20.9582 6.99449 20.9548C6.7175 20.9537 6.43938 20.9515 6.16239 20.9436C6.00363 20.9391 5.82685 20.938 5.66922 20.9156C5.63656 20.9112 5.60166 20.9078 5.57013 20.9011C5.50032 20.8866 5.44515 20.8485 5.40911 20.7993C5.3089 20.7579 5.11974 20.7601 4.99138 20.712L4.18293 20.3595L4.16829 20.3506C4.15703 20.3439 4.1469 20.3372 4.13564 20.3304C4.11988 20.3226 4.10524 20.3159 4.08947 20.3081C3.78997 20.1637 3.56139 19.9948 3.29341 19.8045C3.23599 19.7643 3.17406 19.7307 3.11551 19.6915C3.10763 19.6859 3.10087 19.6815 3.09299 19.677L3.04232 19.6501L3.01079 19.6065C3.00854 19.6043 3.00291 19.5987 2.99841 19.5942L2.60882 19.2171L2.59869 19.2048C2.31494 18.8523 2.02444 18.5346 1.79699 18.1396C1.71142 17.9896 1.62134 17.9035 1.55603 17.73C1.37588 17.2523 1.14055 16.8114 1.07187 16.2978C1.04935 16.1311 1.05498 15.9811 1.00543 15.82C0.913103 15.5213 0.927741 14.9361 0.931119 14.616C0.935623 14.2054 0.954764 13.7936 0.954764 13.3841C0.954764 10.9594 0.927741 8.53464 0.957016 6.11103C0.959268 5.89396 0.949134 5.51128 1.00318 5.2998C1.01331 5.25952 1.02908 5.22595 1.04034 5.18679C1.05835 5.12637 1.06849 5.05252 1.07637 4.98986C1.11015 4.72803 1.2858 4.26703 1.40178 4.02422C1.61121 3.58783 1.80375 3.19061 2.11001 2.81129C2.15167 2.75982 2.18771 2.70164 2.22599 2.64793C2.53113 2.21826 2.94211 1.90384 3.34295 1.56928C3.34971 1.56368 3.35647 1.55697 3.36322 1.55137C3.54225 1.40144 3.7393 1.33094 3.92959 1.20786C4.00728 1.15751 4.0602 1.11723 4.14915 1.07807C4.29215 1.01541 4.43853 0.960578 4.58265 0.897918C4.81798 0.797213 5.06344 0.76924 5.29427 0.698747C5.36182 0.631611 5.44289 0.61147 5.54085 0.592449C5.71876 0.557762 5.89891 0.546572 6.07569 0.511885C6.35944 0.455939 6.72425 0.462652 7.01475 0.466009C7.31764 0.469366 7.62165 0.483912 7.92454 0.483912C16.0203 0.483912 24.1149 0.483912 32.2107 0.483912C32.9572 0.483912 33.4335 0.326142 34.091 0.80057L34.7036 1.16422L34.7126 1.17094C34.7351 1.1866 34.7599 1.20674 34.7801 1.22465C34.8117 1.25262 34.8387 1.28059 34.8668 1.30969C34.8803 1.31528 34.895 1.31976 34.9074 1.32535C35.1145 1.40368 35.2778 1.52452 35.4535 1.65432L36.772 2.41295C36.781 2.41743 36.7889 2.42191 36.7979 2.4275L37.3958 2.75759C37.6964 2.89521 37.9621 3.09774 38.2324 3.28125L38.3382 3.35062C38.658 3.53972 38.9992 3.68854 39.3088 3.89778L40.3875 4.56802C40.5237 4.59711 40.8457 4.5904 40.9752 4.59152C41.3671 4.59376 41.76 4.58816 42.1519 4.58481C42.5831 4.58145 43.0155 4.57809 43.4467 4.58704C43.78 4.59376 44.1437 4.60159 44.4736 4.65194C44.8531 4.71013 45.1909 4.71013 45.5523 4.87461L47.2188 5.68807L47.2345 5.69814C47.8504 6.11886 48.3965 6.65259 48.8008 7.28032C48.8255 7.31836 48.8931 7.46158 48.9212 7.49627C48.9967 7.50634 49.1059 7.50522 49.1847 7.50746C49.3851 7.51194 49.5856 7.51417 49.786 7.51529C50.358 7.51865 50.9288 7.51753 51.5008 7.51529C52.4365 7.51194 53.3745 7.49851 54.3101 7.49851C55.1546 7.49851 55.9991 7.48284 56.8436 7.47949C57.3345 7.47725 57.8254 7.47613 58.3164 7.48284C58.4943 7.48508 58.6733 7.48844 58.8512 7.49627C58.9559 7.50075 59.0786 7.5041 59.1811 7.52424C59.4468 7.57572 59.6461 7.6988 59.8938 7.79167C60.3938 7.97965 61.1054 8.58388 61.3205 9.07173C61.3261 9.08404 61.3317 9.09859 61.3385 9.11089C61.3632 9.14222 61.3869 9.17132 61.4094 9.20488C61.4826 9.31118 61.5276 9.41077 61.5513 9.53721C61.5625 9.59763 61.567 9.64798 61.5918 9.70505C61.6369 9.80911 61.6628 9.84715 61.6886 9.97023C61.7044 10.0441 61.7145 10.1191 61.7371 10.1918C61.906 10.7535 61.7562 11.4316 61.5637 11.9709C61.5445 12.0235 61.5321 12.0559 61.5062 12.1052C61.5006 12.1164 61.4939 12.1275 61.4871 12.1387L61.4623 12.1824C61.2788 12.5315 61.0209 12.8313 60.7383 13.1044C60.5075 13.3282 60.2328 13.5217 59.931 13.6381C59.779 13.6963 59.6124 13.7724 59.457 13.816C59.2813 13.8641 59.0685 13.8843 58.8872 13.9111C58.7228 13.9346 58.5112 13.9313 58.3445 13.9346C57.991 13.9413 57.6374 13.9447 57.2838 13.9469C56.2637 13.9536 55.2447 13.9536 54.2246 13.9525C52.5435 13.9503 50.8613 13.9469 49.1802 13.9335C49.1385 13.9335 48.9697 13.9301 48.9325 13.9469C48.9055 13.9682 48.8345 14.098 48.8165 14.1304C48.7704 14.2099 48.7174 14.2647 48.6589 14.333C48.2513 14.813 47.9642 15.2482 47.4124 15.5962L46.6513 16.0774C46.4509 16.2083 46.2279 16.2553 46.0342 16.3728C45.9093 16.4477 45.8856 16.441 45.7629 16.4791C45.5737 16.5384 45.3136 16.6301 45.1154 16.6525C44.9803 16.6682 44.8779 16.6782 44.7394 16.7073C44.1944 16.8226 43.4907 16.8215 42.9311 16.8226C42.3253 16.8237 41.7184 16.8036 41.1126 16.8036C40.8818 16.8036 40.446 16.7499 40.2625 16.9087C40.1488 17.0072 40.0058 17.0967 39.8797 17.1784C39.7029 17.2914 39.5216 17.4 39.3414 17.5074C39.0262 17.6954 38.6918 17.8822 38.3877 18.0847C38.2875 18.1519 38.2448 18.1597 38.1479 18.2034C37.8315 18.3488 37.5376 18.586 37.2336 18.7606C37.0411 18.8714 36.8902 19.0146 36.6864 19.1153L35.0819 20.0888C35.0763 20.0921 35.0718 20.0955 35.0661 20.0988C35.0425 20.119 35.0177 20.1335 34.9884 20.1436C34.9828 20.1458 34.9783 20.1481 34.9727 20.1503L34.6124 20.3763C34.5741 20.3987 34.5324 20.4144 34.493 20.4323L34.0224 20.6963C33.7487 20.8675 33.5314 20.9335 33.2049 20.9436C32.7872 20.957 32.3694 20.9436 31.9506 20.9436C31.8166 20.9436 31.6848 20.9403 31.5508 20.9369C31.5261 20.9358 31.4833 20.9335 31.4472 20.9347C31.4168 21.0029 31.3842 21.1103 31.3617 21.1641C31.3448 21.2055 31.3279 21.2401 31.3054 21.2759C31.2997 21.2961 31.2952 21.3196 31.2919 21.3386C31.2401 21.587 31.1196 21.7817 31.0487 22.0156C30.9102 22.4766 30.7086 22.9163 30.5791 23.3784C30.5532 23.4691 30.5194 23.5295 30.4902 23.6112C30.4654 23.6783 30.4632 23.7734 30.4429 23.8473L30.1231 24.7592C30.0668 24.8968 30.0116 25.0356 29.9655 25.1765C29.845 25.5492 29.6738 25.8692 29.407 26.1612L29.3507 26.2216C29.0793 26.5114 28.737 26.7005 28.3902 26.884C28.0727 27.0519 26.9805 27.0217 26.6033 27.0183C26.2419 27.015 25.8816 27.0071 25.5201 27.0049C25.3614 27.0038 25.1835 27.0004 25.0134 27.0082C25.0191 27.3104 25.072 27.6449 25.1058 27.9247C25.1441 28.2324 25.2037 28.6631 25.1542 28.9888C25.3107 29.3423 25.2927 30.0047 25.3017 30.3494C25.3073 30.5765 25.3625 30.7869 25.376 31.0107L25.5291 33.0404C25.5348 33.2429 25.5404 33.8863 25.5866 34.1817C25.6721 34.1862 25.7678 34.1851 25.8309 34.1862C26.0606 34.1896 26.2914 34.1884 26.5222 34.1862C26.7621 34.1851 27.0019 34.1817 27.2417 34.1806C27.4061 34.1795 27.5773 34.1773 27.7417 34.1873C28.5197 34.2354 30.104 34.8755 30.4598 35.6442C30.6061 35.7818 30.6906 35.9709 30.8043 36.1331L30.8111 36.1432L30.9777 36.442C31.3313 37.0551 31.4112 37.6001 31.4112 38.2994V45.1204C31.4112 45.7 31.2198 46.1241 30.7829 46.4967C30.301 46.9074 29.863 46.9051 29.2741 46.9051H8.60801C8.28147 46.9051 7.93918 46.9264 7.6149 46.913C7.34917 46.9018 7.14874 46.8514 6.91229 46.7261C6.07006 46.2819 5.90905 45.7202 5.90905 44.8183C5.91017 42.5312 5.86176 40.2396 5.9113 37.9525V37.9335L6.04304 37.1726C6.23783 36.4274 6.91342 35.445 7.55184 35.0075C7.72524 34.8889 7.90202 34.7569 8.08555 34.655C8.28373 34.5454 8.50554 34.4682 8.71948 34.3943C9.25657 34.2086 9.84432 34.1784 10.4096 34.1851C10.86 34.1907 11.3509 34.2399 11.7968 34.2007ZM4.78533 18.0288L4.80672 18.0377L4.82811 18.0478L4.85063 18.059L4.87315 18.0691L4.91256 18.0892L4.94184 18.1049L5.06232 18.1485L5.08596 18.1653L5.10848 18.181L5.12987 18.1955L5.15239 18.2123L5.17379 18.2268L5.19518 18.2436L5.21545 18.2571L5.23572 18.2705L5.25598 18.285L5.27625 18.2996L5.29314 18.3097C5.29201 18.3097 5.29427 18.3097 5.29314 18.3097L5.30553 18.3164C5.3089 18.3186 5.32129 18.3242 5.32467 18.3264C5.3303 18.3287 5.3348 18.3309 5.34043 18.3331C5.34381 18.3343 5.34831 18.3365 5.35169 18.3376L5.42488 18.3544L5.44064 18.3533H5.45641L5.46316 18.3421L5.52509 18.3622L5.53522 18.3432L5.54986 18.3287L5.58139 18.3477L5.61292 18.3141L5.62755 18.3041L5.68047 18.3566L5.73677 18.3287L5.7424 18.3387L5.75817 18.332L5.7728 18.3667L5.81221 18.3566L5.83586 18.4495L5.84937 18.4529L5.92031 18.4708L5.93157 18.4741L5.92706 18.4943L5.95296 18.5032L5.94508 18.5278C5.95521 18.5312 5.96535 18.5334 5.97548 18.5357C5.99237 18.5401 6.01039 18.5446 6.02727 18.548L6.05542 18.5547L6.08132 18.5603C6.09934 18.5636 6.11735 18.567 6.13649 18.5704C6.15564 18.5737 6.1759 18.5771 6.19617 18.5793L6.21306 18.5816C6.22207 18.5827 6.22995 18.5838 6.23896 18.5849L6.25697 18.5871C6.27724 18.5894 6.29751 18.5927 6.3189 18.595C6.33804 18.5972 6.36281 18.5995 6.38196 18.6017C6.40335 18.6039 6.42474 18.605 6.44501 18.6073L6.46077 18.6084C6.47541 18.6095 6.49005 18.6106 6.50469 18.6118C6.52608 18.6129 6.5531 18.614 6.5745 18.6151C6.59702 18.6162 6.62066 18.6174 6.64206 18.6185C6.66458 18.6196 6.6871 18.6196 6.70961 18.6207C6.72313 18.6207 6.74227 18.6218 6.75578 18.6218H6.77717C6.77605 18.6218 6.7783 18.6218 6.77717 18.6218H6.8042C6.81771 18.6218 6.83122 18.6218 6.84473 18.6218C6.85261 18.6218 6.87063 18.6218 6.87851 18.6218H6.91229C6.92242 18.6218 6.93368 18.6218 6.94382 18.6218H6.9776L7.04403 18.6207C7.0429 18.6207 7.04515 18.6207 7.04403 18.6207H7.08231C7.09245 18.6207 7.10258 18.6207 7.11271 18.6207C7.12059 18.6207 7.12848 18.6207 7.13636 18.6207L7.30413 18.6174L7.3638 18.6151L7.42236 18.6129L7.589 18.6095L7.69484 18.6073H7.7579L7.8187 18.6062H7.87838L7.9358 18.6073C8.95255 18.6073 9.96931 18.6095 10.9849 18.6095H11.146H11.2822H11.4984C11.5051 18.6095 11.5108 18.6095 11.5175 18.6095H11.6594C11.6583 18.6095 11.6605 18.6095 11.6594 18.6095C11.692 18.6095 11.7303 18.6095 11.763 18.6095H12.0197H12.2764C12.3384 18.6095 12.4003 18.6095 12.4611 18.6095H12.7178V18.7617C14.5509 18.7572 16.3851 18.7505 18.2182 18.7505H26.3815V18.6252H26.6382C26.9163 18.6252 27.1956 18.6252 27.4737 18.6241H27.5412C27.7822 18.6241 28.0243 18.623 28.2652 18.623C28.4567 18.623 28.6481 18.6218 28.8384 18.6218H29.0061H29.1919C29.3586 18.6218 29.5241 18.6207 29.6907 18.6207C29.8979 18.6196 30.1062 18.6196 30.3134 18.6185C30.4924 18.6174 30.6703 18.6162 30.8494 18.6151H30.8651C31.0126 18.614 31.159 18.6129 31.3065 18.6118L31.4 18.6106C31.5058 18.6095 31.6128 18.6084 31.7186 18.6073C31.8177 18.6062 31.9258 18.605 32.0249 18.6028L32.0699 18.6017L32.0575 2.74752C32.0485 2.74752 32.0384 2.7464 32.0294 2.7464C32.0147 2.74528 31.9911 2.74528 31.9765 2.74416C31.972 2.74416 31.9607 2.74416 31.9562 2.74416L31.9202 2.74304C31.9235 2.74304 31.9168 2.74304 31.9202 2.74304L31.8627 2.74192C31.8639 2.74192 31.8616 2.74192 31.8627 2.74192L31.8245 2.7408C31.8177 2.7408 31.8098 2.7408 31.8031 2.7408C31.794 2.7408 31.7839 2.7408 31.7749 2.7408H31.7389C31.74 2.7408 31.7378 2.7408 31.7389 2.7408H31.6995C31.6916 2.7408 31.6826 2.7408 31.6747 2.7408C31.6533 2.7408 31.6308 2.7408 31.6094 2.7408C31.588 2.7408 31.5666 2.7408 31.5441 2.7408C31.5227 2.7408 31.5002 2.7408 31.4799 2.7408C31.4585 2.7408 31.4326 2.7408 31.4112 2.74192C31.3887 2.74192 31.3617 2.74304 31.3392 2.74304H31.3211C31.3076 2.74304 31.2941 2.74304 31.2806 2.74416L31.2389 2.74528C31.2356 2.74528 31.2311 2.74528 31.2277 2.74528L31.007 2.74975L30.9484 2.75087L30.8921 2.75199L30.8381 2.75311L30.7863 2.75423L30.6568 2.75535L30.4947 2.7587H30.4361H30.3787L30.3247 2.75982L30.2729 2.76094L30.2233 2.75982V2.68262C30.1152 2.68262 30.006 2.6815 29.8979 2.6815C28.2022 2.67478 26.5065 2.67478 24.8108 2.67702C22.2863 2.67926 19.7608 2.69493 17.2363 2.69493C14.6973 2.69493 12.1582 2.69493 9.618 2.69493C8.96832 2.69493 8.3175 2.67255 7.66669 2.67255C7.31201 2.67255 6.95395 2.67478 6.6004 2.69381C6.44163 2.70164 6.13312 2.71507 5.98561 2.76654C5.90229 2.79563 5.81897 2.80794 5.73227 2.82025C5.70299 2.8236 5.64557 2.8292 5.62418 2.83815C5.62192 2.83927 5.62305 2.83927 5.62418 2.83815L5.53185 2.89298C5.426 2.94669 5.31679 2.99144 5.20644 3.03396C5.15577 3.05298 5.12087 3.06865 5.07695 3.09886L4.08272 3.90897L4.14915 3.9638L4.13564 3.97946L4.1165 4.00632L4.12663 4.01639L4.10524 4.03765L4.09173 4.06562L4.07033 4.09471L4.07821 4.10478L4.05344 4.1238L4.0298 4.14954L3.90481 4.24353L3.826 4.32969C3.78997 4.39011 3.74943 4.44941 3.7179 4.50984L3.3925 5.20917C3.34746 5.33225 3.34633 5.48443 3.30917 5.61646C3.15379 6.16474 3.23936 6.98268 3.23936 7.56453V13.7858C3.23936 14.616 3.15604 15.7395 3.49158 16.5115L3.67512 16.8259C3.89581 17.2064 4.16717 17.5353 4.50946 17.8095L4.78533 18.0288ZM28.9881 6.71414C29.1615 6.86743 29.1277 6.90883 29.2032 7.1315C29.273 7.34074 29.2933 7.35976 29.2978 7.60257C29.3327 9.21495 29.3 10.8307 29.3 12.4442C29.3 13.063 29.3552 13.7108 29.1919 14.3151C29.1345 14.5265 28.8226 15.133 28.6503 15.2561C28.4702 15.3848 28.2743 15.538 28.0761 15.6354C27.8712 15.7361 27.6279 15.7876 27.4061 15.839C27.1258 15.9039 26.7328 15.8715 26.4389 15.8715C23.2119 15.8715 19.9848 15.8793 16.7589 15.8816C14.7581 15.8827 12.7561 15.8838 10.7552 15.8804C10.0932 15.8793 9.43222 15.8782 8.77015 15.8737C8.57873 15.8726 8.38619 15.8715 8.19365 15.8681C8.11483 15.867 7.99998 15.8704 7.92229 15.8581L7.9009 15.8547L7.33453 15.6589L7.30863 15.6421C7.31201 15.6443 7.30525 15.6399 7.30863 15.6421C7.21855 15.6264 7.13636 15.5582 7.10483 15.472C6.96634 15.3948 6.82784 15.2874 6.72988 15.1755C6.40673 14.8018 6.29526 14.6563 6.16464 14.1517C6.13762 14.0454 6.13537 13.8798 6.13086 13.7701C6.12186 13.5452 6.11848 13.3203 6.1151 13.0954C6.10609 12.4509 6.10497 11.8064 6.10497 11.1619C6.10497 10.0788 6.11623 8.99452 6.11735 7.9114C6.11735 7.70775 6.09483 7.38214 6.13987 7.18745C6.18153 7.00842 6.32341 6.81596 6.41799 6.65819L6.50581 6.52951C6.57675 6.4344 6.69948 6.25649 6.79857 6.18936C6.84248 6.16026 6.87401 6.15467 6.91342 6.13005L6.96408 6.07634C7.06204 5.97228 7.14086 5.8906 7.28949 5.8906C7.31539 5.88053 7.34917 5.86039 7.36944 5.84808L7.37957 5.84249L7.53946 5.76752L7.55297 5.76304C7.58675 5.75185 7.62165 5.74178 7.65543 5.72947C7.69822 5.7015 7.74438 5.68584 7.79618 5.67017C8.03038 5.5952 11.5445 5.58066 11.7945 5.65227C11.9094 5.68584 11.9476 5.73619 12.0422 5.77983C12.0783 5.79102 12.1075 5.80556 12.1402 5.82458L12.1717 5.84249L12.4577 6.12893L12.4757 6.16362C12.5771 6.36055 12.6716 6.57875 12.6536 6.80477C12.6401 6.98156 12.5602 7.13038 12.4904 7.29039C12.4859 7.30046 12.4814 7.31165 12.4768 7.32172C12.4645 7.36647 12.4419 7.40676 12.4082 7.43921C12.4003 7.44816 12.3935 7.45711 12.3868 7.46606C12.0208 7.93601 11.4691 7.88342 10.9365 7.88342C10.4692 7.88342 10.0008 7.86552 9.53243 7.85881C9.16198 7.85321 8.77352 7.84874 8.39858 7.87559C8.38619 8.04679 8.39182 8.24596 8.39295 8.38806C8.3952 8.65437 8.40646 8.92067 8.40646 9.18586C8.40646 9.97695 8.39294 10.768 8.39069 11.5591C8.38957 12.0224 8.38957 12.4856 8.39745 12.9477C8.40083 13.1122 8.4042 13.2767 8.41209 13.44C8.41321 13.4624 8.41434 13.4904 8.41546 13.5195C8.44361 13.5206 8.47064 13.5206 8.49541 13.5217C8.6857 13.5273 8.87599 13.5296 9.06515 13.5318C9.69344 13.5396 10.3229 13.5419 10.9512 13.5441C12.8349 13.5497 14.7187 13.5452 16.6035 13.5419C18.6359 13.5374 20.6683 13.5318 22.7018 13.5296C24.0597 13.5273 25.4199 13.5206 26.7778 13.534C26.8308 13.5352 26.9085 13.5408 26.967 13.5385L26.9693 7.98413C26.9693 7.95839 26.9704 7.92818 26.9715 7.89797C26.8409 7.89014 26.6889 7.89125 26.5808 7.88902C26.1912 7.88007 25.8005 7.87671 25.4109 7.87335C24.2703 7.8644 23.1286 7.86552 21.9879 7.86664C20.0389 7.86888 18.0898 7.88342 16.1408 7.88342C15.7928 7.88342 15.4945 7.91699 15.1702 7.76146C14.9225 7.64285 14.7569 7.51194 14.6185 7.27137C14.6139 7.26353 14.6083 7.2557 14.6038 7.24787C14.4833 7.03863 14.4968 6.93904 14.498 6.70966C14.5002 6.42769 14.5779 6.19831 14.7873 6.00361C14.8313 5.96333 14.9731 5.86039 14.9911 5.80556L15.0452 5.63772L15.2231 5.62877C16.4448 5.56835 17.671 5.60863 18.8938 5.60863H27.1156C27.6178 5.60863 28.263 5.82011 28.5963 6.20614C28.6717 6.29342 28.7528 6.35943 28.8237 6.45566C28.8722 6.52168 28.9453 6.62015 28.9881 6.71414ZM8.33102 37.7209L8.32539 37.8261L8.32088 37.8608L8.31525 37.8944L8.3085 37.9268L8.30287 37.9581L8.29724 37.9883L8.29048 38.0197L8.28598 38.0476L8.2781 38.0779L8.27472 38.1047C8.27472 38.1036 8.27472 38.1058 8.27472 38.1047L8.27021 38.1327C8.26909 38.1405 8.26796 38.1495 8.26684 38.1573L8.26121 38.2065C8.26233 38.2043 8.26121 38.2088 8.26121 38.2065L8.25895 38.2311L8.25558 38.2815C8.25558 38.2882 8.25445 38.2972 8.25445 38.3028C8.25445 38.3005 8.25445 38.305 8.25445 38.3028L8.25332 38.3486C8.25332 38.3531 8.25332 38.3565 8.25332 38.3609C8.25332 38.3654 8.25332 38.3733 8.25332 38.3788V38.5534V38.7682L8.2522 39.0301C8.2522 39.0592 8.2522 39.0894 8.2522 39.1185C8.2522 39.1666 8.2522 39.2136 8.25107 39.2617V39.3736C8.25107 39.4262 8.25107 39.4776 8.24995 39.5302L8.24769 39.9588C8.24769 39.9711 8.24769 39.9834 8.24769 39.9968C8.24769 40.0796 8.24657 40.1624 8.24657 40.2463C8.24657 40.2452 8.24657 40.2475 8.24657 40.2463L8.24544 40.5037C8.24544 40.5015 8.24544 40.5059 8.24544 40.5037L8.24432 40.7678L8.24319 41.0229C8.24319 41.0274 8.24319 41.0318 8.24319 41.0374C8.24319 41.1281 8.24206 41.2198 8.24206 41.3105C8.24206 41.4022 8.24206 41.494 8.24094 41.5857L8.23981 41.8408H8.14973C8.14636 42.7729 8.1441 43.7094 8.16099 44.6382C8.16099 44.6426 8.16099 44.6482 8.16099 44.6549C8.21391 44.6583 8.26684 44.6594 8.30737 44.6605C8.50554 44.6695 8.70484 44.6729 8.90301 44.6762C9.46149 44.6852 10.02 44.6852 10.5785 44.6852C11.4646 44.684 12.3519 44.6717 13.238 44.6717C15.9685 44.6717 18.699 44.6829 21.4306 44.6863C23.204 44.6874 24.9763 44.6885 26.7497 44.684C27.3532 44.6818 27.9579 44.6807 28.5614 44.674C28.7438 44.6717 28.9273 44.6706 29.1097 44.6661C29.1199 44.6661 29.13 44.6661 29.1401 44.6661C29.1413 44.6113 29.1401 44.5565 29.1413 44.5072C29.1446 44.3338 29.1469 44.1604 29.148 43.9858L29.0985 43.9869L29.0906 43.6289L29.0895 43.5729L29.0872 43.4666L29.085 43.4163L29.0827 43.3682L29.0816 43.3223L29.0805 43.2082L29.0793 43.1712L29.0782 43.1187V43.0627L29.0771 43.009V42.9575V42.9072L29.0782 42.8591L29.0793 42.8132L29.0805 42.6991L29.0816 42.5726L29.0827 42.435L29.0838 42.2862L29.085 42.1273V42.1138C29.085 42.0892 29.085 42.0646 29.0861 42.0411C29.0872 41.9807 29.0872 41.9192 29.0883 41.8587C29.0895 41.7961 29.0895 41.7334 29.0906 41.6708C29.0917 41.607 29.0917 41.5421 29.0928 41.4783L29.094 41.3686C29.094 41.3463 29.094 41.325 29.094 41.3026L29.0962 41.0811C29.0962 41.0822 29.0962 41.08 29.0962 41.0811L29.0973 40.9513C29.0973 40.9267 29.0973 40.9032 29.0973 40.8785C29.0973 40.8114 29.0985 40.742 29.0985 40.6749C29.0985 40.6615 29.0985 40.6492 29.0985 40.6357V40.4701V40.3482C29.0985 40.3202 29.0985 40.2933 29.0985 40.2654C29.0985 40.1982 29.0985 40.1311 29.0985 40.064C29.0985 40.0349 29.0985 40.0069 29.0985 39.9778V39.8648V39.8033C29.0985 39.7887 29.0985 39.7742 29.0985 39.7607L29.0973 39.6701C29.0973 39.6712 29.0973 39.669 29.0973 39.6701V39.6142C29.0973 39.5683 29.0962 39.5213 29.0962 39.4754V39.4396C29.0951 39.3904 29.0951 39.3411 29.094 39.2919C29.0928 39.2371 29.0917 39.18 29.0906 39.1252C29.0906 39.1207 29.0906 39.1118 29.0906 39.1084L29.0895 39.0345C29.0883 39.0032 29.0883 38.9719 29.0872 38.9406C29.0861 38.8857 29.0838 38.8242 29.0827 38.7694C29.0816 38.7257 29.0793 38.6821 29.0782 38.6373L29.0771 38.6228C29.0771 38.625 29.0771 38.6194 29.0771 38.6228L29.076 38.5758C29.0748 38.54 29.0726 38.5042 29.0714 38.4684L29.0692 38.4337C29.0669 38.4001 29.0658 38.3665 29.0636 38.3341C29.0613 38.2938 29.0579 38.2524 29.0546 38.2121L29.0534 38.1931C29.0512 38.1685 29.0489 38.1428 29.0467 38.1181L29.0455 38.1036C29.0433 38.0756 29.0399 38.0465 29.0365 38.0186C29.0332 37.9939 29.0287 37.9615 29.0253 37.9369C29.023 37.9234 29.0197 37.9022 29.0163 37.8888L28.9183 37.5766C28.9104 37.5598 28.9037 37.543 28.8958 37.5262L28.7854 37.2935L28.8733 37.2521L28.8598 37.223C28.7325 37.0361 28.5704 36.8963 28.3891 36.7631C28.3812 36.7575 28.3722 36.7508 28.3643 36.7452C28.0952 36.5438 27.7496 36.4565 27.4163 36.4498C26.2115 36.4252 25.0067 36.4476 23.8019 36.4487L9.65178 36.4644L9.58535 36.5874L9.42771 36.583C9.23067 36.5785 8.9244 36.8325 8.79154 36.9612C8.61251 37.1346 8.43911 37.3069 8.35354 37.543L8.35016 37.5721L8.34791 37.6012L8.34678 37.628L8.3389 37.6818L8.33665 37.7075L8.33102 37.7209ZM42.6518 6.81036C42.5426 6.81036 42.4334 6.80925 42.3242 6.80925C42.0427 6.80925 41.7589 6.81148 41.4774 6.81932C41.411 6.82155 41.3018 6.82267 41.2027 6.82827C41.2016 6.87191 41.2016 6.91554 41.2004 6.95247C41.1937 7.1729 41.1914 7.39333 41.1892 7.61264C41.1892 7.62383 41.1892 7.6339 41.1892 7.64509L41.313 7.64621L41.3108 7.90133C41.3097 7.98636 41.3085 8.0714 41.3085 8.15644L41.3074 8.25043C41.3063 8.30638 41.3063 8.36233 41.3063 8.41715L41.304 8.59618C41.3029 8.66668 41.3029 8.73717 41.3018 8.80766C41.3006 8.89718 41.3006 8.99117 41.2995 9.08068V9.14334C41.2984 9.25859 41.2973 9.37496 41.2973 9.49021C41.2961 9.60882 41.295 9.72743 41.295 9.84603C41.2939 9.96688 41.2939 10.0877 41.2928 10.2086C41.2916 10.3305 41.2916 10.4536 41.2905 10.5745V10.5912C41.2894 10.7076 41.2894 10.8251 41.2883 10.9415C41.2871 11.0578 41.2871 11.1753 41.2871 11.2928V11.3208C41.2871 11.4372 41.286 11.5535 41.286 11.6688V11.6912C41.286 11.8019 41.2849 11.9127 41.2849 12.0235C41.2849 12.1387 41.2849 12.2529 41.2849 12.3681C41.2849 12.4297 41.2849 12.4912 41.2849 12.5527V12.6993V12.8683C41.2849 12.9175 41.2849 12.9667 41.2849 13.016V13.1737L41.286 13.3147C41.286 13.3998 41.2871 13.4859 41.2871 13.571V13.6168C41.2883 13.6929 41.2883 13.7701 41.2894 13.8462C41.2905 13.9223 41.2905 13.9984 41.2916 14.0745C41.2928 14.1394 41.2939 14.2043 41.295 14.2692C41.2961 14.3251 41.2973 14.3844 41.2995 14.4404L41.3018 14.503L41.3254 14.5042C41.3299 14.5042 41.3344 14.5042 41.3389 14.5042L41.3671 14.5053C41.3637 14.5053 41.3705 14.5053 41.3671 14.5053L41.3952 14.5064C41.4099 14.5064 41.4245 14.5075 41.4403 14.5075C41.4549 14.5075 41.4752 14.5086 41.4898 14.5086L41.5348 14.5097C41.5326 14.5097 41.5371 14.5097 41.5348 14.5097L41.6024 14.5109C41.6114 14.5109 41.6193 14.5109 41.6283 14.5109C41.6497 14.5109 41.6711 14.512 41.6914 14.512L41.7747 14.5131C41.7938 14.5131 41.813 14.5131 41.8332 14.5142C41.8501 14.5142 41.8681 14.5142 41.885 14.5142H41.9424C41.9413 14.5142 41.9436 14.5142 41.9424 14.5142L42.0539 14.5153C42.0528 14.5153 42.055 14.5153 42.0539 14.5153C42.0674 14.5153 42.0832 14.5153 42.0967 14.5153H42.1721H42.2915H42.3737C42.3861 14.5153 42.3985 14.5153 42.4109 14.5153C42.4345 14.5153 42.4581 14.5153 42.4829 14.5153H42.6529L42.8094 14.5142C42.8376 14.5142 42.8657 14.5142 42.8939 14.5142C42.9322 14.5142 42.9727 14.5142 43.011 14.5131C43.0493 14.5131 43.0887 14.512 43.127 14.512C43.163 14.512 43.2002 14.5109 43.2362 14.5109C43.2711 14.5109 43.3083 14.5097 43.3432 14.5097C43.3522 14.5097 43.3623 14.5097 43.3713 14.5097L43.5109 14.5075C43.5222 14.5075 43.5335 14.5075 43.5447 14.5075C43.5751 14.5075 43.6055 14.5064 43.6359 14.5064C43.6494 14.5064 43.6708 14.5064 43.6843 14.5053L43.7913 14.503C43.7902 14.503 43.7924 14.503 43.7913 14.503L43.8622 14.5019C43.86 14.5019 43.8645 14.5019 43.8622 14.5019L43.914 14.5008C43.9118 14.5008 43.9163 14.5008 43.914 14.5008L43.9512 14.4997C43.9489 14.4997 43.9534 14.4997 43.9512 14.4997H43.9647C43.9726 14.4997 43.9861 14.4986 43.9928 14.4986C43.9996 14.4986 44.0064 14.4974 44.0131 14.4974C44.0221 14.4963 44.0345 14.4963 44.0435 14.4952C44.0514 14.4941 44.0604 14.4941 44.0683 14.493C44.0762 14.4918 44.0852 14.4907 44.0931 14.4907C44.0897 14.4907 44.0964 14.4907 44.0931 14.4907L44.119 14.4874C44.1268 14.4863 44.1347 14.4851 44.1415 14.484C44.1494 14.4829 44.1572 14.4818 44.1662 14.4807C44.1741 14.4795 44.182 14.4784 44.1899 14.4773C44.1955 14.4762 44.2011 14.4751 44.2079 14.4739L44.2721 14.4594L44.3858 14.4337L44.3847 14.4225L44.4444 14.4158L44.5074 14.4035V14.3923L44.629 14.3878L44.6673 14.38L44.7191 14.371L44.7754 14.3654L44.8328 14.3621L44.8351 14.3755L44.9049 14.3699C45.0344 14.3318 45.2663 14.2177 45.3553 14.1763L45.7651 13.9682C45.8147 13.9369 45.8484 13.9044 45.8946 13.8664C46.1131 13.6829 46.3405 13.5642 46.5162 13.3315C46.6186 13.195 46.6974 13.1424 46.7909 12.9947C47.0172 12.6367 47.2874 12.2282 47.3787 11.8098L47.5025 11.3141C47.5329 10.9583 47.5397 10.4849 47.5025 10.1314L47.3178 9.45105C47.2829 9.35034 47.2874 9.25747 47.257 9.17243C47.1985 9.00795 47.1185 8.87592 47.0127 8.73829C46.9665 8.67787 46.9159 8.61856 46.8742 8.55366L46.8562 8.538L46.8033 8.48093L46.6501 8.41604L46.6434 8.40596L46.6569 8.37687L46.6276 8.35897L46.6468 8.32876L46.6175 8.30414L46.5725 8.25267L46.5848 8.23812L46.5162 8.16987L46.3551 7.97853C46.3146 7.94049 46.2741 7.90244 46.2324 7.86552C46.1885 7.82748 46.1401 7.78496 46.095 7.74803L46.0849 7.7402C46.0478 7.70999 46.0095 7.6809 45.9712 7.6518L45.9622 7.64509C45.9205 7.61376 45.8789 7.58467 45.8361 7.55446C45.7922 7.52424 45.7415 7.4918 45.6964 7.46382L45.6841 7.45599C45.6446 7.43137 45.6041 7.40788 45.5636 7.3855C45.5208 7.362 45.4735 7.33626 45.4296 7.315L45.4172 7.30941C45.3778 7.28927 45.3373 7.27025 45.2967 7.25234C45.2551 7.23332 45.21 7.2143 45.1672 7.1964C45.1233 7.17849 45.0693 7.15835 45.0242 7.14269C44.9792 7.12702 44.9285 7.11024 44.8824 7.09569C44.8418 7.08338 44.7968 7.06996 44.7563 7.05877L44.7439 7.05541C44.6966 7.0431 44.6504 7.03079 44.6031 7.01961L44.5907 7.01625C44.548 7.00618 44.504 6.99723 44.4613 6.98828C44.4128 6.97932 44.3644 6.97037 44.316 6.96254C44.2676 6.95471 44.2192 6.94799 44.1707 6.94128C44.1223 6.93457 44.0683 6.92785 44.0199 6.92226L44.0075 6.92114C43.9681 6.91666 43.9287 6.91331 43.8893 6.90995L43.8679 6.90771C43.8228 6.90436 43.7789 6.901 43.7339 6.89764L43.7136 6.89652C43.6618 6.89317 43.61 6.89093 43.5582 6.88869C43.5076 6.88645 43.4501 6.88421 43.3995 6.8831C43.3488 6.88198 43.2902 6.88086 43.2396 6.87974C43.1855 6.87862 43.1292 6.87862 43.0763 6.87862C43.0211 6.87862 42.9648 6.87862 42.9097 6.87862L42.6529 6.87974L42.6518 6.81036ZM59.4209 10.3193L59.404 10.3026L59.3466 10.2522L59.2408 10.1414L59.082 10.0038C59.0831 10.0049 59.0809 10.0027 59.082 10.0038L59.0674 9.99485C59.0629 9.99261 59.0584 9.98926 59.0539 9.98702C59.0471 9.98366 59.0404 9.97919 59.0347 9.97583C59.0302 9.97359 59.0223 9.96912 59.0178 9.96688C59.0111 9.96352 59.0009 9.95793 58.9942 9.95457C58.9886 9.95121 58.9784 9.94674 58.9717 9.94338C58.966 9.94002 58.957 9.93555 58.9514 9.93331L58.93 9.92212C58.9221 9.91876 58.9154 9.91541 58.9075 9.91093C58.9019 9.90757 58.8929 9.90422 58.8872 9.90086C58.8793 9.8975 58.8726 9.89415 58.8647 9.89079C58.8602 9.88855 58.8501 9.88408 58.8456 9.88184L58.8287 9.87401C58.8298 9.87401 58.8275 9.87401 58.8287 9.87401L58.7769 9.85275C58.7791 9.85386 58.7746 9.85163 58.7769 9.85275L58.7656 9.84827L58.7454 9.84044L58.7307 9.83484L58.7161 9.82925L58.6981 9.82142L58.6846 9.81694C58.6868 9.81694 58.6834 9.81694 58.6846 9.81694L58.6632 9.81023C58.6553 9.80911 58.6474 9.80911 58.6384 9.80911C58.6237 9.80799 58.6069 9.80799 58.5922 9.80687C58.5697 9.80575 58.5416 9.80575 58.519 9.80463C58.4909 9.80351 58.456 9.80351 58.4267 9.80239C58.3963 9.80128 58.3558 9.80128 58.3254 9.80128C58.2938 9.80128 58.2601 9.80016 58.2285 9.80016L58.1734 9.79904C58.1441 9.79904 58.1148 9.79792 58.0855 9.79792C58.0416 9.79792 57.9943 9.7968 57.9504 9.7968H57.9144C57.9043 9.7968 57.8941 9.7968 57.8829 9.7968H57.8063C57.8074 9.7968 57.8052 9.7968 57.8063 9.7968L57.6543 9.79568H57.5653C57.5428 9.79568 57.5192 9.79568 57.4966 9.79568H57.3165H57.1656C57.1093 9.79568 57.0519 9.79568 56.9956 9.79568H56.7389V9.73862C54.7459 9.73862 52.7529 9.73862 50.7611 9.73862C50.4683 9.73862 50.1744 9.73414 49.8817 9.73638C49.8479 9.73638 49.7849 9.73638 49.7241 9.7375C49.7454 9.82142 49.7601 9.90422 49.7668 9.99037C49.8051 10.5118 49.795 11.0869 49.7454 11.6084C49.7443 11.6229 49.7421 11.6453 49.7398 11.6699C49.8344 11.6744 49.938 11.6744 50.0146 11.6766C50.3163 11.6844 50.6181 11.6867 50.9198 11.6889C51.8026 11.6956 52.6854 11.6945 53.567 11.6934C55.1332 11.69 56.7006 11.6755 58.2657 11.6788C58.3501 11.6788 58.5945 11.7068 58.6609 11.6498L58.7454 11.577L58.8557 11.5882C58.8715 11.5893 58.8985 11.5927 58.9142 11.5916C58.9368 11.5826 58.966 11.5636 58.9863 11.5535C59.1698 11.4573 59.3432 11.3275 59.4119 11.125C59.5572 10.6942 59.5741 10.6427 59.4209 10.3193ZM28.3914 22.6892L28.388 22.6578C28.388 22.6601 28.388 22.6545 28.388 22.6578L28.3621 22.4038L28.4026 22.3994L28.469 22.217C28.4724 22.2069 28.4758 22.1968 28.4803 22.1868C28.4826 22.1812 28.4848 22.1756 28.4859 22.17C28.4882 22.1633 28.4938 22.1476 28.4961 22.1409C28.4983 22.1342 28.5006 22.1275 28.5028 22.1207C28.5051 22.1151 28.5073 22.1062 28.5096 22.1006C28.5118 22.095 28.513 22.0905 28.5152 22.0849L28.522 22.0648C28.522 22.067 28.5231 22.0626 28.522 22.0648L28.6729 21.615L28.6762 21.596L28.6796 21.5814L28.6774 21.5702L28.6807 21.5534L28.6796 21.5422L28.6841 21.5232L28.6886 21.5076L28.7652 21.3319L28.826 21.1461L28.835 21.1294L28.8451 21.1215L28.8519 21.1036L28.8744 21.0343H24.5968L24.6002 21.2569L24.5473 21.258C24.5473 21.2681 24.5484 21.2771 24.5484 21.2871L24.5495 21.3117C24.5507 21.3386 24.5529 21.3655 24.554 21.3912L24.5563 21.4225C24.5563 21.4281 24.5574 21.4348 24.5574 21.4404L24.5608 21.493C24.563 21.5277 24.5653 21.5613 24.5676 21.596L24.5709 21.6452C24.5732 21.6743 24.5743 21.7034 24.5766 21.7325L24.5799 21.7839C24.5833 21.8287 24.5856 21.8723 24.5889 21.9171L24.5923 21.9674C24.5957 22.0133 24.5991 22.0581 24.6025 22.104L24.6036 22.1163C24.6081 22.1778 24.6126 22.2405 24.6171 22.302C24.6216 22.3658 24.6261 22.4284 24.6317 22.4922L24.6351 22.5392C24.6385 22.5829 24.6419 22.6254 24.6452 22.669L24.6464 22.6847C24.6497 22.7283 24.6531 22.772 24.6565 22.8156L24.6599 22.8514C24.661 22.8604 24.661 22.8693 24.6621 22.8783L24.6745 23.0282C24.6756 23.0427 24.6768 23.0573 24.6779 23.0707L24.6903 23.2218C24.6914 23.2352 24.6925 23.2486 24.6937 23.2609C24.6937 23.2665 24.6948 23.2721 24.6948 23.2766L24.7094 23.4489C24.7106 23.4623 24.7117 23.4769 24.7128 23.4903L24.7207 23.5798C24.7218 23.5977 24.7241 23.6145 24.7252 23.6324C24.7297 23.6895 24.7353 23.7521 24.7398 23.8092L24.7421 23.8316C24.7455 23.8741 24.75 23.9166 24.7533 23.9591L24.7556 23.9782C24.7601 24.0274 24.7646 24.0766 24.7691 24.1247L24.7702 24.1382C24.7702 24.1427 24.7714 24.146 24.7714 24.1505L24.7736 24.1751L24.8277 24.1706L24.8479 24.4246C24.849 24.4403 24.8502 24.456 24.8524 24.4716C24.8535 24.4839 24.8558 24.5041 24.8569 24.5164C24.8581 24.5276 24.8592 24.5399 24.8614 24.5511L24.8637 24.5667C24.8648 24.5768 24.8671 24.588 24.8682 24.5981L24.8704 24.6092C24.8716 24.6137 24.8716 24.6182 24.8727 24.6227L24.8749 24.635C24.8761 24.6439 24.8783 24.6529 24.8806 24.6618L27.5232 24.6786L27.6775 24.6797C27.7327 24.6406 27.7901 24.4985 27.8025 24.4425L27.8059 24.4291L28.2799 23.0349C28.308 22.97 28.3936 22.7697 28.3914 22.6892ZM34.4457 17.7446C34.5482 17.6842 34.6473 17.6226 34.7081 17.5857C34.9186 17.4593 35.1472 17.3082 35.3656 17.1997C35.4726 17.146 35.5312 17.1381 35.6212 17.0576L35.6392 17.0419L37.2055 16.0886C37.3113 16.0259 37.4172 15.9677 37.523 15.9095L38.9586 15.0312C38.9642 14.9025 38.962 14.7693 38.9642 14.6451C38.9688 14.2927 38.9699 13.9413 38.971 13.5889C38.9744 12.5964 38.9733 11.6039 38.971 10.6114C38.9688 9.63791 38.9654 8.66556 38.9597 7.69208C38.9575 7.36424 38.9564 7.03527 38.953 6.70742C38.9519 6.58993 38.9541 6.46797 38.9507 6.34936C38.8629 6.27663 38.5431 6.13453 38.4609 6.08418C38.3866 6.0383 38.3292 5.99354 38.2628 5.93983C38.1986 5.88836 38.1209 5.84696 38.0488 5.8078L37.4149 5.41617C37.3507 5.38149 37.2956 5.35687 37.2314 5.31547C37.1875 5.2875 37.1458 5.25505 37.103 5.22707C37.0512 5.19462 36.9904 5.1756 36.9341 5.14315C36.8294 5.08385 36.7314 5.01448 36.6279 4.95293L35.3904 4.20549C35.1956 4.10031 34.9918 3.96044 34.8015 3.84407C34.7227 3.79596 34.5639 3.69525 34.4254 3.61917C34.4232 3.82393 34.4513 4.11709 34.4513 4.23458V10.1929C34.4513 12.7094 34.4074 15.2292 34.4457 17.7446Z" fill="white"/>
</svg>
