<svg width="50" height="49" viewBox="0 0 50 49" fill="none" xmlns="http://www.w3.org/2000/svg">
<path fill-rule="evenodd" clip-rule="evenodd" d="M9.73638 40.6665H26.619C26.836 40.6665 26.8682 40.6969 26.8682 40.4908V37.3964C26.8682 37.1871 26.836 37.2207 26.5836 37.2207H9.73638C9.48077 37.2207 9.56437 37.3437 9.56437 37.9795L9.56276 40.3534C9.55954 40.5819 9.5081 40.6665 9.73638 40.6665ZM0.976769 3.84387V48.2611C0.976769 48.4975 0.957478 48.4752 1.22594 48.4752L46.0882 48.4704L46.1059 25.2186L42.6978 25.2202L42.6962 45.0725L4.39927 45.0773L4.39445 7.03251L24.3764 7.01494L24.3716 3.6362C24.0228 3.58987 5.39757 3.62981 3.6823 3.62981L1.08769 3.62821C0.93658 3.64099 0.976769 3.69371 0.976769 3.84387ZM20.7353 21.5219C20.671 21.891 20.7144 27.0126 20.7144 27.9439C20.7144 29.1261 20.3656 28.8625 22.5358 28.8625C23.3701 28.8625 27.6591 28.8945 28.114 28.8465C28.2041 28.837 28.2008 28.789 28.2603 28.7187L32.7309 24.2553C32.829 24.1578 32.9962 24.0444 33.0685 23.9438L33.2293 23.7537C33.2679 23.7185 33.2759 23.7057 33.3177 23.669C33.3257 23.6626 33.3482 23.6434 33.3563 23.637L33.5604 23.431C33.6183 23.3687 33.6698 23.3175 33.7325 23.2584L33.9704 23.0188C34.0106 22.9629 34.0074 22.9725 34.0572 22.9262C34.3899 22.621 34.6134 22.2951 34.9622 22.0363C34.9703 22.03 34.996 22.014 35.004 22.0076L38.3542 18.6384C38.4844 18.5074 38.5857 18.4132 38.7111 18.303C38.8316 18.1975 39.8975 17.148 39.9891 17.001L40.6289 16.362C40.735 16.2757 40.8475 16.1335 40.952 16.0265L43.4791 13.5184C43.4839 13.5136 43.492 13.5056 43.4968 13.5008L43.5305 13.4657C43.8874 13.0871 44.2925 12.7788 44.6382 12.4033L45.1317 11.8953C45.9081 11.2116 46.8486 10.1652 47.625 9.42239C47.7665 9.28819 49.2712 7.79133 49.2824 7.72743C49.2679 7.55969 49.2133 7.5533 49.1249 7.46224C48.9834 7.31846 48.7969 7.17309 48.6731 7.01494C48.5735 6.88554 48.5478 6.89193 48.4481 6.79448L42.2059 0.586547C41.9471 0.316567 41.8651 0.532231 41.6867 0.703165L40.7864 1.59617C40.6273 1.75273 40.4778 1.89651 40.3363 2.04188L35.2162 7.12996C35.1359 7.20983 35.078 7.28811 35.0024 7.36479L31.432 10.8985C31.1218 11.1765 30.8662 11.4848 30.5495 11.7739C29.8486 12.4161 29.0303 13.2964 28.315 13.9881L27.8665 14.437C27.7218 14.576 27.5707 14.7293 27.4324 14.8651L24.5308 17.7582C24.4488 17.8301 24.3845 17.8956 24.3025 17.9771L20.7353 21.5219ZM24.3346 22.7952C24.2687 22.9789 24.2253 22.8926 24.198 23.0619L24.1916 25.1962C24.1916 25.3799 24.1659 25.3895 24.3314 25.4055C24.7044 25.4438 25.3812 25.4023 25.7895 25.4023C26.7894 25.4023 26.5 25.4726 26.828 25.193L26.9485 25.1132C26.9582 25.0956 26.9518 25.1004 26.9807 25.0636C27.291 24.6802 27.6912 24.3895 28.0128 24.0316C28.1365 23.8942 28.2394 23.7409 28.397 23.6291C28.4741 23.5747 28.4966 23.5604 28.5545 23.5045C28.741 23.3223 28.8841 23.1306 29.0979 22.9453L29.9306 22.1546C30.1878 21.9006 30.5302 21.5842 30.744 21.3143L31.6925 20.3637C31.7761 20.2679 31.723 20.2935 31.8162 20.22L32.3821 19.6736C32.6216 19.402 32.903 19.1816 33.165 18.9388L33.4785 18.5985C33.6633 18.4164 33.8193 18.2662 34.0202 18.0713L36.2081 15.8811C36.3158 15.7885 36.3898 15.699 36.4878 15.6064L37.2996 14.7964C37.4974 14.6047 37.6742 14.4482 37.8607 14.2549L40.309 11.8059C41.3009 10.7915 42.3393 9.83135 43.3184 8.81533C43.4389 8.69073 43.4855 8.70031 43.5965 8.54695C43.7395 8.35046 43.9598 8.16994 44.1462 7.98942C44.6124 7.53892 44.344 7.66193 43.8392 7.08043L42.6303 5.91105C42.6255 5.90626 42.6175 5.89827 42.6126 5.89348L42.5596 5.84236C42.0837 5.37589 42.14 5.14585 41.7172 5.57717L37.843 9.39363C37.753 9.4751 37.6726 9.58853 37.5794 9.67959L36.4878 10.7611C36.2853 10.9448 36.1293 11.1221 35.9396 11.3138C35.856 11.3985 35.7435 11.4944 35.6599 11.587C35.1921 12.0982 34.5234 12.7165 33.9993 13.2372L33.5781 13.643C33.5267 13.7005 33.4945 13.7293 33.4415 13.782L32.3532 14.8667C32.3017 14.9194 32.276 14.9482 32.2181 15.0057L26.5483 20.6114C26.3618 20.7999 26.2107 21.0139 26.0065 21.1769C25.7268 21.4005 24.5597 22.7265 24.3346 22.7952ZM28.114 28.8465C27.6591 28.8945 23.3701 28.8625 22.5358 28.8625C20.3656 28.8625 20.7144 29.1261 20.7144 27.9439C20.7144 27.0126 20.671 21.891 20.7353 21.5219C20.5906 21.5715 20.7482 21.4804 20.6212 21.5651C20.5778 21.9772 20.6083 26.3145 20.6083 27.118C20.6083 27.4295 20.5215 28.7491 20.6726 28.904C20.8221 29.0558 22.1596 28.9695 22.4699 28.9695C23.3122 28.9695 27.606 29.0031 28.0642 28.96C28.1462 28.8577 28.0642 28.96 28.114 28.8465ZM26.9485 25.1132L26.828 25.193C26.5 25.4726 26.7894 25.4023 25.7895 25.4023C25.3812 25.4023 24.7044 25.4438 24.3314 25.4055C24.1659 25.3895 24.1916 25.3799 24.1916 25.1962L24.198 23.0619C24.2253 22.8926 24.2687 22.9789 24.3346 22.7952C24.2157 22.8319 24.3025 22.7856 24.2012 22.8639C24.0485 22.9821 24.0726 23.1211 24.0742 23.3016V24.8831C24.0742 25.1403 24.0196 25.4263 24.2205 25.5061L26.5434 25.5173C26.6528 25.4982 26.9196 25.316 26.9485 25.1132Z" fill="white"/>
</svg>
