<?xml version="1.0" encoding="UTF-8"?>
<!DOCTYPE svg PUBLIC "-//W3C//DTD SVG 1.1//EN" "http://www.w3.org/Graphics/SVG/1.1/DTD/svg11.dtd">
<!-- Creator: CorelDRAW -->
<svg xmlns="http://www.w3.org/2000/svg" xml:space="preserve" width="464px" height="512px" version="1.1" shape-rendering="geometricPrecision" text-rendering="geometricPrecision" image-rendering="optimizeQuality" fill-rule="evenodd" clip-rule="evenodd"
viewBox="0 0 3.2 3.53"
 xmlns:xlink="http://www.w3.org/1999/xlink"
 xmlns:xodm="http://www.corel.com/coreldraw/odm/2003">
 <g id="Layer_x0020_1">
  <metadata id="CorelCorpID_0Corel-Layer"/>
  <path fill="white" d="M0.28 1.61c0,0.05 0.05,0.12 0.1,0.12 0.08,0 0.09,0 0.16,-0.08l1.22 -1.22c0.1,-0.1 0.29,-0.18 0.44,-0.18 0.14,0 0.23,0.01 0.34,0.07 0.24,0.11 0.41,0.34 0.41,0.62 0,0.19 -0.04,0.32 -0.15,0.47 -0.05,0.06 -1.52,1.52 -1.75,1.75 -0.08,0.09 -0.21,0.12 -0.34,0.12 -0.24,0 -0.46,-0.21 -0.46,-0.46 0,-0.09 0.01,-0.16 0.05,-0.24 0.06,-0.1 0.27,-0.29 0.36,-0.38l1.24 -1.25c0.05,-0.05 0.13,-0.14 0.2,-0.17 0.22,-0.11 0.44,0.14 0.31,0.35 -0.02,0.04 -0.05,0.06 -0.08,0.09 -0.06,0.06 -0.12,0.12 -0.17,0.18l-0.87 0.86c-0.1,0.1 -0.15,0.12 -0.15,0.23 0,0.05 0.07,0.1 0.12,0.1 0.07,0 0.14,-0.09 0.21,-0.16 0.16,-0.15 1.09,-1.08 1.14,-1.14 0.14,-0.22 0.12,-0.47 -0.06,-0.64 -0.14,-0.14 -0.38,-0.2 -0.58,-0.09 -0.11,0.06 -0.33,0.31 -0.43,0.4 -0.12,0.12 -1.34,1.33 -1.39,1.39 -0.02,0.03 -0.03,0.06 -0.05,0.09 -0.02,0.02 -0.04,0.06 -0.05,0.09 -0.07,0.18 -0.07,0.41 0.02,0.58 0.11,0.24 0.36,0.42 0.63,0.42l0.07 0c0.16,0 0.36,-0.1 0.44,-0.17 0.11,-0.11 0.21,-0.21 0.31,-0.32 0.15,-0.15 1.41,-1.39 1.47,-1.46 0.11,-0.15 0.21,-0.35 0.21,-0.57 0,-0.18 -0.01,-0.3 -0.09,-0.46 -0.15,-0.31 -0.48,-0.55 -0.83,-0.55l-0.08 0c-0.25,0 -0.49,0.13 -0.62,0.26 -0.15,0.15 -0.29,0.29 -0.44,0.44 -0.15,0.15 -0.29,0.29 -0.44,0.44l-0.34 0.34c-0.03,0.03 -0.08,0.07 -0.08,0.13z"/>
 </g>
</svg>
